M48
; DRILL file {KiCad 8.0.5} date 2025-01-20T23:06:12+0100
; FORMAT={-:-/ absolute / metric / decimal}
; #@! TF.CreationDate,2025-01-20T23:06:12+01:00
; #@! TF.GenerationSoftware,Kicad,Pcbnew,8.0.5
; #@! TF.FileFunction,Plated,1,2,PTH
FMAT,2
METRIC
; #@! TA.AperFunction,Plated,PTH,ComponentDrill
T1C0.200
; #@! TA.AperFunction,Plated,PTH,ViaDrill
T2C0.300
; #@! TA.AperFunction,Plated,PTH,ComponentDrill
T3C0.400
; #@! TA.AperFunction,Plated,PTH,ComponentDrill
T4C0.700
; #@! TA.AperFunction,Plated,PTH,ComponentDrill
T5C0.800
; #@! TA.AperFunction,Plated,PTH,ComponentDrill
T6C0.900
; #@! TA.AperFunction,Plated,PTH,ComponentDrill
T7C0.990
; #@! TA.AperFunction,Plated,PTH,ComponentDrill
T8C1.000
; #@! TA.AperFunction,Plated,PTH,ComponentDrill
T9C1.300
; #@! TA.AperFunction,Plated,PTH,ComponentDrill
T10C3.200
%
G90
G05
T1
X73.995Y-45.185
X73.995Y-46.71
X74.757Y-44.423
X74.757Y-45.948
X74.757Y-47.473
X75.52Y-45.185
X75.52Y-46.71
X76.282Y-44.423
X76.282Y-45.948
X76.282Y-47.473
X77.045Y-45.185
X77.045Y-46.71
T2
X31.75Y-41.91
X35.56Y-41.91
X38.1Y-60.96
X39.37Y-41.91
X39.37Y-50.8
X40.64Y-67.31
X43.18Y-66.04
X44.45Y-45.72
X44.45Y-57.15
X44.45Y-58.42
X45.72Y-41.91
X46.99Y-43.18
X46.99Y-62.23
X48.26Y-53.34
X48.26Y-57.15
X48.26Y-58.42
X49.53Y-43.18
X49.53Y-53.34
X49.53Y-57.15
X49.53Y-58.42
X52.07Y-62.23
X57.15Y-44.45
X57.15Y-54.61
X57.15Y-55.88
X58.42Y-48.26
X58.42Y-73.66
X59.69Y-57.15
X59.69Y-58.42
X60.325Y-39.203
X60.96Y-50.8
X60.96Y-64.77
X60.96Y-66.04
X68.58Y-62.23
X70.49Y-57.78
X76.2Y-85.09
X78.74Y-62.23
X83.82Y-66.04
X83.82Y-69.85
X85.09Y-64.77
X86.305Y-43.18
X86.36Y-39.351
X86.36Y-41.91
X87.63Y-52.07
X87.63Y-54.61
X87.63Y-57.15
X88.9Y-52.07
X88.9Y-58.42
X90.17Y-66.04
X104.14Y-67.31
X104.14Y-85.09
X107.95Y-64.77
X113.03Y-67.308
X113.03Y-68.561
X114.3Y-70.358
X116.84Y-58.42
X116.84Y-60.96
X116.84Y-64.77
X116.84Y-66.04
X116.84Y-67.31
X116.84Y-68.58
X116.84Y-83.82
X135.89Y-64.751
X137.16Y-62.23
X137.16Y-64.77
X137.16Y-82.55
X142.24Y-62.23
X149.86Y-56.134
X152.146Y-54.61
X152.781Y-62.402
X153.67Y-82.55
X154.94Y-66.04
X154.94Y-74.93
X157.48Y-49.53
X162.56Y-85.09
T3
X41.06Y-36.75
X41.06Y-38.1
X41.91Y-36.75
X41.91Y-38.1
X42.76Y-36.75
X42.76Y-38.1
X43.61Y-36.75
X43.61Y-38.1
X44.46Y-36.75
X44.46Y-38.1
X45.31Y-36.75
X45.31Y-38.1
X46.16Y-36.75
X46.16Y-38.1
X47.01Y-36.75
X47.01Y-38.1
T5
X75.75Y-74.67
X75.75Y-77.47
X77.85Y-77.47
X80.45Y-77.47
X82.55Y-74.67
X82.55Y-77.47
X103.69Y-74.67
X103.69Y-77.47
X105.79Y-77.47
X108.39Y-77.47
X110.49Y-74.67
X110.49Y-77.47
T6
X40.659Y-81.307
X43.199Y-81.307
X121.92Y-78.74
X121.92Y-81.28
X124.46Y-78.74
X124.46Y-81.28
X128.27Y-78.74
X128.27Y-81.28
X130.81Y-78.74
X130.81Y-81.28
T7
X31.75Y-67.31
X31.75Y-71.81
X48.84Y-82.55
X53.34Y-82.55
X60.27Y-82.55
X64.77Y-82.55
T8
X114.425Y-41.91
X115.57Y-39.93
X115.57Y-43.89
X116.715Y-41.91
X117.86Y-39.93
X117.86Y-43.89
X119.005Y-41.91
X120.15Y-39.93
X120.15Y-43.89
X121.295Y-41.91
X122.44Y-39.93
X122.44Y-43.89
X123.585Y-41.91
X124.73Y-39.93
X124.73Y-43.89
X166.37Y-52.42
X166.37Y-55.19
X166.37Y-57.96
X166.37Y-60.73
X166.37Y-63.5
X169.21Y-53.805
X169.21Y-56.575
X169.21Y-59.345
X169.21Y-62.115
T9
X34.24Y-66.05
X34.24Y-73.06
X47.58Y-80.06
X54.59Y-80.06
X59.01Y-80.06
X66.02Y-80.06
X149.07Y-36.92
X149.57Y-44.22
X153.67Y-33.02
X156.17Y-39.82
X158.87Y-41.02
T10
X107.385Y-42.47
X132.385Y-42.47
X166.67Y-45.46
X166.67Y-70.46
T4
X39.715Y-33.9G85X39.715Y-33.0
G05
X39.715Y-38.25G85X39.715Y-36.95
G05
X48.35Y-33.895G85X48.35Y-32.995
G05
X48.355Y-38.25G85X48.355Y-36.95
G05
T8
X72.3Y-79.57G85X72.3Y-81.07
G05
X78.15Y-81.12G85X80.15Y-81.12
G05
X86.0Y-79.57G85X86.0Y-81.07
G05
X100.24Y-79.57G85X100.24Y-81.07
G05
X106.09Y-81.12G85X108.09Y-81.12
G05
X113.94Y-79.57G85X113.94Y-81.07
G05
M30
