G04 #@! TF.GenerationSoftware,KiCad,Pcbnew,8.0.5*
G04 #@! TF.CreationDate,2025-02-16T13:40:21+01:00*
G04 #@! TF.ProjectId,nTerm2-s,6e546572-6d32-42d7-932e-6b696361645f,0.03*
G04 #@! TF.SameCoordinates,Original*
G04 #@! TF.FileFunction,Paste,Top*
G04 #@! TF.FilePolarity,Positive*
%FSLAX46Y46*%
G04 Gerber Fmt 4.6, Leading zero omitted, Abs format (unit mm)*
G04 Created by KiCad (PCBNEW 8.0.5) date 2025-02-16 13:40:21*
%MOMM*%
%LPD*%
G01*
G04 APERTURE LIST*
G04 Aperture macros list*
%AMRoundRect*
0 Rectangle with rounded corners*
0 $1 Rounding radius*
0 $2 $3 $4 $5 $6 $7 $8 $9 X,Y pos of 4 corners*
0 Add a 4 corners polygon primitive as box body*
4,1,4,$2,$3,$4,$5,$6,$7,$8,$9,$2,$3,0*
0 Add four circle primitives for the rounded corners*
1,1,$1+$1,$2,$3*
1,1,$1+$1,$4,$5*
1,1,$1+$1,$6,$7*
1,1,$1+$1,$8,$9*
0 Add four rect primitives between the rounded corners*
20,1,$1+$1,$2,$3,$4,$5,0*
20,1,$1+$1,$4,$5,$6,$7,0*
20,1,$1+$1,$6,$7,$8,$9,0*
20,1,$1+$1,$8,$9,$2,$3,0*%
G04 Aperture macros list end*
%ADD10RoundRect,0.237500X-0.237500X0.250000X-0.237500X-0.250000X0.237500X-0.250000X0.237500X0.250000X0*%
%ADD11RoundRect,0.237500X-0.250000X-0.237500X0.250000X-0.237500X0.250000X0.237500X-0.250000X0.237500X0*%
%ADD12RoundRect,0.237500X0.237500X-0.250000X0.237500X0.250000X-0.237500X0.250000X-0.237500X-0.250000X0*%
%ADD13RoundRect,0.250000X1.000000X0.650000X-1.000000X0.650000X-1.000000X-0.650000X1.000000X-0.650000X0*%
%ADD14RoundRect,0.225000X0.375000X-0.225000X0.375000X0.225000X-0.375000X0.225000X-0.375000X-0.225000X0*%
%ADD15RoundRect,0.225000X-0.225000X-0.375000X0.225000X-0.375000X0.225000X0.375000X-0.225000X0.375000X0*%
%ADD16R,0.700000X2.000000*%
%ADD17R,1.500000X0.900000*%
%ADD18R,0.900000X1.500000*%
%ADD19R,1.050000X1.050000*%
%ADD20RoundRect,0.237500X-0.237500X0.300000X-0.237500X-0.300000X0.237500X-0.300000X0.237500X0.300000X0*%
%ADD21RoundRect,0.250000X0.550000X-1.500000X0.550000X1.500000X-0.550000X1.500000X-0.550000X-1.500000X0*%
%ADD22RoundRect,0.150000X-0.825000X-0.150000X0.825000X-0.150000X0.825000X0.150000X-0.825000X0.150000X0*%
%ADD23RoundRect,0.237500X0.250000X0.237500X-0.250000X0.237500X-0.250000X-0.237500X0.250000X-0.237500X0*%
%ADD24RoundRect,0.250000X-0.425000X0.537500X-0.425000X-0.537500X0.425000X-0.537500X0.425000X0.537500X0*%
%ADD25RoundRect,0.250000X0.425000X-0.537500X0.425000X0.537500X-0.425000X0.537500X-0.425000X-0.537500X0*%
%ADD26RoundRect,0.237500X-0.300000X-0.237500X0.300000X-0.237500X0.300000X0.237500X-0.300000X0.237500X0*%
%ADD27RoundRect,0.375000X-0.375000X0.625000X-0.375000X-0.625000X0.375000X-0.625000X0.375000X0.625000X0*%
%ADD28RoundRect,0.500000X-1.400000X0.500000X-1.400000X-0.500000X1.400000X-0.500000X1.400000X0.500000X0*%
%ADD29RoundRect,0.250000X0.875000X0.925000X-0.875000X0.925000X-0.875000X-0.925000X0.875000X-0.925000X0*%
%ADD30RoundRect,0.250000X0.925000X-0.875000X0.925000X0.875000X-0.925000X0.875000X-0.925000X-0.875000X0*%
%ADD31RoundRect,0.150000X-0.587500X-0.150000X0.587500X-0.150000X0.587500X0.150000X-0.587500X0.150000X0*%
%ADD32RoundRect,0.150000X0.587500X0.150000X-0.587500X0.150000X-0.587500X-0.150000X0.587500X-0.150000X0*%
%ADD33RoundRect,0.250001X0.499999X0.924999X-0.499999X0.924999X-0.499999X-0.924999X0.499999X-0.924999X0*%
%ADD34RoundRect,0.237500X0.237500X-0.300000X0.237500X0.300000X-0.237500X0.300000X-0.237500X-0.300000X0*%
%ADD35RoundRect,0.250000X-1.500000X-0.550000X1.500000X-0.550000X1.500000X0.550000X-1.500000X0.550000X0*%
%ADD36RoundRect,0.225000X-0.225000X-0.225000X0.225000X-0.225000X0.225000X0.225000X-0.225000X0.225000X0*%
%ADD37RoundRect,0.062500X-0.337500X-0.062500X0.337500X-0.062500X0.337500X0.062500X-0.337500X0.062500X0*%
%ADD38RoundRect,0.062500X-0.062500X-0.337500X0.062500X-0.337500X0.062500X0.337500X-0.062500X0.337500X0*%
%ADD39RoundRect,0.250000X-0.475000X0.337500X-0.475000X-0.337500X0.475000X-0.337500X0.475000X0.337500X0*%
%ADD40R,1.200000X1.200000*%
%ADD41RoundRect,0.250000X0.537500X0.425000X-0.537500X0.425000X-0.537500X-0.425000X0.537500X-0.425000X0*%
G04 APERTURE END LIST*
D10*
X84266000Y-107528500D03*
X84266000Y-109353500D03*
D11*
X138956000Y-84668500D03*
X140781000Y-84668500D03*
D12*
X103570000Y-94113500D03*
X103570000Y-92288500D03*
X177895000Y-120783500D03*
X177895000Y-118958500D03*
D10*
X174188499Y-89748500D03*
X174188499Y-91573500D03*
D13*
X99474000Y-89748500D03*
X95474000Y-89748500D03*
D14*
X191708000Y-103417000D03*
X191708000Y-100117000D03*
D15*
X178374000Y-124038500D03*
X181674000Y-124038500D03*
D16*
X201741000Y-109268500D03*
X198541000Y-109268500D03*
X196341000Y-109268500D03*
X194141000Y-109268500D03*
X194141000Y-115268500D03*
X196341000Y-115268500D03*
X198541000Y-115268500D03*
X201741000Y-115268500D03*
D10*
X174436000Y-100670500D03*
X174436000Y-102495500D03*
D17*
X113616000Y-80096500D03*
X113616000Y-81366500D03*
X113616000Y-82636500D03*
X113616000Y-83906500D03*
X113616000Y-85176500D03*
X113616000Y-86446500D03*
X113616000Y-87716500D03*
X113616000Y-88986500D03*
X113616000Y-90256500D03*
X113616000Y-91526500D03*
X113616000Y-92796500D03*
X113616000Y-94066500D03*
X113616000Y-95336500D03*
X113616000Y-96606500D03*
D18*
X116656000Y-97856500D03*
X117926000Y-97856500D03*
X119196000Y-97856500D03*
X120466000Y-97856500D03*
X121736000Y-97856500D03*
X123006000Y-97856500D03*
X124276000Y-97856500D03*
X125546000Y-97856500D03*
X126816000Y-97856500D03*
X128086000Y-97856500D03*
D17*
X131116000Y-96606500D03*
X131116000Y-95336500D03*
X131116000Y-94066500D03*
X131116000Y-92796500D03*
X131116000Y-91526500D03*
X131116000Y-90256500D03*
X131116000Y-88986500D03*
X131116000Y-87716500D03*
X131116000Y-86446500D03*
X131116000Y-85176500D03*
X131116000Y-83906500D03*
X131116000Y-82636500D03*
X131116000Y-81366500D03*
X131116000Y-80096500D03*
D19*
X120161000Y-85911500D03*
X120161000Y-87436500D03*
X120161000Y-88961500D03*
X121686000Y-85911500D03*
X121686000Y-87436500D03*
X121686000Y-88961500D03*
X123211000Y-85911500D03*
X123211000Y-87436500D03*
X123211000Y-88961500D03*
D12*
X126176000Y-112251000D03*
X126176000Y-110426000D03*
X194248000Y-101942000D03*
X194248000Y-100117000D03*
D20*
X176976000Y-100720500D03*
X176976000Y-102445500D03*
D21*
X206694000Y-123096000D03*
X206694000Y-117696000D03*
D11*
X138956000Y-88224500D03*
X140781000Y-88224500D03*
D14*
X193740000Y-122258500D03*
X193740000Y-118958500D03*
D12*
X196280000Y-120783500D03*
X196280000Y-118958500D03*
D21*
X188279000Y-123096000D03*
X188279000Y-117696000D03*
D14*
X175355000Y-122258500D03*
X175355000Y-118958500D03*
D10*
X170499000Y-113878500D03*
X170499000Y-115703500D03*
D22*
X171778499Y-94193500D03*
X171778499Y-95463500D03*
X171778499Y-96733500D03*
X171778499Y-98003500D03*
X176728499Y-98003500D03*
X176728499Y-96733500D03*
X176728499Y-95463500D03*
X176728499Y-94193500D03*
D23*
X140781000Y-80858500D03*
X138956000Y-80858500D03*
D20*
X86806000Y-91018500D03*
X86806000Y-92743500D03*
D12*
X118556000Y-112251000D03*
X118556000Y-110426000D03*
D24*
X147574000Y-105369500D03*
X147574000Y-108244500D03*
D25*
X86806000Y-87543500D03*
X86806000Y-84668500D03*
D12*
X105602000Y-94113500D03*
X105602000Y-92288500D03*
D26*
X98396000Y-117688500D03*
X100121000Y-117688500D03*
D27*
X82502000Y-92567500D03*
X80202000Y-92567500D03*
D28*
X80202000Y-98867500D03*
D27*
X77902000Y-92567500D03*
D29*
X105801000Y-82001500D03*
X100701000Y-82001500D03*
D11*
X94486000Y-117688500D03*
X96311000Y-117688500D03*
X166143000Y-93726000D03*
X167968000Y-93726000D03*
D22*
X152276000Y-99527500D03*
X152276000Y-100797500D03*
X152276000Y-102067500D03*
X152276000Y-103337500D03*
X152276000Y-104607500D03*
X152276000Y-105877500D03*
X152276000Y-107147500D03*
X152276000Y-108417500D03*
X157226000Y-108417500D03*
X157226000Y-107147500D03*
X157226000Y-105877500D03*
X157226000Y-104607500D03*
X157226000Y-103337500D03*
X157226000Y-102067500D03*
X157226000Y-100797500D03*
X157226000Y-99527500D03*
D30*
X77916000Y-88656000D03*
X77916000Y-83556000D03*
D24*
X144526000Y-105369500D03*
X144526000Y-108244500D03*
D31*
X196945000Y-100183000D03*
X196945000Y-102083000D03*
X198820000Y-101133000D03*
D26*
X109766000Y-117688500D03*
X111491000Y-117688500D03*
D11*
X91839000Y-103718500D03*
X93664000Y-103718500D03*
D16*
X183250500Y-109268500D03*
X180050500Y-109268500D03*
X177850500Y-109268500D03*
X175650500Y-109268500D03*
X175650500Y-115268500D03*
X177850500Y-115268500D03*
X180050500Y-115268500D03*
X183250500Y-115268500D03*
D25*
X86084500Y-104561500D03*
X86084500Y-101686500D03*
D32*
X107106000Y-114508500D03*
X107106000Y-112608500D03*
X105231000Y-113558500D03*
D24*
X161355000Y-100503000D03*
X161355000Y-103378000D03*
D33*
X81700000Y-102956500D03*
X78450000Y-102956500D03*
D34*
X171775499Y-91473500D03*
X171775499Y-89748500D03*
D11*
X138956000Y-93558500D03*
X140781000Y-93558500D03*
D35*
X181267499Y-101178500D03*
X186667499Y-101178500D03*
D11*
X138956000Y-90002500D03*
X140781000Y-90002500D03*
D35*
X181267499Y-92923500D03*
X186667499Y-92923500D03*
D24*
X144526000Y-99781500D03*
X144526000Y-102656500D03*
D36*
X94091000Y-98003500D03*
X94091000Y-99123500D03*
X94091000Y-100243500D03*
X95211000Y-98003500D03*
X95211000Y-99123500D03*
X95211000Y-100243500D03*
X96331000Y-98003500D03*
X96331000Y-99123500D03*
X96331000Y-100243500D03*
D37*
X92761000Y-97623500D03*
X92761000Y-98123500D03*
X92761000Y-98623500D03*
X92761000Y-99123500D03*
X92761000Y-99623500D03*
X92761000Y-100123500D03*
X92761000Y-100623500D03*
D38*
X93711000Y-101573500D03*
X94211000Y-101573500D03*
X94711000Y-101573500D03*
X95211000Y-101573500D03*
X95711000Y-101573500D03*
X96211000Y-101573500D03*
X96711000Y-101573500D03*
D37*
X97661000Y-100623500D03*
X97661000Y-100123500D03*
X97661000Y-99623500D03*
X97661000Y-99123500D03*
X97661000Y-98623500D03*
X97661000Y-98123500D03*
X97661000Y-97623500D03*
D38*
X96711000Y-96673500D03*
X96211000Y-96673500D03*
X95711000Y-96673500D03*
X95211000Y-96673500D03*
X94711000Y-96673500D03*
X94211000Y-96673500D03*
X93711000Y-96673500D03*
D23*
X167977500Y-91530685D03*
X166152500Y-91530685D03*
D10*
X167959000Y-113878500D03*
X167959000Y-115703500D03*
X164149000Y-113878500D03*
X164149000Y-115703500D03*
D12*
X100121000Y-114433500D03*
X100121000Y-112608500D03*
D21*
X204662000Y-104046000D03*
X204662000Y-98646000D03*
D12*
X128716000Y-112251000D03*
X128716000Y-110426000D03*
D26*
X166243000Y-95885000D03*
X167968000Y-95885000D03*
D12*
X116016000Y-112251000D03*
X116016000Y-110426000D03*
D16*
X199604750Y-90225500D03*
X196404750Y-90225500D03*
X194204750Y-90225500D03*
X192004750Y-90225500D03*
X192004750Y-96225500D03*
X194204750Y-96225500D03*
X196404750Y-96225500D03*
X199604750Y-96225500D03*
D24*
X147574000Y-99781500D03*
X147574000Y-102656500D03*
D15*
X196916000Y-124038500D03*
X200216000Y-124038500D03*
D39*
X167994500Y-98149500D03*
X167994500Y-100224500D03*
D12*
X131256000Y-112251000D03*
X131256000Y-110426000D03*
D13*
X99474000Y-85938500D03*
X95474000Y-85938500D03*
D25*
X109285000Y-83566000D03*
X109285000Y-80691000D03*
D32*
X96311000Y-114508500D03*
X96311000Y-112608500D03*
X94436000Y-113558500D03*
D34*
X171896000Y-102445500D03*
X171896000Y-100720500D03*
D30*
X82996000Y-88656000D03*
X82996000Y-83556000D03*
D20*
X84266000Y-112608500D03*
X84266000Y-114333500D03*
D31*
X198898500Y-118983500D03*
X198898500Y-120883500D03*
X200773500Y-119933500D03*
D12*
X110916000Y-114433500D03*
X110916000Y-112608500D03*
D11*
X138956000Y-91780500D03*
X140781000Y-91780500D03*
D12*
X135701000Y-98558500D03*
X135701000Y-96733500D03*
D10*
X161609000Y-113878500D03*
X161609000Y-115703500D03*
D11*
X91862500Y-105369500D03*
X93687500Y-105369500D03*
D12*
X133796000Y-112251000D03*
X133796000Y-110426000D03*
X121096000Y-112251000D03*
X121096000Y-110426000D03*
D11*
X91862500Y-107020500D03*
X93687500Y-107020500D03*
D23*
X140781000Y-82763500D03*
X138956000Y-82763500D03*
D40*
X89981000Y-87465500D03*
X89981000Y-84665500D03*
D11*
X138956000Y-86446500D03*
X140781000Y-86446500D03*
D23*
X89369500Y-117688500D03*
X87544500Y-117688500D03*
D10*
X165835500Y-98274500D03*
X165835500Y-100099500D03*
D41*
X109325500Y-86446500D03*
X106450500Y-86446500D03*
D11*
X105856000Y-117688500D03*
X107681000Y-117688500D03*
D15*
X194885000Y-104988500D03*
X198185000Y-104988500D03*
D12*
X123636000Y-112251000D03*
X123636000Y-110426000D03*
D31*
X180435000Y-118958500D03*
X180435000Y-120858500D03*
X182310000Y-119908500D03*
M02*
