%TF.GenerationSoftware,KiCad,Pcbnew,8.0.5*%
%TF.CreationDate,2025-01-20T23:06:13+01:00*%
%TF.ProjectId,nTerm2-s,6e546572-6d32-42d7-932e-6b696361645f,rev?*%
%TF.SameCoordinates,Original*%
%TF.FileFunction,Drillmap*%
%TF.FilePolarity,Positive*%
%FSLAX45Y45*%
G04 Gerber Fmt 4.5, Leading zero omitted, Abs format (unit mm)*
G04 Created by KiCad (PCBNEW 8.0.5) date 2025-01-20 23:06:13*
%MOMM*%
%LPD*%
G01*
G04 APERTURE LIST*
%ADD10C,0.050000*%
%ADD11C,0.200000*%
%ADD12C,0.320000*%
G04 APERTURE END LIST*
D10*
X5207000Y-3048000D02*
X2794000Y-3048000D01*
X10033000Y-3733800D02*
X10033000Y-3048000D01*
X10033000Y-3048000D02*
X17526000Y-3048000D01*
X2794000Y-8636000D02*
X2794000Y-3048000D01*
X5206580Y-3733800D02*
X6642100Y-3733800D01*
X17526000Y-8636000D02*
X2794000Y-8636000D01*
X5207000Y-3048000D02*
X5206580Y-3733800D01*
X17526000Y-3048000D02*
X17526000Y-8636000D01*
X6642100Y-3733800D02*
X10033000Y-3733800D01*
D11*
D12*
X3269000Y-3523000D02*
X3589000Y-3843000D01*
X3589000Y-3523000D02*
X3269000Y-3843000D01*
X3269000Y-7841000D02*
X3589000Y-8161000D01*
X3589000Y-7841000D02*
X3269000Y-8161000D01*
X9111000Y-7841000D02*
X9431000Y-8161000D01*
X9431000Y-7841000D02*
X9111000Y-8161000D01*
X13937000Y-3523000D02*
X14257000Y-3843000D01*
X14257000Y-3523000D02*
X13937000Y-3843000D01*
X16731000Y-3523000D02*
X17051000Y-3843000D01*
X17051000Y-3523000D02*
X16731000Y-3843000D01*
X16731000Y-7841000D02*
X17051000Y-8161000D01*
X17051000Y-7841000D02*
X16731000Y-8161000D01*
D11*
X3052277Y-8949984D02*
X3052277Y-8749984D01*
X3052277Y-8749984D02*
X3099896Y-8749984D01*
X3099896Y-8749984D02*
X3128467Y-8759508D01*
X3128467Y-8759508D02*
X3147515Y-8778555D01*
X3147515Y-8778555D02*
X3157039Y-8797603D01*
X3157039Y-8797603D02*
X3166562Y-8835698D01*
X3166562Y-8835698D02*
X3166562Y-8864270D01*
X3166562Y-8864270D02*
X3157039Y-8902365D01*
X3157039Y-8902365D02*
X3147515Y-8921412D01*
X3147515Y-8921412D02*
X3128467Y-8940460D01*
X3128467Y-8940460D02*
X3099896Y-8949984D01*
X3099896Y-8949984D02*
X3052277Y-8949984D01*
X3252277Y-8949984D02*
X3252277Y-8816650D01*
X3252277Y-8854746D02*
X3261801Y-8835698D01*
X3261801Y-8835698D02*
X3271324Y-8826174D01*
X3271324Y-8826174D02*
X3290372Y-8816650D01*
X3290372Y-8816650D02*
X3309420Y-8816650D01*
X3376086Y-8949984D02*
X3376086Y-8816650D01*
X3376086Y-8749984D02*
X3366562Y-8759508D01*
X3366562Y-8759508D02*
X3376086Y-8769031D01*
X3376086Y-8769031D02*
X3385610Y-8759508D01*
X3385610Y-8759508D02*
X3376086Y-8749984D01*
X3376086Y-8749984D02*
X3376086Y-8769031D01*
X3499896Y-8949984D02*
X3480848Y-8940460D01*
X3480848Y-8940460D02*
X3471324Y-8921412D01*
X3471324Y-8921412D02*
X3471324Y-8749984D01*
X3604658Y-8949984D02*
X3585610Y-8940460D01*
X3585610Y-8940460D02*
X3576086Y-8921412D01*
X3576086Y-8921412D02*
X3576086Y-8749984D01*
X3833229Y-8949984D02*
X3833229Y-8749984D01*
X3833229Y-8749984D02*
X3899896Y-8892841D01*
X3899896Y-8892841D02*
X3966562Y-8749984D01*
X3966562Y-8749984D02*
X3966562Y-8949984D01*
X4147515Y-8949984D02*
X4147515Y-8845222D01*
X4147515Y-8845222D02*
X4137991Y-8826174D01*
X4137991Y-8826174D02*
X4118943Y-8816650D01*
X4118943Y-8816650D02*
X4080848Y-8816650D01*
X4080848Y-8816650D02*
X4061801Y-8826174D01*
X4147515Y-8940460D02*
X4128467Y-8949984D01*
X4128467Y-8949984D02*
X4080848Y-8949984D01*
X4080848Y-8949984D02*
X4061801Y-8940460D01*
X4061801Y-8940460D02*
X4052277Y-8921412D01*
X4052277Y-8921412D02*
X4052277Y-8902365D01*
X4052277Y-8902365D02*
X4061801Y-8883317D01*
X4061801Y-8883317D02*
X4080848Y-8873793D01*
X4080848Y-8873793D02*
X4128467Y-8873793D01*
X4128467Y-8873793D02*
X4147515Y-8864270D01*
X4242753Y-8816650D02*
X4242753Y-9016650D01*
X4242753Y-8826174D02*
X4261801Y-8816650D01*
X4261801Y-8816650D02*
X4299896Y-8816650D01*
X4299896Y-8816650D02*
X4318944Y-8826174D01*
X4318944Y-8826174D02*
X4328467Y-8835698D01*
X4328467Y-8835698D02*
X4337991Y-8854746D01*
X4337991Y-8854746D02*
X4337991Y-8911889D01*
X4337991Y-8911889D02*
X4328467Y-8930936D01*
X4328467Y-8930936D02*
X4318944Y-8940460D01*
X4318944Y-8940460D02*
X4299896Y-8949984D01*
X4299896Y-8949984D02*
X4261801Y-8949984D01*
X4261801Y-8949984D02*
X4242753Y-8940460D01*
X4423705Y-8930936D02*
X4433229Y-8940460D01*
X4433229Y-8940460D02*
X4423705Y-8949984D01*
X4423705Y-8949984D02*
X4414182Y-8940460D01*
X4414182Y-8940460D02*
X4423705Y-8930936D01*
X4423705Y-8930936D02*
X4423705Y-8949984D01*
X4423705Y-8826174D02*
X4433229Y-8835698D01*
X4433229Y-8835698D02*
X4423705Y-8845222D01*
X4423705Y-8845222D02*
X4414182Y-8835698D01*
X4414182Y-8835698D02*
X4423705Y-8826174D01*
X4423705Y-8826174D02*
X4423705Y-8845222D01*
X2591500Y-9178500D02*
X2791500Y-9378500D01*
X2791500Y-9178500D02*
X2591500Y-9378500D01*
X3033229Y-9169984D02*
X3157039Y-9169984D01*
X3157039Y-9169984D02*
X3090372Y-9246174D01*
X3090372Y-9246174D02*
X3118943Y-9246174D01*
X3118943Y-9246174D02*
X3137991Y-9255698D01*
X3137991Y-9255698D02*
X3147515Y-9265222D01*
X3147515Y-9265222D02*
X3157039Y-9284270D01*
X3157039Y-9284270D02*
X3157039Y-9331889D01*
X3157039Y-9331889D02*
X3147515Y-9350936D01*
X3147515Y-9350936D02*
X3137991Y-9360460D01*
X3137991Y-9360460D02*
X3118943Y-9369984D01*
X3118943Y-9369984D02*
X3061801Y-9369984D01*
X3061801Y-9369984D02*
X3042753Y-9360460D01*
X3042753Y-9360460D02*
X3033229Y-9350936D01*
X3242753Y-9350936D02*
X3252277Y-9360460D01*
X3252277Y-9360460D02*
X3242753Y-9369984D01*
X3242753Y-9369984D02*
X3233229Y-9360460D01*
X3233229Y-9360460D02*
X3242753Y-9350936D01*
X3242753Y-9350936D02*
X3242753Y-9369984D01*
X3328467Y-9189031D02*
X3337991Y-9179508D01*
X3337991Y-9179508D02*
X3357039Y-9169984D01*
X3357039Y-9169984D02*
X3404658Y-9169984D01*
X3404658Y-9169984D02*
X3423705Y-9179508D01*
X3423705Y-9179508D02*
X3433229Y-9189031D01*
X3433229Y-9189031D02*
X3442753Y-9208079D01*
X3442753Y-9208079D02*
X3442753Y-9227127D01*
X3442753Y-9227127D02*
X3433229Y-9255698D01*
X3433229Y-9255698D02*
X3318943Y-9369984D01*
X3318943Y-9369984D02*
X3442753Y-9369984D01*
X3566562Y-9169984D02*
X3585610Y-9169984D01*
X3585610Y-9169984D02*
X3604658Y-9179508D01*
X3604658Y-9179508D02*
X3614182Y-9189031D01*
X3614182Y-9189031D02*
X3623705Y-9208079D01*
X3623705Y-9208079D02*
X3633229Y-9246174D01*
X3633229Y-9246174D02*
X3633229Y-9293793D01*
X3633229Y-9293793D02*
X3623705Y-9331889D01*
X3623705Y-9331889D02*
X3614182Y-9350936D01*
X3614182Y-9350936D02*
X3604658Y-9360460D01*
X3604658Y-9360460D02*
X3585610Y-9369984D01*
X3585610Y-9369984D02*
X3566562Y-9369984D01*
X3566562Y-9369984D02*
X3547515Y-9360460D01*
X3547515Y-9360460D02*
X3537991Y-9350936D01*
X3537991Y-9350936D02*
X3528467Y-9331889D01*
X3528467Y-9331889D02*
X3518943Y-9293793D01*
X3518943Y-9293793D02*
X3518943Y-9246174D01*
X3518943Y-9246174D02*
X3528467Y-9208079D01*
X3528467Y-9208079D02*
X3537991Y-9189031D01*
X3537991Y-9189031D02*
X3547515Y-9179508D01*
X3547515Y-9179508D02*
X3566562Y-9169984D01*
X3757039Y-9169984D02*
X3776086Y-9169984D01*
X3776086Y-9169984D02*
X3795134Y-9179508D01*
X3795134Y-9179508D02*
X3804658Y-9189031D01*
X3804658Y-9189031D02*
X3814182Y-9208079D01*
X3814182Y-9208079D02*
X3823705Y-9246174D01*
X3823705Y-9246174D02*
X3823705Y-9293793D01*
X3823705Y-9293793D02*
X3814182Y-9331889D01*
X3814182Y-9331889D02*
X3804658Y-9350936D01*
X3804658Y-9350936D02*
X3795134Y-9360460D01*
X3795134Y-9360460D02*
X3776086Y-9369984D01*
X3776086Y-9369984D02*
X3757039Y-9369984D01*
X3757039Y-9369984D02*
X3737991Y-9360460D01*
X3737991Y-9360460D02*
X3728467Y-9350936D01*
X3728467Y-9350936D02*
X3718943Y-9331889D01*
X3718943Y-9331889D02*
X3709420Y-9293793D01*
X3709420Y-9293793D02*
X3709420Y-9246174D01*
X3709420Y-9246174D02*
X3718943Y-9208079D01*
X3718943Y-9208079D02*
X3728467Y-9189031D01*
X3728467Y-9189031D02*
X3737991Y-9179508D01*
X3737991Y-9179508D02*
X3757039Y-9169984D01*
X3909420Y-9369984D02*
X3909420Y-9236650D01*
X3909420Y-9255698D02*
X3918943Y-9246174D01*
X3918943Y-9246174D02*
X3937991Y-9236650D01*
X3937991Y-9236650D02*
X3966563Y-9236650D01*
X3966563Y-9236650D02*
X3985610Y-9246174D01*
X3985610Y-9246174D02*
X3995134Y-9265222D01*
X3995134Y-9265222D02*
X3995134Y-9369984D01*
X3995134Y-9265222D02*
X4004658Y-9246174D01*
X4004658Y-9246174D02*
X4023705Y-9236650D01*
X4023705Y-9236650D02*
X4052277Y-9236650D01*
X4052277Y-9236650D02*
X4071324Y-9246174D01*
X4071324Y-9246174D02*
X4080848Y-9265222D01*
X4080848Y-9265222D02*
X4080848Y-9369984D01*
X4176086Y-9369984D02*
X4176086Y-9236650D01*
X4176086Y-9255698D02*
X4185610Y-9246174D01*
X4185610Y-9246174D02*
X4204658Y-9236650D01*
X4204658Y-9236650D02*
X4233229Y-9236650D01*
X4233229Y-9236650D02*
X4252277Y-9246174D01*
X4252277Y-9246174D02*
X4261801Y-9265222D01*
X4261801Y-9265222D02*
X4261801Y-9369984D01*
X4261801Y-9265222D02*
X4271325Y-9246174D01*
X4271325Y-9246174D02*
X4290372Y-9236650D01*
X4290372Y-9236650D02*
X4318944Y-9236650D01*
X4318944Y-9236650D02*
X4337991Y-9246174D01*
X4337991Y-9246174D02*
X4347515Y-9265222D01*
X4347515Y-9265222D02*
X4347515Y-9369984D01*
X4737991Y-9160460D02*
X4566563Y-9417603D01*
X4995134Y-9169984D02*
X5014182Y-9169984D01*
X5014182Y-9169984D02*
X5033229Y-9179508D01*
X5033229Y-9179508D02*
X5042753Y-9189031D01*
X5042753Y-9189031D02*
X5052277Y-9208079D01*
X5052277Y-9208079D02*
X5061801Y-9246174D01*
X5061801Y-9246174D02*
X5061801Y-9293793D01*
X5061801Y-9293793D02*
X5052277Y-9331889D01*
X5052277Y-9331889D02*
X5042753Y-9350936D01*
X5042753Y-9350936D02*
X5033229Y-9360460D01*
X5033229Y-9360460D02*
X5014182Y-9369984D01*
X5014182Y-9369984D02*
X4995134Y-9369984D01*
X4995134Y-9369984D02*
X4976087Y-9360460D01*
X4976087Y-9360460D02*
X4966563Y-9350936D01*
X4966563Y-9350936D02*
X4957039Y-9331889D01*
X4957039Y-9331889D02*
X4947515Y-9293793D01*
X4947515Y-9293793D02*
X4947515Y-9246174D01*
X4947515Y-9246174D02*
X4957039Y-9208079D01*
X4957039Y-9208079D02*
X4966563Y-9189031D01*
X4966563Y-9189031D02*
X4976087Y-9179508D01*
X4976087Y-9179508D02*
X4995134Y-9169984D01*
X5147515Y-9350936D02*
X5157039Y-9360460D01*
X5157039Y-9360460D02*
X5147515Y-9369984D01*
X5147515Y-9369984D02*
X5137991Y-9360460D01*
X5137991Y-9360460D02*
X5147515Y-9350936D01*
X5147515Y-9350936D02*
X5147515Y-9369984D01*
X5347515Y-9369984D02*
X5233229Y-9369984D01*
X5290372Y-9369984D02*
X5290372Y-9169984D01*
X5290372Y-9169984D02*
X5271325Y-9198555D01*
X5271325Y-9198555D02*
X5252277Y-9217603D01*
X5252277Y-9217603D02*
X5233229Y-9227127D01*
X5423706Y-9189031D02*
X5433229Y-9179508D01*
X5433229Y-9179508D02*
X5452277Y-9169984D01*
X5452277Y-9169984D02*
X5499896Y-9169984D01*
X5499896Y-9169984D02*
X5518944Y-9179508D01*
X5518944Y-9179508D02*
X5528468Y-9189031D01*
X5528468Y-9189031D02*
X5537991Y-9208079D01*
X5537991Y-9208079D02*
X5537991Y-9227127D01*
X5537991Y-9227127D02*
X5528468Y-9255698D01*
X5528468Y-9255698D02*
X5414182Y-9369984D01*
X5414182Y-9369984D02*
X5537991Y-9369984D01*
X5709420Y-9169984D02*
X5671325Y-9169984D01*
X5671325Y-9169984D02*
X5652277Y-9179508D01*
X5652277Y-9179508D02*
X5642753Y-9189031D01*
X5642753Y-9189031D02*
X5623706Y-9217603D01*
X5623706Y-9217603D02*
X5614182Y-9255698D01*
X5614182Y-9255698D02*
X5614182Y-9331889D01*
X5614182Y-9331889D02*
X5623706Y-9350936D01*
X5623706Y-9350936D02*
X5633229Y-9360460D01*
X5633229Y-9360460D02*
X5652277Y-9369984D01*
X5652277Y-9369984D02*
X5690372Y-9369984D01*
X5690372Y-9369984D02*
X5709420Y-9360460D01*
X5709420Y-9360460D02*
X5718944Y-9350936D01*
X5718944Y-9350936D02*
X5728467Y-9331889D01*
X5728467Y-9331889D02*
X5728467Y-9284270D01*
X5728467Y-9284270D02*
X5718944Y-9265222D01*
X5718944Y-9265222D02*
X5709420Y-9255698D01*
X5709420Y-9255698D02*
X5690372Y-9246174D01*
X5690372Y-9246174D02*
X5652277Y-9246174D01*
X5652277Y-9246174D02*
X5633229Y-9255698D01*
X5633229Y-9255698D02*
X5623706Y-9265222D01*
X5623706Y-9265222D02*
X5614182Y-9284270D01*
X5852277Y-9169984D02*
X5871325Y-9169984D01*
X5871325Y-9169984D02*
X5890372Y-9179508D01*
X5890372Y-9179508D02*
X5899896Y-9189031D01*
X5899896Y-9189031D02*
X5909420Y-9208079D01*
X5909420Y-9208079D02*
X5918944Y-9246174D01*
X5918944Y-9246174D02*
X5918944Y-9293793D01*
X5918944Y-9293793D02*
X5909420Y-9331889D01*
X5909420Y-9331889D02*
X5899896Y-9350936D01*
X5899896Y-9350936D02*
X5890372Y-9360460D01*
X5890372Y-9360460D02*
X5871325Y-9369984D01*
X5871325Y-9369984D02*
X5852277Y-9369984D01*
X5852277Y-9369984D02*
X5833229Y-9360460D01*
X5833229Y-9360460D02*
X5823706Y-9350936D01*
X5823706Y-9350936D02*
X5814182Y-9331889D01*
X5814182Y-9331889D02*
X5804658Y-9293793D01*
X5804658Y-9293793D02*
X5804658Y-9246174D01*
X5804658Y-9246174D02*
X5814182Y-9208079D01*
X5814182Y-9208079D02*
X5823706Y-9189031D01*
X5823706Y-9189031D02*
X5833229Y-9179508D01*
X5833229Y-9179508D02*
X5852277Y-9169984D01*
X5995134Y-9169984D02*
X5995134Y-9208079D01*
X6071325Y-9169984D02*
X6071325Y-9208079D01*
X6366563Y-9446174D02*
X6357039Y-9436650D01*
X6357039Y-9436650D02*
X6337991Y-9408079D01*
X6337991Y-9408079D02*
X6328468Y-9389031D01*
X6328468Y-9389031D02*
X6318944Y-9360460D01*
X6318944Y-9360460D02*
X6309420Y-9312841D01*
X6309420Y-9312841D02*
X6309420Y-9274746D01*
X6309420Y-9274746D02*
X6318944Y-9227127D01*
X6318944Y-9227127D02*
X6328468Y-9198555D01*
X6328468Y-9198555D02*
X6337991Y-9179508D01*
X6337991Y-9179508D02*
X6357039Y-9150936D01*
X6357039Y-9150936D02*
X6366563Y-9141412D01*
X6528468Y-9169984D02*
X6490372Y-9169984D01*
X6490372Y-9169984D02*
X6471325Y-9179508D01*
X6471325Y-9179508D02*
X6461801Y-9189031D01*
X6461801Y-9189031D02*
X6442753Y-9217603D01*
X6442753Y-9217603D02*
X6433229Y-9255698D01*
X6433229Y-9255698D02*
X6433229Y-9331889D01*
X6433229Y-9331889D02*
X6442753Y-9350936D01*
X6442753Y-9350936D02*
X6452277Y-9360460D01*
X6452277Y-9360460D02*
X6471325Y-9369984D01*
X6471325Y-9369984D02*
X6509420Y-9369984D01*
X6509420Y-9369984D02*
X6528468Y-9360460D01*
X6528468Y-9360460D02*
X6537991Y-9350936D01*
X6537991Y-9350936D02*
X6547515Y-9331889D01*
X6547515Y-9331889D02*
X6547515Y-9284270D01*
X6547515Y-9284270D02*
X6537991Y-9265222D01*
X6537991Y-9265222D02*
X6528468Y-9255698D01*
X6528468Y-9255698D02*
X6509420Y-9246174D01*
X6509420Y-9246174D02*
X6471325Y-9246174D01*
X6471325Y-9246174D02*
X6452277Y-9255698D01*
X6452277Y-9255698D02*
X6442753Y-9265222D01*
X6442753Y-9265222D02*
X6433229Y-9284270D01*
X6785610Y-9369984D02*
X6785610Y-9169984D01*
X6871325Y-9369984D02*
X6871325Y-9265222D01*
X6871325Y-9265222D02*
X6861801Y-9246174D01*
X6861801Y-9246174D02*
X6842753Y-9236650D01*
X6842753Y-9236650D02*
X6814182Y-9236650D01*
X6814182Y-9236650D02*
X6795134Y-9246174D01*
X6795134Y-9246174D02*
X6785610Y-9255698D01*
X6995134Y-9369984D02*
X6976087Y-9360460D01*
X6976087Y-9360460D02*
X6966563Y-9350936D01*
X6966563Y-9350936D02*
X6957039Y-9331889D01*
X6957039Y-9331889D02*
X6957039Y-9274746D01*
X6957039Y-9274746D02*
X6966563Y-9255698D01*
X6966563Y-9255698D02*
X6976087Y-9246174D01*
X6976087Y-9246174D02*
X6995134Y-9236650D01*
X6995134Y-9236650D02*
X7023706Y-9236650D01*
X7023706Y-9236650D02*
X7042753Y-9246174D01*
X7042753Y-9246174D02*
X7052277Y-9255698D01*
X7052277Y-9255698D02*
X7061801Y-9274746D01*
X7061801Y-9274746D02*
X7061801Y-9331889D01*
X7061801Y-9331889D02*
X7052277Y-9350936D01*
X7052277Y-9350936D02*
X7042753Y-9360460D01*
X7042753Y-9360460D02*
X7023706Y-9369984D01*
X7023706Y-9369984D02*
X6995134Y-9369984D01*
X7176087Y-9369984D02*
X7157039Y-9360460D01*
X7157039Y-9360460D02*
X7147515Y-9341412D01*
X7147515Y-9341412D02*
X7147515Y-9169984D01*
X7328468Y-9360460D02*
X7309420Y-9369984D01*
X7309420Y-9369984D02*
X7271325Y-9369984D01*
X7271325Y-9369984D02*
X7252277Y-9360460D01*
X7252277Y-9360460D02*
X7242753Y-9341412D01*
X7242753Y-9341412D02*
X7242753Y-9265222D01*
X7242753Y-9265222D02*
X7252277Y-9246174D01*
X7252277Y-9246174D02*
X7271325Y-9236650D01*
X7271325Y-9236650D02*
X7309420Y-9236650D01*
X7309420Y-9236650D02*
X7328468Y-9246174D01*
X7328468Y-9246174D02*
X7337991Y-9265222D01*
X7337991Y-9265222D02*
X7337991Y-9284270D01*
X7337991Y-9284270D02*
X7242753Y-9303317D01*
X7414182Y-9360460D02*
X7433230Y-9369984D01*
X7433230Y-9369984D02*
X7471325Y-9369984D01*
X7471325Y-9369984D02*
X7490372Y-9360460D01*
X7490372Y-9360460D02*
X7499896Y-9341412D01*
X7499896Y-9341412D02*
X7499896Y-9331889D01*
X7499896Y-9331889D02*
X7490372Y-9312841D01*
X7490372Y-9312841D02*
X7471325Y-9303317D01*
X7471325Y-9303317D02*
X7442753Y-9303317D01*
X7442753Y-9303317D02*
X7423706Y-9293793D01*
X7423706Y-9293793D02*
X7414182Y-9274746D01*
X7414182Y-9274746D02*
X7414182Y-9265222D01*
X7414182Y-9265222D02*
X7423706Y-9246174D01*
X7423706Y-9246174D02*
X7442753Y-9236650D01*
X7442753Y-9236650D02*
X7471325Y-9236650D01*
X7471325Y-9236650D02*
X7490372Y-9246174D01*
X7566563Y-9446174D02*
X7576087Y-9436650D01*
X7576087Y-9436650D02*
X7595134Y-9408079D01*
X7595134Y-9408079D02*
X7604658Y-9389031D01*
X7604658Y-9389031D02*
X7614182Y-9360460D01*
X7614182Y-9360460D02*
X7623706Y-9312841D01*
X7623706Y-9312841D02*
X7623706Y-9274746D01*
X7623706Y-9274746D02*
X7614182Y-9227127D01*
X7614182Y-9227127D02*
X7604658Y-9198555D01*
X7604658Y-9198555D02*
X7595134Y-9179508D01*
X7595134Y-9179508D02*
X7576087Y-9150936D01*
X7576087Y-9150936D02*
X7566563Y-9141412D01*
X7928468Y-9446174D02*
X7918944Y-9436650D01*
X7918944Y-9436650D02*
X7899896Y-9408079D01*
X7899896Y-9408079D02*
X7890372Y-9389031D01*
X7890372Y-9389031D02*
X7880849Y-9360460D01*
X7880849Y-9360460D02*
X7871325Y-9312841D01*
X7871325Y-9312841D02*
X7871325Y-9274746D01*
X7871325Y-9274746D02*
X7880849Y-9227127D01*
X7880849Y-9227127D02*
X7890372Y-9198555D01*
X7890372Y-9198555D02*
X7899896Y-9179508D01*
X7899896Y-9179508D02*
X7918944Y-9150936D01*
X7918944Y-9150936D02*
X7928468Y-9141412D01*
X8004658Y-9236650D02*
X8004658Y-9369984D01*
X8004658Y-9255698D02*
X8014182Y-9246174D01*
X8014182Y-9246174D02*
X8033230Y-9236650D01*
X8033230Y-9236650D02*
X8061801Y-9236650D01*
X8061801Y-9236650D02*
X8080849Y-9246174D01*
X8080849Y-9246174D02*
X8090372Y-9265222D01*
X8090372Y-9265222D02*
X8090372Y-9369984D01*
X8214182Y-9369984D02*
X8195134Y-9360460D01*
X8195134Y-9360460D02*
X8185611Y-9350936D01*
X8185611Y-9350936D02*
X8176087Y-9331889D01*
X8176087Y-9331889D02*
X8176087Y-9274746D01*
X8176087Y-9274746D02*
X8185611Y-9255698D01*
X8185611Y-9255698D02*
X8195134Y-9246174D01*
X8195134Y-9246174D02*
X8214182Y-9236650D01*
X8214182Y-9236650D02*
X8242753Y-9236650D01*
X8242753Y-9236650D02*
X8261801Y-9246174D01*
X8261801Y-9246174D02*
X8271325Y-9255698D01*
X8271325Y-9255698D02*
X8280849Y-9274746D01*
X8280849Y-9274746D02*
X8280849Y-9331889D01*
X8280849Y-9331889D02*
X8271325Y-9350936D01*
X8271325Y-9350936D02*
X8261801Y-9360460D01*
X8261801Y-9360460D02*
X8242753Y-9369984D01*
X8242753Y-9369984D02*
X8214182Y-9369984D01*
X8337992Y-9236650D02*
X8414182Y-9236650D01*
X8366563Y-9169984D02*
X8366563Y-9341412D01*
X8366563Y-9341412D02*
X8376087Y-9360460D01*
X8376087Y-9360460D02*
X8395134Y-9369984D01*
X8395134Y-9369984D02*
X8414182Y-9369984D01*
X8633230Y-9236650D02*
X8633230Y-9436650D01*
X8633230Y-9246174D02*
X8652277Y-9236650D01*
X8652277Y-9236650D02*
X8690373Y-9236650D01*
X8690373Y-9236650D02*
X8709420Y-9246174D01*
X8709420Y-9246174D02*
X8718944Y-9255698D01*
X8718944Y-9255698D02*
X8728468Y-9274746D01*
X8728468Y-9274746D02*
X8728468Y-9331889D01*
X8728468Y-9331889D02*
X8718944Y-9350936D01*
X8718944Y-9350936D02*
X8709420Y-9360460D01*
X8709420Y-9360460D02*
X8690373Y-9369984D01*
X8690373Y-9369984D02*
X8652277Y-9369984D01*
X8652277Y-9369984D02*
X8633230Y-9360460D01*
X8842754Y-9369984D02*
X8823706Y-9360460D01*
X8823706Y-9360460D02*
X8814182Y-9341412D01*
X8814182Y-9341412D02*
X8814182Y-9169984D01*
X9004658Y-9369984D02*
X9004658Y-9265222D01*
X9004658Y-9265222D02*
X8995135Y-9246174D01*
X8995135Y-9246174D02*
X8976087Y-9236650D01*
X8976087Y-9236650D02*
X8937992Y-9236650D01*
X8937992Y-9236650D02*
X8918944Y-9246174D01*
X9004658Y-9360460D02*
X8985611Y-9369984D01*
X8985611Y-9369984D02*
X8937992Y-9369984D01*
X8937992Y-9369984D02*
X8918944Y-9360460D01*
X8918944Y-9360460D02*
X8909420Y-9341412D01*
X8909420Y-9341412D02*
X8909420Y-9322365D01*
X8909420Y-9322365D02*
X8918944Y-9303317D01*
X8918944Y-9303317D02*
X8937992Y-9293793D01*
X8937992Y-9293793D02*
X8985611Y-9293793D01*
X8985611Y-9293793D02*
X9004658Y-9284270D01*
X9071325Y-9236650D02*
X9147515Y-9236650D01*
X9099896Y-9169984D02*
X9099896Y-9341412D01*
X9099896Y-9341412D02*
X9109420Y-9360460D01*
X9109420Y-9360460D02*
X9128468Y-9369984D01*
X9128468Y-9369984D02*
X9147515Y-9369984D01*
X9290373Y-9360460D02*
X9271325Y-9369984D01*
X9271325Y-9369984D02*
X9233230Y-9369984D01*
X9233230Y-9369984D02*
X9214182Y-9360460D01*
X9214182Y-9360460D02*
X9204658Y-9341412D01*
X9204658Y-9341412D02*
X9204658Y-9265222D01*
X9204658Y-9265222D02*
X9214182Y-9246174D01*
X9214182Y-9246174D02*
X9233230Y-9236650D01*
X9233230Y-9236650D02*
X9271325Y-9236650D01*
X9271325Y-9236650D02*
X9290373Y-9246174D01*
X9290373Y-9246174D02*
X9299896Y-9265222D01*
X9299896Y-9265222D02*
X9299896Y-9284270D01*
X9299896Y-9284270D02*
X9204658Y-9303317D01*
X9471325Y-9369984D02*
X9471325Y-9169984D01*
X9471325Y-9360460D02*
X9452277Y-9369984D01*
X9452277Y-9369984D02*
X9414182Y-9369984D01*
X9414182Y-9369984D02*
X9395135Y-9360460D01*
X9395135Y-9360460D02*
X9385611Y-9350936D01*
X9385611Y-9350936D02*
X9376087Y-9331889D01*
X9376087Y-9331889D02*
X9376087Y-9274746D01*
X9376087Y-9274746D02*
X9385611Y-9255698D01*
X9385611Y-9255698D02*
X9395135Y-9246174D01*
X9395135Y-9246174D02*
X9414182Y-9236650D01*
X9414182Y-9236650D02*
X9452277Y-9236650D01*
X9452277Y-9236650D02*
X9471325Y-9246174D01*
X9547516Y-9446174D02*
X9557039Y-9436650D01*
X9557039Y-9436650D02*
X9576087Y-9408079D01*
X9576087Y-9408079D02*
X9585611Y-9389031D01*
X9585611Y-9389031D02*
X9595135Y-9360460D01*
X9595135Y-9360460D02*
X9604658Y-9312841D01*
X9604658Y-9312841D02*
X9604658Y-9274746D01*
X9604658Y-9274746D02*
X9595135Y-9227127D01*
X9595135Y-9227127D02*
X9585611Y-9198555D01*
X9585611Y-9198555D02*
X9576087Y-9179508D01*
X9576087Y-9179508D02*
X9557039Y-9150936D01*
X9557039Y-9150936D02*
X9547516Y-9141412D01*
M02*
