G04 #@! TF.GenerationSoftware,KiCad,Pcbnew,9.0.0-rc3*
G04 #@! TF.CreationDate,2025-02-24T22:30:07+01:00*
G04 #@! TF.ProjectId,nTerm2-s,6e546572-6d32-42d7-932e-6b696361645f,0.05*
G04 #@! TF.SameCoordinates,Original*
G04 #@! TF.FileFunction,Legend,Bot*
G04 #@! TF.FilePolarity,Positive*
%FSLAX46Y46*%
G04 Gerber Fmt 4.6, Leading zero omitted, Abs format (unit mm)*
G04 Created by KiCad (PCBNEW 9.0.0-rc3) date 2025-02-24 22:30:07*
%MOMM*%
%LPD*%
G01*
G04 APERTURE LIST*
%ADD10C,3.200000*%
%ADD11C,1.750000*%
%ADD12C,2.100000*%
%ADD13R,1.600000X1.600000*%
%ADD14C,1.600000*%
%ADD15O,2.000000X3.500000*%
%ADD16O,4.000000X2.000000*%
%ADD17R,1.800000X1.800000*%
%ADD18C,1.800000*%
%ADD19C,0.700000*%
%ADD20O,1.300000X3.200000*%
%ADD21O,1.300000X2.500000*%
%ADD22C,4.000000*%
%ADD23O,2.200000X4.000000*%
%ADD24O,4.000000X2.200000*%
%ADD25R,2.200000X4.000000*%
G04 APERTURE END LIST*
%LPC*%
D10*
X215076000Y-121498500D03*
X80456000Y-78318500D03*
D11*
X99506000Y-124038500D03*
X95006000Y-124038500D03*
D12*
X100756000Y-121548500D03*
X93746000Y-121548500D03*
D11*
X110936000Y-124038500D03*
X106436000Y-124038500D03*
D12*
X112186000Y-121548500D03*
X105176000Y-121548500D03*
D13*
X126616000Y-118958500D03*
D14*
X124016000Y-118958500D03*
X128716000Y-118958500D03*
X121916000Y-118958500D03*
X128716000Y-116158500D03*
X121916000Y-116158500D03*
D15*
X118466000Y-121808500D03*
D16*
X125316000Y-122608500D03*
D15*
X132166000Y-121808500D03*
D17*
X162498000Y-120228500D03*
D18*
X165038000Y-120228500D03*
D17*
X162498000Y-122768500D03*
D18*
X165038000Y-122768500D03*
D17*
X168848000Y-120228500D03*
D18*
X171388000Y-120228500D03*
D17*
X168848000Y-122768500D03*
D18*
X171388000Y-122768500D03*
D13*
X151217000Y-118958500D03*
D14*
X148617000Y-118958500D03*
X153317000Y-118958500D03*
X146517000Y-118958500D03*
X153317000Y-116158500D03*
X146517000Y-116158500D03*
D15*
X143067000Y-121808500D03*
D16*
X149917000Y-122608500D03*
D15*
X156767000Y-121808500D03*
D10*
X80456000Y-121498500D03*
X137606000Y-121498500D03*
D19*
X93176000Y-79588500D03*
X92326000Y-79588500D03*
X91476000Y-79588500D03*
X90626000Y-79588500D03*
X89776000Y-79588500D03*
X88926000Y-79588500D03*
X88076000Y-79588500D03*
X87226000Y-79588500D03*
X87226000Y-78238500D03*
X88076000Y-78238500D03*
X88926000Y-78238500D03*
X89776000Y-78238500D03*
X90626000Y-78238500D03*
X91476000Y-78238500D03*
X92326000Y-78238500D03*
X93176000Y-78238500D03*
D20*
X94521000Y-79088500D03*
D21*
X94516000Y-74783500D03*
D20*
X85881000Y-79088500D03*
D21*
X85881000Y-74788500D03*
D11*
X77916000Y-113298500D03*
X77916000Y-108798500D03*
D12*
X80406000Y-114548500D03*
X80406000Y-107538500D03*
D17*
X86824750Y-122796000D03*
D18*
X89364750Y-122796000D03*
D22*
X212836000Y-111948500D03*
X212836000Y-86948500D03*
D13*
X212536000Y-104988500D03*
D14*
X212536000Y-102218500D03*
X212536000Y-99448500D03*
X212536000Y-96678500D03*
X212536000Y-93908500D03*
X215376000Y-103603500D03*
X215376000Y-100833500D03*
X215376000Y-98063500D03*
X215376000Y-95293500D03*
D10*
X215076000Y-78318500D03*
D22*
X178478000Y-78087000D03*
X153478000Y-78087000D03*
D13*
X161663000Y-80137000D03*
D14*
X163953000Y-80137000D03*
X166243000Y-80137000D03*
X168533000Y-80137000D03*
X170823000Y-80137000D03*
X160518000Y-78157000D03*
X162808000Y-78157000D03*
X165098000Y-78157000D03*
X167388000Y-78157000D03*
X169678000Y-78157000D03*
X161663000Y-76177000D03*
X163953000Y-76177000D03*
X166243000Y-76177000D03*
X168533000Y-76177000D03*
X170823000Y-76177000D03*
D23*
X205036000Y-82508500D03*
X202336000Y-81308500D03*
D24*
X199836000Y-74508500D03*
D25*
X195236000Y-78408500D03*
D24*
X195736000Y-85708500D03*
D10*
X187136000Y-78318500D03*
%LPD*%
M02*
