G04 #@! TF.GenerationSoftware,KiCad,Pcbnew,8.0.5*
G04 #@! TF.CreationDate,2025-01-20T23:05:57+01:00*
G04 #@! TF.ProjectId,nTerm2-s,6e546572-6d32-42d7-932e-6b696361645f,rev?*
G04 #@! TF.SameCoordinates,Original*
G04 #@! TF.FileFunction,Soldermask,Top*
G04 #@! TF.FilePolarity,Negative*
%FSLAX46Y46*%
G04 Gerber Fmt 4.6, Leading zero omitted, Abs format (unit mm)*
G04 Created by KiCad (PCBNEW 8.0.5) date 2025-01-20 23:05:57*
%MOMM*%
%LPD*%
G01*
G04 APERTURE LIST*
G04 Aperture macros list*
%AMRoundRect*
0 Rectangle with rounded corners*
0 $1 Rounding radius*
0 $2 $3 $4 $5 $6 $7 $8 $9 X,Y pos of 4 corners*
0 Add a 4 corners polygon primitive as box body*
4,1,4,$2,$3,$4,$5,$6,$7,$8,$9,$2,$3,0*
0 Add four circle primitives for the rounded corners*
1,1,$1+$1,$2,$3*
1,1,$1+$1,$4,$5*
1,1,$1+$1,$6,$7*
1,1,$1+$1,$8,$9*
0 Add four rect primitives between the rounded corners*
20,1,$1+$1,$2,$3,$4,$5,0*
20,1,$1+$1,$4,$5,$6,$7,0*
20,1,$1+$1,$6,$7,$8,$9,0*
20,1,$1+$1,$8,$9,$2,$3,0*%
G04 Aperture macros list end*
%ADD10C,1.750000*%
%ADD11C,2.100000*%
%ADD12R,1.600000X1.600000*%
%ADD13C,1.600000*%
%ADD14O,2.000000X3.500000*%
%ADD15O,4.000000X2.000000*%
%ADD16C,0.700000*%
%ADD17O,1.300000X3.200000*%
%ADD18O,1.300000X2.500000*%
%ADD19RoundRect,0.237500X-0.237500X0.250000X-0.237500X-0.250000X0.237500X-0.250000X0.237500X0.250000X0*%
%ADD20C,3.200000*%
%ADD21RoundRect,0.237500X-0.250000X-0.237500X0.250000X-0.237500X0.250000X0.237500X-0.250000X0.237500X0*%
%ADD22RoundRect,0.237500X0.237500X-0.250000X0.237500X0.250000X-0.237500X0.250000X-0.237500X-0.250000X0*%
%ADD23RoundRect,0.062500X-0.117500X-0.062500X0.117500X-0.062500X0.117500X0.062500X-0.117500X0.062500X0*%
%ADD24RoundRect,0.225000X0.375000X-0.225000X0.375000X0.225000X-0.375000X0.225000X-0.375000X-0.225000X0*%
%ADD25RoundRect,0.225000X-0.225000X-0.375000X0.225000X-0.375000X0.225000X0.375000X-0.225000X0.375000X0*%
%ADD26R,0.700000X2.000000*%
%ADD27R,1.500000X0.900000*%
%ADD28R,0.900000X1.500000*%
%ADD29C,0.600000*%
%ADD30R,4.200000X4.200000*%
%ADD31RoundRect,0.237500X-0.237500X0.300000X-0.237500X-0.300000X0.237500X-0.300000X0.237500X0.300000X0*%
%ADD32RoundRect,0.250000X0.425000X-0.537500X0.425000X0.537500X-0.425000X0.537500X-0.425000X-0.537500X0*%
%ADD33R,1.800000X1.800000*%
%ADD34C,1.800000*%
%ADD35RoundRect,0.150000X-0.825000X-0.150000X0.825000X-0.150000X0.825000X0.150000X-0.825000X0.150000X0*%
%ADD36RoundRect,0.237500X0.250000X0.237500X-0.250000X0.237500X-0.250000X-0.237500X0.250000X-0.237500X0*%
%ADD37RoundRect,0.250000X-0.425000X0.537500X-0.425000X-0.537500X0.425000X-0.537500X0.425000X0.537500X0*%
%ADD38RoundRect,0.237500X-0.300000X-0.237500X0.300000X-0.237500X0.300000X0.237500X-0.300000X0.237500X0*%
%ADD39RoundRect,0.375000X-0.375000X0.625000X-0.375000X-0.625000X0.375000X-0.625000X0.375000X0.625000X0*%
%ADD40RoundRect,0.500000X-1.400000X0.500000X-1.400000X-0.500000X1.400000X-0.500000X1.400000X0.500000X0*%
%ADD41RoundRect,0.150000X-0.587500X-0.150000X0.587500X-0.150000X0.587500X0.150000X-0.587500X0.150000X0*%
%ADD42RoundRect,0.150000X0.587500X0.150000X-0.587500X0.150000X-0.587500X-0.150000X0.587500X-0.150000X0*%
%ADD43RoundRect,0.250000X-0.537500X-0.425000X0.537500X-0.425000X0.537500X0.425000X-0.537500X0.425000X0*%
%ADD44RoundRect,0.237500X0.237500X-0.300000X0.237500X0.300000X-0.237500X0.300000X-0.237500X-0.300000X0*%
%ADD45C,4.000000*%
%ADD46RoundRect,0.250000X-1.500000X-0.550000X1.500000X-0.550000X1.500000X0.550000X-1.500000X0.550000X0*%
%ADD47RoundRect,0.062500X-0.337500X-0.062500X0.337500X-0.062500X0.337500X0.062500X-0.337500X0.062500X0*%
%ADD48RoundRect,0.062500X-0.062500X-0.337500X0.062500X-0.337500X0.062500X0.337500X-0.062500X0.337500X0*%
%ADD49R,3.350000X3.350000*%
%ADD50RoundRect,0.250000X-0.337500X-0.475000X0.337500X-0.475000X0.337500X0.475000X-0.337500X0.475000X0*%
%ADD51O,4.000000X2.200000*%
%ADD52O,2.200000X4.000000*%
%ADD53R,2.200000X4.000000*%
%ADD54R,1.200000X1.200000*%
G04 APERTURE END LIST*
D10*
X31750000Y-71810000D03*
X31750000Y-67310000D03*
D11*
X34240000Y-73060000D03*
X34240000Y-66050000D03*
D10*
X64770000Y-82550000D03*
X60270000Y-82550000D03*
D11*
X66020000Y-80060000D03*
X59010000Y-80060000D03*
D10*
X53340000Y-82550000D03*
X48840000Y-82550000D03*
D11*
X54590000Y-80060000D03*
X47580000Y-80060000D03*
D12*
X108390000Y-77470000D03*
D13*
X105790000Y-77470000D03*
X110490000Y-77470000D03*
X103690000Y-77470000D03*
X110490000Y-74670000D03*
X103690000Y-74670000D03*
D14*
X100240000Y-80320000D03*
D15*
X107090000Y-81120000D03*
D14*
X113940000Y-80320000D03*
D16*
X47010000Y-38100000D03*
X46160000Y-38100000D03*
X45310000Y-38100000D03*
X44460000Y-38100000D03*
X43610000Y-38100000D03*
X42760000Y-38100000D03*
X41910000Y-38100000D03*
X41060000Y-38100000D03*
X41060000Y-36750000D03*
X41910000Y-36750000D03*
X42760000Y-36750000D03*
X43610000Y-36750000D03*
X44460000Y-36750000D03*
X45310000Y-36750000D03*
X46160000Y-36750000D03*
X47010000Y-36750000D03*
D17*
X48355000Y-37600000D03*
D18*
X48350000Y-33295000D03*
D17*
X39715000Y-37600000D03*
D18*
X39715000Y-33300000D03*
D19*
X38100000Y-66040000D03*
X38100000Y-67865000D03*
D20*
X168910000Y-80010000D03*
D21*
X92790000Y-43180000D03*
X94615000Y-43180000D03*
D22*
X57150000Y-52625000D03*
X57150000Y-50800000D03*
X136906000Y-79295000D03*
X136906000Y-77470000D03*
D20*
X34290000Y-36830000D03*
D19*
X129921000Y-48260000D03*
X129921000Y-50085000D03*
D23*
X48768000Y-43180000D03*
X47928000Y-43180000D03*
D24*
X149860000Y-60831000D03*
X149860000Y-57531000D03*
D25*
X139066000Y-82550000D03*
X142366000Y-82550000D03*
D26*
X160401000Y-68580000D03*
X157201000Y-68580000D03*
X155001000Y-68580000D03*
X152801000Y-68580000D03*
X152801000Y-72980000D03*
X155001000Y-72980000D03*
X157201000Y-72980000D03*
X160401000Y-72980000D03*
D19*
X129921000Y-59690000D03*
X129921000Y-61515000D03*
D27*
X67450000Y-38608000D03*
X67450000Y-39878000D03*
X67450000Y-41148000D03*
X67450000Y-42418000D03*
X67450000Y-43688000D03*
X67450000Y-44958000D03*
X67450000Y-46228000D03*
X67450000Y-47498000D03*
X67450000Y-48768000D03*
X67450000Y-50038000D03*
X67450000Y-51308000D03*
X67450000Y-52578000D03*
X67450000Y-53848000D03*
X67450000Y-55118000D03*
D28*
X70490000Y-56368000D03*
X71760000Y-56368000D03*
X73030000Y-56368000D03*
X74300000Y-56368000D03*
X75570000Y-56368000D03*
X76840000Y-56368000D03*
X78110000Y-56368000D03*
X79380000Y-56368000D03*
X80650000Y-56368000D03*
X81920000Y-56368000D03*
D27*
X84950000Y-55118000D03*
X84950000Y-53848000D03*
X84950000Y-52578000D03*
X84950000Y-51308000D03*
X84950000Y-50038000D03*
X84950000Y-48768000D03*
X84950000Y-47498000D03*
X84950000Y-46228000D03*
X84950000Y-44958000D03*
X84950000Y-43688000D03*
X84950000Y-42418000D03*
X84950000Y-41148000D03*
X84950000Y-39878000D03*
X84950000Y-38608000D03*
D29*
X73995000Y-45185500D03*
X73995000Y-46710500D03*
X74757500Y-44423000D03*
X74757500Y-45948000D03*
X74757500Y-47473000D03*
X75520000Y-45185500D03*
D30*
X75520000Y-45948000D03*
D29*
X75520000Y-46710500D03*
X76282500Y-44423000D03*
X76282500Y-45948000D03*
X76282500Y-47473000D03*
X77045000Y-45185500D03*
X77045000Y-46710500D03*
D22*
X80010000Y-70762500D03*
X80010000Y-68937500D03*
X152400000Y-59356000D03*
X152400000Y-57531000D03*
D31*
X132461000Y-59740000D03*
X132461000Y-61465000D03*
D12*
X80450000Y-77470000D03*
D13*
X77850000Y-77470000D03*
X82550000Y-77470000D03*
X75750000Y-77470000D03*
X82550000Y-74670000D03*
X75750000Y-74670000D03*
D14*
X72300000Y-80320000D03*
D15*
X79150000Y-81120000D03*
D14*
X86000000Y-80320000D03*
D32*
X160401000Y-80345000D03*
X160401000Y-77470000D03*
D21*
X92790000Y-46736000D03*
X94615000Y-46736000D03*
D24*
X150241000Y-80770000D03*
X150241000Y-77470000D03*
D22*
X152781000Y-79295000D03*
X152781000Y-77470000D03*
D32*
X144526000Y-80345000D03*
X144526000Y-77470000D03*
D24*
X134366000Y-80770000D03*
X134366000Y-77470000D03*
D33*
X121920000Y-78740000D03*
D34*
X124460000Y-78740000D03*
D33*
X121920000Y-81280000D03*
D34*
X124460000Y-81280000D03*
D19*
X129921000Y-72390000D03*
X129921000Y-74215000D03*
D35*
X127511000Y-52705000D03*
X127511000Y-53975000D03*
X127511000Y-55245000D03*
X127511000Y-56515000D03*
X132461000Y-56515000D03*
X132461000Y-55245000D03*
X132461000Y-53975000D03*
X132461000Y-52705000D03*
D36*
X94615000Y-39370000D03*
X92790000Y-39370000D03*
D31*
X40640000Y-49530000D03*
X40640000Y-51255000D03*
D22*
X72390000Y-70762500D03*
X72390000Y-68937500D03*
D37*
X101408000Y-63881000D03*
X101408000Y-66756000D03*
D32*
X39370000Y-46055000D03*
X39370000Y-43180000D03*
D33*
X128270000Y-78740000D03*
D34*
X130810000Y-78740000D03*
D33*
X128270000Y-81280000D03*
D34*
X130810000Y-81280000D03*
D22*
X59690000Y-52625000D03*
X59690000Y-50800000D03*
D38*
X52230000Y-76200000D03*
X53955000Y-76200000D03*
D39*
X36590000Y-50190000D03*
X34290000Y-50190000D03*
D40*
X34290000Y-56490000D03*
D39*
X31990000Y-50190000D03*
D32*
X58420000Y-42077500D03*
X58420000Y-39202500D03*
D21*
X48320000Y-76200000D03*
X50145000Y-76200000D03*
D22*
X119761000Y-57197000D03*
X119761000Y-55372000D03*
D35*
X106110000Y-58039000D03*
X106110000Y-59309000D03*
X106110000Y-60579000D03*
X106110000Y-61849000D03*
X106110000Y-63119000D03*
X106110000Y-64389000D03*
X106110000Y-65659000D03*
X106110000Y-66929000D03*
X111060000Y-66929000D03*
X111060000Y-65659000D03*
X111060000Y-64389000D03*
X111060000Y-63119000D03*
X111060000Y-61849000D03*
X111060000Y-60579000D03*
X111060000Y-59309000D03*
X111060000Y-58039000D03*
D20*
X34290000Y-80010000D03*
X92710000Y-80010000D03*
D32*
X31750000Y-46055000D03*
X31750000Y-43180000D03*
D37*
X98360000Y-63881000D03*
X98360000Y-66756000D03*
D41*
X155097000Y-57597000D03*
X155097000Y-59497000D03*
X156972000Y-58547000D03*
D38*
X63600000Y-76200000D03*
X65325000Y-76200000D03*
D26*
X144526000Y-68580000D03*
X141326000Y-68580000D03*
X139126000Y-68580000D03*
X136926000Y-68580000D03*
X136926000Y-72980000D03*
X139126000Y-72980000D03*
X141326000Y-72980000D03*
X144526000Y-72980000D03*
D32*
X40640000Y-62565000D03*
X40640000Y-59690000D03*
D42*
X60940000Y-73020000D03*
X60940000Y-71120000D03*
X59065000Y-72070000D03*
D37*
X115570000Y-58039000D03*
X115570000Y-60914000D03*
D43*
X33955000Y-60960000D03*
X36830000Y-60960000D03*
D44*
X127508000Y-49985000D03*
X127508000Y-48260000D03*
D21*
X92790000Y-52070000D03*
X94615000Y-52070000D03*
D33*
X40658750Y-81307500D03*
D34*
X43198750Y-81307500D03*
D45*
X166670000Y-70460000D03*
X166670000Y-45460000D03*
D12*
X166370000Y-63500000D03*
D13*
X166370000Y-60730000D03*
X166370000Y-57960000D03*
X166370000Y-55190000D03*
X166370000Y-52420000D03*
X169210000Y-62115000D03*
X169210000Y-59345000D03*
X169210000Y-56575000D03*
X169210000Y-53805000D03*
D46*
X137000000Y-59690000D03*
X142400000Y-59690000D03*
D21*
X92790000Y-48514000D03*
X94615000Y-48514000D03*
D46*
X137000000Y-51435000D03*
X142400000Y-51435000D03*
D37*
X98360000Y-58293000D03*
X98360000Y-61168000D03*
D20*
X168910000Y-36830000D03*
D47*
X46595000Y-56135000D03*
X46595000Y-56635000D03*
X46595000Y-57135000D03*
X46595000Y-57635000D03*
X46595000Y-58135000D03*
X46595000Y-58635000D03*
X46595000Y-59135000D03*
D48*
X47545000Y-60085000D03*
X48045000Y-60085000D03*
X48545000Y-60085000D03*
X49045000Y-60085000D03*
X49545000Y-60085000D03*
X50045000Y-60085000D03*
X50545000Y-60085000D03*
D47*
X51495000Y-59135000D03*
X51495000Y-58635000D03*
X51495000Y-58135000D03*
X51495000Y-57635000D03*
X51495000Y-57135000D03*
X51495000Y-56635000D03*
X51495000Y-56135000D03*
D48*
X50545000Y-55185000D03*
X50045000Y-55185000D03*
X49545000Y-55185000D03*
X49045000Y-55185000D03*
X48545000Y-55185000D03*
X48045000Y-55185000D03*
X47545000Y-55185000D03*
D49*
X49045000Y-57635000D03*
D45*
X132385000Y-42470000D03*
X107385000Y-42470000D03*
D12*
X115570000Y-43890000D03*
D13*
X117860000Y-43890000D03*
X120150000Y-43890000D03*
X122440000Y-43890000D03*
X124730000Y-43890000D03*
X114425000Y-41910000D03*
X116715000Y-41910000D03*
X119005000Y-41910000D03*
X121295000Y-41910000D03*
X123585000Y-41910000D03*
X115570000Y-39930000D03*
X117860000Y-39930000D03*
X120150000Y-39930000D03*
X122440000Y-39930000D03*
X124730000Y-39930000D03*
D36*
X119761000Y-53086000D03*
X117936000Y-53086000D03*
D19*
X127381000Y-72390000D03*
X127381000Y-74215000D03*
X123571000Y-72390000D03*
X123571000Y-74215000D03*
D22*
X53955000Y-72945000D03*
X53955000Y-71120000D03*
D32*
X159756000Y-60197500D03*
X159756000Y-57322500D03*
D22*
X82550000Y-70762500D03*
X82550000Y-68937500D03*
D44*
X121920000Y-57097000D03*
X121920000Y-55372000D03*
D22*
X69850000Y-70762500D03*
X69850000Y-68937500D03*
D26*
X159756000Y-48600000D03*
X156556000Y-48600000D03*
X154356000Y-48600000D03*
X152156000Y-48600000D03*
X152156000Y-53000000D03*
X154356000Y-53000000D03*
X156556000Y-53000000D03*
X159756000Y-53000000D03*
D32*
X101408000Y-61168000D03*
X101408000Y-58293000D03*
D25*
X154941000Y-82550000D03*
X158241000Y-82550000D03*
D50*
X121877000Y-53086000D03*
X123952000Y-53086000D03*
D22*
X85090000Y-70762500D03*
X85090000Y-68937500D03*
D23*
X48768000Y-41910000D03*
X47928000Y-41910000D03*
D32*
X62230000Y-42077500D03*
X62230000Y-39202500D03*
D51*
X153670000Y-33020000D03*
D52*
X158870000Y-41020000D03*
X156170000Y-39820000D03*
D53*
X149070000Y-36920000D03*
D51*
X149570000Y-44220000D03*
D42*
X50145000Y-73020000D03*
X50145000Y-71120000D03*
X48270000Y-72070000D03*
D44*
X127381000Y-61465000D03*
X127381000Y-59740000D03*
D32*
X35560000Y-46055000D03*
X35560000Y-43180000D03*
D31*
X38100000Y-71120000D03*
X38100000Y-72845000D03*
D41*
X155618500Y-77495000D03*
X155618500Y-79395000D03*
X157493500Y-78445000D03*
D22*
X64750000Y-72945000D03*
X64750000Y-71120000D03*
D21*
X92790000Y-50292000D03*
X94615000Y-50292000D03*
D22*
X89535000Y-57070000D03*
X89535000Y-55245000D03*
D19*
X121031000Y-72390000D03*
X121031000Y-74215000D03*
D22*
X87630000Y-70762500D03*
X87630000Y-68937500D03*
X74930000Y-70762500D03*
X74930000Y-68937500D03*
D21*
X45545000Y-64075000D03*
X47370000Y-64075000D03*
D36*
X94615000Y-41275000D03*
X92790000Y-41275000D03*
D54*
X43180000Y-45980000D03*
X43180000Y-43180000D03*
D21*
X92790000Y-44958000D03*
X94615000Y-44958000D03*
D36*
X43203500Y-76200000D03*
X41378500Y-76200000D03*
D22*
X123952000Y-57197000D03*
X123952000Y-55372000D03*
D32*
X57150000Y-48595000D03*
X57150000Y-45720000D03*
D20*
X140970000Y-36830000D03*
D21*
X59690000Y-76200000D03*
X61515000Y-76200000D03*
D25*
X154296000Y-62402500D03*
X157596000Y-62402500D03*
D22*
X77470000Y-70762500D03*
X77470000Y-68937500D03*
D41*
X139446000Y-77470000D03*
X139446000Y-79370000D03*
X141321000Y-78420000D03*
M02*
