G04 #@! TF.GenerationSoftware,KiCad,Pcbnew,9.0.0-rc3*
G04 #@! TF.CreationDate,2025-02-24T22:30:07+01:00*
G04 #@! TF.ProjectId,nTerm2-s,6e546572-6d32-42d7-932e-6b696361645f,0.05*
G04 #@! TF.SameCoordinates,Original*
G04 #@! TF.FileFunction,Soldermask,Top*
G04 #@! TF.FilePolarity,Negative*
%FSLAX46Y46*%
G04 Gerber Fmt 4.6, Leading zero omitted, Abs format (unit mm)*
G04 Created by KiCad (PCBNEW 9.0.0-rc3) date 2025-02-24 22:30:07*
%MOMM*%
%LPD*%
G01*
G04 APERTURE LIST*
G04 Aperture macros list*
%AMRoundRect*
0 Rectangle with rounded corners*
0 $1 Rounding radius*
0 $2 $3 $4 $5 $6 $7 $8 $9 X,Y pos of 4 corners*
0 Add a 4 corners polygon primitive as box body*
4,1,4,$2,$3,$4,$5,$6,$7,$8,$9,$2,$3,0*
0 Add four circle primitives for the rounded corners*
1,1,$1+$1,$2,$3*
1,1,$1+$1,$4,$5*
1,1,$1+$1,$6,$7*
1,1,$1+$1,$8,$9*
0 Add four rect primitives between the rounded corners*
20,1,$1+$1,$2,$3,$4,$5,0*
20,1,$1+$1,$4,$5,$6,$7,0*
20,1,$1+$1,$6,$7,$8,$9,0*
20,1,$1+$1,$8,$9,$2,$3,0*%
G04 Aperture macros list end*
%ADD10R,1.500000X0.900000*%
%ADD11R,0.900000X1.500000*%
%ADD12C,0.600000*%
%ADD13R,4.200000X4.200000*%
%ADD14RoundRect,0.250000X1.000000X0.650000X-1.000000X0.650000X-1.000000X-0.650000X1.000000X-0.650000X0*%
%ADD15RoundRect,0.237500X-0.237500X0.250000X-0.237500X-0.250000X0.237500X-0.250000X0.237500X0.250000X0*%
%ADD16C,3.200000*%
%ADD17RoundRect,0.237500X-0.250000X-0.237500X0.250000X-0.237500X0.250000X0.237500X-0.250000X0.237500X0*%
%ADD18RoundRect,0.225000X-0.225000X-0.375000X0.225000X-0.375000X0.225000X0.375000X-0.225000X0.375000X0*%
%ADD19R,0.700000X2.000000*%
%ADD20C,1.750000*%
%ADD21C,2.100000*%
%ADD22RoundRect,0.237500X0.237500X-0.250000X0.237500X0.250000X-0.237500X0.250000X-0.237500X-0.250000X0*%
%ADD23RoundRect,0.237500X-0.237500X0.300000X-0.237500X-0.300000X0.237500X-0.300000X0.237500X0.300000X0*%
%ADD24R,1.600000X1.600000*%
%ADD25C,1.600000*%
%ADD26O,2.000000X3.500000*%
%ADD27O,4.000000X2.000000*%
%ADD28RoundRect,0.250000X0.550000X-1.500000X0.550000X1.500000X-0.550000X1.500000X-0.550000X-1.500000X0*%
%ADD29R,1.800000X1.800000*%
%ADD30C,1.800000*%
%ADD31RoundRect,0.150000X-0.825000X-0.150000X0.825000X-0.150000X0.825000X0.150000X-0.825000X0.150000X0*%
%ADD32RoundRect,0.237500X0.250000X0.237500X-0.250000X0.237500X-0.250000X-0.237500X0.250000X-0.237500X0*%
%ADD33RoundRect,0.250000X-0.425000X0.537500X-0.425000X-0.537500X0.425000X-0.537500X0.425000X0.537500X0*%
%ADD34RoundRect,0.250000X0.425000X-0.537500X0.425000X0.537500X-0.425000X0.537500X-0.425000X-0.537500X0*%
%ADD35RoundRect,0.237500X-0.300000X-0.237500X0.300000X-0.237500X0.300000X0.237500X-0.300000X0.237500X0*%
%ADD36RoundRect,0.375000X-0.375000X0.625000X-0.375000X-0.625000X0.375000X-0.625000X0.375000X0.625000X0*%
%ADD37RoundRect,0.500000X-1.400000X0.500000X-1.400000X-0.500000X1.400000X-0.500000X1.400000X0.500000X0*%
%ADD38RoundRect,0.250000X0.875000X0.925000X-0.875000X0.925000X-0.875000X-0.925000X0.875000X-0.925000X0*%
%ADD39RoundRect,0.250000X0.925000X-0.875000X0.925000X0.875000X-0.925000X0.875000X-0.925000X-0.875000X0*%
%ADD40RoundRect,0.150000X-0.587500X-0.150000X0.587500X-0.150000X0.587500X0.150000X-0.587500X0.150000X0*%
%ADD41RoundRect,0.150000X-0.150000X0.587500X-0.150000X-0.587500X0.150000X-0.587500X0.150000X0.587500X0*%
%ADD42RoundRect,0.150000X0.587500X0.150000X-0.587500X0.150000X-0.587500X-0.150000X0.587500X-0.150000X0*%
%ADD43C,0.700000*%
%ADD44O,1.300000X3.200000*%
%ADD45O,1.300000X2.500000*%
%ADD46RoundRect,0.250001X0.499999X0.924999X-0.499999X0.924999X-0.499999X-0.924999X0.499999X-0.924999X0*%
%ADD47RoundRect,0.237500X0.237500X-0.300000X0.237500X0.300000X-0.237500X0.300000X-0.237500X-0.300000X0*%
%ADD48C,4.000000*%
%ADD49RoundRect,0.250000X-1.500000X-0.550000X1.500000X-0.550000X1.500000X0.550000X-1.500000X0.550000X0*%
%ADD50RoundRect,0.062500X-0.537500X-0.062500X0.537500X-0.062500X0.537500X0.062500X-0.537500X0.062500X0*%
%ADD51RoundRect,0.062500X-0.062500X-0.537500X0.062500X-0.537500X0.062500X0.537500X-0.062500X0.537500X0*%
%ADD52R,3.350000X3.350000*%
%ADD53RoundRect,0.250000X-0.475000X0.337500X-0.475000X-0.337500X0.475000X-0.337500X0.475000X0.337500X0*%
%ADD54O,2.200000X4.000000*%
%ADD55O,4.000000X2.200000*%
%ADD56R,2.200000X4.000000*%
%ADD57R,1.200000X1.200000*%
%ADD58RoundRect,0.250000X0.537500X0.425000X-0.537500X0.425000X-0.537500X-0.425000X0.537500X-0.425000X0*%
G04 APERTURE END LIST*
D10*
X113616000Y-80096500D03*
X113616000Y-81366500D03*
X113616000Y-82636500D03*
X113616000Y-83906500D03*
X113616000Y-85176500D03*
X113616000Y-86446500D03*
X113616000Y-87716500D03*
X113616000Y-88986500D03*
X113616000Y-90256500D03*
X113616000Y-91526500D03*
X113616000Y-92796500D03*
X113616000Y-94066500D03*
X113616000Y-95336500D03*
X113616000Y-96606500D03*
D11*
X116656000Y-97856500D03*
X117926000Y-97856500D03*
X119196000Y-97856500D03*
X120466000Y-97856500D03*
X121736000Y-97856500D03*
X123006000Y-97856500D03*
X124276000Y-97856500D03*
X125546000Y-97856500D03*
X126816000Y-97856500D03*
X128086000Y-97856500D03*
D10*
X131116000Y-96606500D03*
X131116000Y-95336500D03*
X131116000Y-94066500D03*
X131116000Y-92796500D03*
X131116000Y-91526500D03*
X131116000Y-90256500D03*
X131116000Y-88986500D03*
X131116000Y-87716500D03*
X131116000Y-86446500D03*
X131116000Y-85176500D03*
X131116000Y-83906500D03*
X131116000Y-82636500D03*
X131116000Y-81366500D03*
X131116000Y-80096500D03*
D12*
X120161000Y-86674000D03*
X120161000Y-88199000D03*
X120923500Y-85911500D03*
X120923500Y-87436500D03*
X120923500Y-88961500D03*
X121686000Y-86674000D03*
D13*
X121686000Y-87436500D03*
D12*
X121686000Y-88199000D03*
X122448500Y-85911500D03*
X122448500Y-87436500D03*
X122448500Y-88961500D03*
X123211000Y-86674000D03*
X123211000Y-88199000D03*
D14*
X98610400Y-89760714D03*
X94610400Y-89760714D03*
X98610400Y-85950714D03*
X94610400Y-85950714D03*
D15*
X84266000Y-107528500D03*
X84266000Y-109353500D03*
X191008000Y-98933000D03*
X191008000Y-100758000D03*
D16*
X215076000Y-121498500D03*
D17*
X138956000Y-84668500D03*
X140781000Y-84668500D03*
X104548300Y-88239600D03*
X106373300Y-88239600D03*
X176792500Y-118999000D03*
X178617500Y-118999000D03*
D16*
X80456000Y-78318500D03*
D15*
X174188499Y-89748500D03*
X174188499Y-91573500D03*
D18*
X179992000Y-123571000D03*
X183292000Y-123571000D03*
D19*
X201741000Y-109268500D03*
X198541000Y-109268500D03*
X196341000Y-109268500D03*
X194141000Y-109268500D03*
X194141000Y-115268500D03*
X196341000Y-115268500D03*
X198541000Y-115268500D03*
X201741000Y-115268500D03*
D20*
X99506000Y-124038500D03*
X95006000Y-124038500D03*
D21*
X100756000Y-121548500D03*
X93746000Y-121548500D03*
D15*
X174436000Y-100670500D03*
X174436000Y-102495500D03*
D22*
X126176000Y-112251000D03*
X126176000Y-110426000D03*
D20*
X110936000Y-124038500D03*
X106436000Y-124038500D03*
D21*
X112186000Y-121548500D03*
X105176000Y-121548500D03*
D17*
X193078500Y-100203000D03*
X194903500Y-100203000D03*
D23*
X176976000Y-100720500D03*
X176976000Y-102445500D03*
D24*
X126616000Y-118958500D03*
D25*
X124016000Y-118958500D03*
X128716000Y-118958500D03*
X121916000Y-118958500D03*
X128716000Y-116158500D03*
X121916000Y-116158500D03*
D26*
X118466000Y-121808500D03*
D27*
X125316000Y-122608500D03*
D26*
X132166000Y-121808500D03*
D28*
X206694000Y-123096000D03*
X206694000Y-117696000D03*
D17*
X138956000Y-88224500D03*
X140781000Y-88224500D03*
X195159000Y-118999000D03*
X196984000Y-118999000D03*
D28*
X188279000Y-123096000D03*
X188279000Y-117696000D03*
D29*
X162498000Y-120228500D03*
D30*
X165038000Y-120228500D03*
D29*
X162498000Y-122768500D03*
D30*
X165038000Y-122768500D03*
D15*
X170499000Y-113878500D03*
X170499000Y-115703500D03*
D31*
X171778499Y-94193500D03*
X171778499Y-95463500D03*
X171778499Y-96733500D03*
X171778499Y-98003500D03*
X176728499Y-98003500D03*
X176728499Y-96733500D03*
X176728499Y-95463500D03*
X176728499Y-94193500D03*
D32*
X140781000Y-80858500D03*
X138956000Y-80858500D03*
D23*
X86806000Y-91018500D03*
X86806000Y-92743500D03*
D22*
X118556000Y-112251000D03*
X118556000Y-110426000D03*
D33*
X147574000Y-105369500D03*
X147574000Y-108244500D03*
D34*
X86806000Y-87543500D03*
X86806000Y-84668500D03*
D29*
X168848000Y-120228500D03*
D30*
X171388000Y-120228500D03*
D29*
X168848000Y-122768500D03*
D30*
X171388000Y-122768500D03*
D17*
X104548300Y-90271600D03*
X106373300Y-90271600D03*
D24*
X151217000Y-118958500D03*
D25*
X148617000Y-118958500D03*
X153317000Y-118958500D03*
X146517000Y-118958500D03*
X153317000Y-116158500D03*
X146517000Y-116158500D03*
D26*
X143067000Y-121808500D03*
D27*
X149917000Y-122608500D03*
D26*
X156767000Y-121808500D03*
D35*
X98396000Y-117688500D03*
X100121000Y-117688500D03*
D15*
X193167000Y-117832500D03*
X193167000Y-119657500D03*
D36*
X82502000Y-92567500D03*
X80202000Y-92567500D03*
D37*
X80202000Y-98867500D03*
D36*
X77902000Y-92567500D03*
D38*
X105801000Y-82001500D03*
X100701000Y-82001500D03*
D17*
X94486000Y-117688500D03*
X96311000Y-117688500D03*
D15*
X174498000Y-117832500D03*
X174498000Y-119657500D03*
D17*
X166143000Y-93726000D03*
X167968000Y-93726000D03*
D31*
X152276000Y-99527500D03*
X152276000Y-100797500D03*
X152276000Y-102067500D03*
X152276000Y-103337500D03*
X152276000Y-104607500D03*
X152276000Y-105877500D03*
X152276000Y-107147500D03*
X152276000Y-108417500D03*
X157226000Y-108417500D03*
X157226000Y-107147500D03*
X157226000Y-105877500D03*
X157226000Y-104607500D03*
X157226000Y-103337500D03*
X157226000Y-102067500D03*
X157226000Y-100797500D03*
X157226000Y-99527500D03*
D16*
X80456000Y-121498500D03*
X137606000Y-121498500D03*
D39*
X77916000Y-88656000D03*
X77916000Y-83556000D03*
D33*
X144526000Y-105369500D03*
X144526000Y-108244500D03*
D40*
X197388000Y-100183000D03*
X197388000Y-102083000D03*
X199263000Y-101133000D03*
D35*
X109766000Y-117688500D03*
X111491000Y-117688500D03*
D17*
X91901000Y-104013000D03*
X93726000Y-104013000D03*
D19*
X183250500Y-109268500D03*
X180050500Y-109268500D03*
X177850500Y-109268500D03*
X175650500Y-109268500D03*
X175650500Y-115268500D03*
X177850500Y-115268500D03*
X180050500Y-115268500D03*
X183250500Y-115268500D03*
D34*
X86084500Y-104561500D03*
X86084500Y-101686500D03*
D41*
X196132500Y-121871500D03*
X194232500Y-121871500D03*
X195182500Y-123746500D03*
D42*
X107106000Y-114508500D03*
X107106000Y-112608500D03*
X105231000Y-113558500D03*
D43*
X93176000Y-79588500D03*
X92326000Y-79588500D03*
X91476000Y-79588500D03*
X90626000Y-79588500D03*
X89776000Y-79588500D03*
X88926000Y-79588500D03*
X88076000Y-79588500D03*
X87226000Y-79588500D03*
X87226000Y-78238500D03*
X88076000Y-78238500D03*
X88926000Y-78238500D03*
X89776000Y-78238500D03*
X90626000Y-78238500D03*
X91476000Y-78238500D03*
X92326000Y-78238500D03*
X93176000Y-78238500D03*
D44*
X94521000Y-79088500D03*
D45*
X94516000Y-74783500D03*
D44*
X85881000Y-79088500D03*
D45*
X85881000Y-74788500D03*
D41*
X177766000Y-121871500D03*
X175866000Y-121871500D03*
X176816000Y-123746500D03*
D33*
X161355000Y-100503000D03*
X161355000Y-103378000D03*
D46*
X81700000Y-102956500D03*
X78450000Y-102956500D03*
D20*
X77916000Y-113298500D03*
X77916000Y-108798500D03*
D21*
X80406000Y-114548500D03*
X80406000Y-107538500D03*
D47*
X171775499Y-91473500D03*
X171775499Y-89748500D03*
D17*
X138956000Y-93558500D03*
X140781000Y-93558500D03*
D29*
X86824750Y-122796000D03*
D30*
X89364750Y-122796000D03*
D48*
X212836000Y-111948500D03*
X212836000Y-86948500D03*
D24*
X212536000Y-104988500D03*
D25*
X212536000Y-102218500D03*
X212536000Y-99448500D03*
X212536000Y-96678500D03*
X212536000Y-93908500D03*
X215376000Y-103603500D03*
X215376000Y-100833500D03*
X215376000Y-98063500D03*
X215376000Y-95293500D03*
D49*
X181267499Y-101178500D03*
X186667499Y-101178500D03*
D17*
X138956000Y-90002500D03*
X140781000Y-90002500D03*
D49*
X181267499Y-92923500D03*
X186667499Y-92923500D03*
D33*
X144526000Y-99781500D03*
X144526000Y-102656500D03*
D16*
X215076000Y-78318500D03*
D50*
X92561000Y-97623500D03*
X92561000Y-98123500D03*
X92561000Y-98623500D03*
X92561000Y-99123500D03*
X92561000Y-99623500D03*
X92561000Y-100123500D03*
X92561000Y-100623500D03*
D51*
X93711000Y-101773500D03*
X94211000Y-101773500D03*
X94711000Y-101773500D03*
X95211000Y-101773500D03*
X95711000Y-101773500D03*
X96211000Y-101773500D03*
X96711000Y-101773500D03*
D50*
X97861000Y-100623500D03*
X97861000Y-100123500D03*
X97861000Y-99623500D03*
X97861000Y-99123500D03*
X97861000Y-98623500D03*
X97861000Y-98123500D03*
X97861000Y-97623500D03*
D51*
X96711000Y-96473500D03*
X96211000Y-96473500D03*
X95711000Y-96473500D03*
X95211000Y-96473500D03*
X94711000Y-96473500D03*
X94211000Y-96473500D03*
X93711000Y-96473500D03*
D52*
X95211000Y-99123500D03*
D48*
X178478000Y-78087000D03*
X153478000Y-78087000D03*
D24*
X161663000Y-80137000D03*
D25*
X163953000Y-80137000D03*
X166243000Y-80137000D03*
X168533000Y-80137000D03*
X170823000Y-80137000D03*
X160518000Y-78157000D03*
X162808000Y-78157000D03*
X165098000Y-78157000D03*
X167388000Y-78157000D03*
X169678000Y-78157000D03*
X161663000Y-76177000D03*
X163953000Y-76177000D03*
X166243000Y-76177000D03*
X168533000Y-76177000D03*
X170823000Y-76177000D03*
D32*
X167977500Y-91530685D03*
X166152500Y-91530685D03*
D15*
X167959000Y-113878500D03*
X167959000Y-115703500D03*
X164149000Y-113878500D03*
X164149000Y-115703500D03*
D22*
X100121000Y-114433500D03*
X100121000Y-112608500D03*
D28*
X204662000Y-104046000D03*
X204662000Y-98646000D03*
D22*
X128716000Y-112251000D03*
X128716000Y-110426000D03*
D35*
X166243000Y-95885000D03*
X167968000Y-95885000D03*
D22*
X116016000Y-112251000D03*
X116016000Y-110426000D03*
D19*
X199604750Y-90225500D03*
X196404750Y-90225500D03*
X194204750Y-90225500D03*
X192004750Y-90225500D03*
X192004750Y-96225500D03*
X194204750Y-96225500D03*
X196404750Y-96225500D03*
X199604750Y-96225500D03*
D33*
X147574000Y-99781500D03*
X147574000Y-102656500D03*
D18*
X198358500Y-123571000D03*
X201658500Y-123571000D03*
D53*
X167994500Y-98149500D03*
X167994500Y-100224500D03*
D22*
X131256000Y-112251000D03*
X131256000Y-110426000D03*
D34*
X109285000Y-83566000D03*
X109285000Y-80691000D03*
D54*
X205036000Y-82508500D03*
X202336000Y-81308500D03*
D55*
X199836000Y-74508500D03*
D56*
X195236000Y-78408500D03*
D55*
X195736000Y-85708500D03*
D42*
X96311000Y-114508500D03*
X96311000Y-112608500D03*
X94436000Y-113558500D03*
D47*
X171896000Y-102445500D03*
X171896000Y-100720500D03*
D39*
X82996000Y-88656000D03*
X82996000Y-83556000D03*
D23*
X84266000Y-112608500D03*
X84266000Y-114333500D03*
D40*
X199517000Y-118983500D03*
X199517000Y-120883500D03*
X201392000Y-119933500D03*
D22*
X110916000Y-114433500D03*
X110916000Y-112608500D03*
D17*
X138956000Y-91780500D03*
X140781000Y-91780500D03*
D22*
X135701000Y-98558500D03*
X135701000Y-96733500D03*
D15*
X161609000Y-113878500D03*
X161609000Y-115703500D03*
D17*
X91901000Y-106299000D03*
X93726000Y-106299000D03*
D22*
X133796000Y-112251000D03*
X133796000Y-110426000D03*
X121096000Y-112251000D03*
X121096000Y-110426000D03*
D17*
X91901000Y-108585000D03*
X93726000Y-108585000D03*
D32*
X140781000Y-82763500D03*
X138956000Y-82763500D03*
D57*
X89981000Y-87465500D03*
X89981000Y-84665500D03*
D17*
X138956000Y-86446500D03*
X140781000Y-86446500D03*
D32*
X89369500Y-117688500D03*
X87544500Y-117688500D03*
D15*
X165835500Y-98274500D03*
X165835500Y-100099500D03*
D58*
X106390300Y-85801200D03*
X103515300Y-85801200D03*
D41*
X194052000Y-103075500D03*
X192152000Y-103075500D03*
X193102000Y-104950500D03*
D16*
X187136000Y-78318500D03*
D17*
X105856000Y-117688500D03*
X107681000Y-117688500D03*
D18*
X196278000Y-104775000D03*
X199578000Y-104775000D03*
D22*
X123636000Y-112251000D03*
X123636000Y-110426000D03*
D40*
X181102000Y-118958500D03*
X181102000Y-120858500D03*
X182977000Y-119908500D03*
M02*
