M48
; DRILL file {KiCad 8.0.5} date 2025-02-16T13:40:47+0100
; FORMAT={-:-/ absolute / metric / decimal}
; #@! TF.CreationDate,2025-02-16T13:40:47+01:00
; #@! TF.GenerationSoftware,Kicad,Pcbnew,8.0.5
; #@! TF.FileFunction,Plated,1,2,PTH
FMAT,2
METRIC
; #@! TA.AperFunction,Plated,PTH,ComponentDrill
T1C0.200
; #@! TA.AperFunction,Plated,PTH,ViaDrill
T2C0.300
; #@! TA.AperFunction,Plated,PTH,ComponentDrill
T3C0.400
; #@! TA.AperFunction,Plated,PTH,ComponentDrill
T4C0.700
; #@! TA.AperFunction,Plated,PTH,ComponentDrill
T5C0.800
; #@! TA.AperFunction,Plated,PTH,ComponentDrill
T6C0.900
; #@! TA.AperFunction,Plated,PTH,ComponentDrill
T7C0.990
; #@! TA.AperFunction,Plated,PTH,ComponentDrill
T8C1.000
; #@! TA.AperFunction,Plated,PTH,ComponentDrill
T9C1.300
; #@! TA.AperFunction,Plated,PTH,ComponentDrill
T10C3.200
%
G90
G05
T1
X120.161Y-86.674
X120.161Y-88.199
X120.923Y-85.911
X120.923Y-87.436
X120.923Y-88.962
X121.686Y-86.674
X121.686Y-88.199
X122.448Y-85.911
X122.448Y-87.436
X122.448Y-88.962
X123.211Y-86.674
X123.211Y-88.199
T2
X76.646Y-102.448
X77.916Y-85.938
X82.996Y-85.938
X84.266Y-102.448
X85.536Y-92.288
X86.806Y-82.129
X86.806Y-108.798
X89.346Y-91.018
X89.346Y-103.718
X89.346Y-107.528
X90.616Y-98.638
X90.616Y-99.908
X91.886Y-85.938
X91.886Y-89.748
X94.426Y-94.828
X94.426Y-98.638
X94.426Y-99.908
X95.696Y-94.828
X95.696Y-98.638
X95.696Y-99.908
X98.236Y-103.718
X103.316Y-87.209
X103.316Y-96.099
X103.316Y-97.368
X104.14Y-80.01
X104.586Y-91.018
X104.586Y-115.148
X105.856Y-98.638
X105.856Y-99.908
X107.126Y-92.288
X107.126Y-106.258
X107.126Y-107.528
X114.746Y-103.718
X116.656Y-99.268
X122.366Y-126.578
X124.906Y-103.718
X129.986Y-107.528
X129.986Y-111.338
X131.256Y-106.258
X132.471Y-84.668
X132.526Y-80.84
X132.526Y-83.398
X133.796Y-93.558
X133.796Y-96.099
X133.796Y-98.638
X135.066Y-93.558
X135.066Y-99.908
X136.336Y-107.528
X146.496Y-126.578
X150.306Y-108.798
X154.116Y-107.528
X159.196Y-101.178
X159.196Y-108.796
X159.196Y-110.049
X159.196Y-111.338
X159.196Y-125.308
X159.196Y-126.578
X161.736Y-106.258
X161.736Y-107.528
X161.736Y-108.796
X161.736Y-110.069
X163.006Y-102.448
X170.18Y-101.6
X176.976Y-124.038
X179.516Y-103.718
X182.056Y-106.239
X183.326Y-106.258
X185.866Y-103.718
X190.946Y-98.72
X192.216Y-98.638
X192.216Y-104.989
X194.756Y-124.038
X196.026Y-107.528
X197.296Y-98.638
X197.55Y-116.418
T3
X87.226Y-78.239
X87.226Y-79.588
X88.076Y-78.239
X88.076Y-79.588
X88.926Y-78.239
X88.926Y-79.588
X89.776Y-78.239
X89.776Y-79.588
X90.626Y-78.239
X90.626Y-79.588
X91.476Y-78.239
X91.476Y-79.588
X92.326Y-78.239
X92.326Y-79.588
X93.176Y-78.239
X93.176Y-79.588
T5
X121.916Y-116.158
X121.916Y-118.959
X124.016Y-118.959
X126.616Y-118.959
X128.716Y-116.158
X128.716Y-118.959
X146.517Y-116.158
X146.517Y-118.959
X148.617Y-118.959
X151.217Y-118.959
X153.317Y-116.158
X153.317Y-118.959
T6
X86.825Y-122.796
X89.365Y-122.796
X162.498Y-120.228
X162.498Y-122.768
X165.038Y-120.228
X165.038Y-122.768
X168.848Y-120.228
X168.848Y-122.768
X171.388Y-120.228
X171.388Y-122.768
T7
X77.916Y-108.798
X77.916Y-113.298
X95.006Y-124.038
X99.506Y-124.038
X106.436Y-124.038
X110.936Y-124.038
T8
X160.591Y-83.398
X161.736Y-81.418
X161.736Y-85.379
X162.881Y-83.398
X164.026Y-81.418
X164.026Y-85.379
X165.171Y-83.398
X166.316Y-81.418
X166.316Y-85.379
X167.461Y-83.398
X168.606Y-81.418
X168.606Y-85.379
X169.751Y-83.398
X170.896Y-81.418
X170.896Y-85.379
X212.536Y-93.908
X212.536Y-96.678
X212.536Y-99.448
X212.536Y-102.218
X212.536Y-104.989
X215.376Y-95.293
X215.376Y-98.063
X215.376Y-100.834
X215.376Y-103.603
T9
X80.406Y-107.538
X80.406Y-114.548
X93.746Y-121.548
X100.756Y-121.548
X105.176Y-121.548
X112.186Y-121.548
X195.236Y-78.408
X195.736Y-85.709
X199.836Y-74.508
X202.336Y-81.308
X205.036Y-82.508
T10
X153.551Y-83.959
X178.551Y-83.959
X212.836Y-86.948
X212.836Y-111.948
T4
X85.881Y-75.388G85X85.881Y-74.489
G05
X85.881Y-79.739G85X85.881Y-78.438
G05
X94.516Y-75.383G85X94.516Y-74.483
G05
X94.521Y-79.739G85X94.521Y-78.438
G05
T8
X118.466Y-121.058G85X118.466Y-122.558
G05
X124.316Y-122.608G85X126.316Y-122.608
G05
X132.166Y-121.058G85X132.166Y-122.558
G05
X143.067Y-121.058G85X143.067Y-122.558
G05
X148.917Y-122.608G85X150.917Y-122.608
G05
X156.767Y-121.058G85X156.767Y-122.558
G05
M30
