G04 #@! TF.GenerationSoftware,KiCad,Pcbnew,9.0.0-rc3*
G04 #@! TF.CreationDate,2025-02-24T22:30:07+01:00*
G04 #@! TF.ProjectId,nTerm2-s,6e546572-6d32-42d7-932e-6b696361645f,0.05*
G04 #@! TF.SameCoordinates,Original*
G04 #@! TF.FileFunction,Copper,L1,Top*
G04 #@! TF.FilePolarity,Positive*
%FSLAX46Y46*%
G04 Gerber Fmt 4.6, Leading zero omitted, Abs format (unit mm)*
G04 Created by KiCad (PCBNEW 9.0.0-rc3) date 2025-02-24 22:30:07*
%MOMM*%
%LPD*%
G01*
G04 APERTURE LIST*
G04 Aperture macros list*
%AMRoundRect*
0 Rectangle with rounded corners*
0 $1 Rounding radius*
0 $2 $3 $4 $5 $6 $7 $8 $9 X,Y pos of 4 corners*
0 Add a 4 corners polygon primitive as box body*
4,1,4,$2,$3,$4,$5,$6,$7,$8,$9,$2,$3,0*
0 Add four circle primitives for the rounded corners*
1,1,$1+$1,$2,$3*
1,1,$1+$1,$4,$5*
1,1,$1+$1,$6,$7*
1,1,$1+$1,$8,$9*
0 Add four rect primitives between the rounded corners*
20,1,$1+$1,$2,$3,$4,$5,0*
20,1,$1+$1,$4,$5,$6,$7,0*
20,1,$1+$1,$6,$7,$8,$9,0*
20,1,$1+$1,$8,$9,$2,$3,0*%
G04 Aperture macros list end*
G04 #@! TA.AperFunction,SMDPad,CuDef*
%ADD10R,1.500000X0.900000*%
G04 #@! TD*
G04 #@! TA.AperFunction,SMDPad,CuDef*
%ADD11R,0.900000X1.500000*%
G04 #@! TD*
G04 #@! TA.AperFunction,SMDPad,CuDef*
%ADD12R,1.050000X1.050000*%
G04 #@! TD*
G04 #@! TA.AperFunction,HeatsinkPad*
%ADD13C,0.600000*%
G04 #@! TD*
G04 #@! TA.AperFunction,HeatsinkPad*
%ADD14R,4.200000X4.200000*%
G04 #@! TD*
G04 #@! TA.AperFunction,SMDPad,CuDef*
%ADD15RoundRect,0.250000X1.000000X0.650000X-1.000000X0.650000X-1.000000X-0.650000X1.000000X-0.650000X0*%
G04 #@! TD*
G04 #@! TA.AperFunction,SMDPad,CuDef*
%ADD16RoundRect,0.237500X-0.237500X0.250000X-0.237500X-0.250000X0.237500X-0.250000X0.237500X0.250000X0*%
G04 #@! TD*
G04 #@! TA.AperFunction,SMDPad,CuDef*
%ADD17RoundRect,0.237500X-0.250000X-0.237500X0.250000X-0.237500X0.250000X0.237500X-0.250000X0.237500X0*%
G04 #@! TD*
G04 #@! TA.AperFunction,SMDPad,CuDef*
%ADD18RoundRect,0.225000X-0.225000X-0.375000X0.225000X-0.375000X0.225000X0.375000X-0.225000X0.375000X0*%
G04 #@! TD*
G04 #@! TA.AperFunction,SMDPad,CuDef*
%ADD19R,0.700000X2.000000*%
G04 #@! TD*
G04 #@! TA.AperFunction,ComponentPad*
%ADD20C,1.750000*%
G04 #@! TD*
G04 #@! TA.AperFunction,ComponentPad*
%ADD21C,2.100000*%
G04 #@! TD*
G04 #@! TA.AperFunction,SMDPad,CuDef*
%ADD22RoundRect,0.237500X0.237500X-0.250000X0.237500X0.250000X-0.237500X0.250000X-0.237500X-0.250000X0*%
G04 #@! TD*
G04 #@! TA.AperFunction,SMDPad,CuDef*
%ADD23RoundRect,0.237500X-0.237500X0.300000X-0.237500X-0.300000X0.237500X-0.300000X0.237500X0.300000X0*%
G04 #@! TD*
G04 #@! TA.AperFunction,ComponentPad*
%ADD24R,1.600000X1.600000*%
G04 #@! TD*
G04 #@! TA.AperFunction,ComponentPad*
%ADD25C,1.600000*%
G04 #@! TD*
G04 #@! TA.AperFunction,ComponentPad*
%ADD26O,2.000000X3.500000*%
G04 #@! TD*
G04 #@! TA.AperFunction,ComponentPad*
%ADD27O,4.000000X2.000000*%
G04 #@! TD*
G04 #@! TA.AperFunction,SMDPad,CuDef*
%ADD28RoundRect,0.250000X0.550000X-1.500000X0.550000X1.500000X-0.550000X1.500000X-0.550000X-1.500000X0*%
G04 #@! TD*
G04 #@! TA.AperFunction,ComponentPad*
%ADD29R,1.800000X1.800000*%
G04 #@! TD*
G04 #@! TA.AperFunction,ComponentPad*
%ADD30C,1.800000*%
G04 #@! TD*
G04 #@! TA.AperFunction,SMDPad,CuDef*
%ADD31RoundRect,0.150000X-0.825000X-0.150000X0.825000X-0.150000X0.825000X0.150000X-0.825000X0.150000X0*%
G04 #@! TD*
G04 #@! TA.AperFunction,SMDPad,CuDef*
%ADD32RoundRect,0.237500X0.250000X0.237500X-0.250000X0.237500X-0.250000X-0.237500X0.250000X-0.237500X0*%
G04 #@! TD*
G04 #@! TA.AperFunction,SMDPad,CuDef*
%ADD33RoundRect,0.250000X-0.425000X0.537500X-0.425000X-0.537500X0.425000X-0.537500X0.425000X0.537500X0*%
G04 #@! TD*
G04 #@! TA.AperFunction,SMDPad,CuDef*
%ADD34RoundRect,0.250000X0.425000X-0.537500X0.425000X0.537500X-0.425000X0.537500X-0.425000X-0.537500X0*%
G04 #@! TD*
G04 #@! TA.AperFunction,SMDPad,CuDef*
%ADD35RoundRect,0.237500X-0.300000X-0.237500X0.300000X-0.237500X0.300000X0.237500X-0.300000X0.237500X0*%
G04 #@! TD*
G04 #@! TA.AperFunction,SMDPad,CuDef*
%ADD36RoundRect,0.375000X-0.375000X0.625000X-0.375000X-0.625000X0.375000X-0.625000X0.375000X0.625000X0*%
G04 #@! TD*
G04 #@! TA.AperFunction,SMDPad,CuDef*
%ADD37RoundRect,0.500000X-1.400000X0.500000X-1.400000X-0.500000X1.400000X-0.500000X1.400000X0.500000X0*%
G04 #@! TD*
G04 #@! TA.AperFunction,SMDPad,CuDef*
%ADD38RoundRect,0.250000X0.875000X0.925000X-0.875000X0.925000X-0.875000X-0.925000X0.875000X-0.925000X0*%
G04 #@! TD*
G04 #@! TA.AperFunction,SMDPad,CuDef*
%ADD39RoundRect,0.250000X0.925000X-0.875000X0.925000X0.875000X-0.925000X0.875000X-0.925000X-0.875000X0*%
G04 #@! TD*
G04 #@! TA.AperFunction,SMDPad,CuDef*
%ADD40RoundRect,0.150000X-0.587500X-0.150000X0.587500X-0.150000X0.587500X0.150000X-0.587500X0.150000X0*%
G04 #@! TD*
G04 #@! TA.AperFunction,SMDPad,CuDef*
%ADD41RoundRect,0.150000X-0.150000X0.587500X-0.150000X-0.587500X0.150000X-0.587500X0.150000X0.587500X0*%
G04 #@! TD*
G04 #@! TA.AperFunction,SMDPad,CuDef*
%ADD42RoundRect,0.150000X0.587500X0.150000X-0.587500X0.150000X-0.587500X-0.150000X0.587500X-0.150000X0*%
G04 #@! TD*
G04 #@! TA.AperFunction,ComponentPad*
%ADD43C,0.700000*%
G04 #@! TD*
G04 #@! TA.AperFunction,ComponentPad*
%ADD44O,1.300000X3.200000*%
G04 #@! TD*
G04 #@! TA.AperFunction,ComponentPad*
%ADD45O,1.300000X2.500000*%
G04 #@! TD*
G04 #@! TA.AperFunction,SMDPad,CuDef*
%ADD46RoundRect,0.250001X0.499999X0.924999X-0.499999X0.924999X-0.499999X-0.924999X0.499999X-0.924999X0*%
G04 #@! TD*
G04 #@! TA.AperFunction,SMDPad,CuDef*
%ADD47RoundRect,0.237500X0.237500X-0.300000X0.237500X0.300000X-0.237500X0.300000X-0.237500X-0.300000X0*%
G04 #@! TD*
G04 #@! TA.AperFunction,ComponentPad*
%ADD48C,4.000000*%
G04 #@! TD*
G04 #@! TA.AperFunction,SMDPad,CuDef*
%ADD49RoundRect,0.250000X-1.500000X-0.550000X1.500000X-0.550000X1.500000X0.550000X-1.500000X0.550000X0*%
G04 #@! TD*
G04 #@! TA.AperFunction,SMDPad,CuDef*
%ADD50RoundRect,0.062500X-0.537500X-0.062500X0.537500X-0.062500X0.537500X0.062500X-0.537500X0.062500X0*%
G04 #@! TD*
G04 #@! TA.AperFunction,SMDPad,CuDef*
%ADD51RoundRect,0.062500X-0.062500X-0.537500X0.062500X-0.537500X0.062500X0.537500X-0.062500X0.537500X0*%
G04 #@! TD*
G04 #@! TA.AperFunction,HeatsinkPad*
%ADD52R,3.350000X3.350000*%
G04 #@! TD*
G04 #@! TA.AperFunction,SMDPad,CuDef*
%ADD53RoundRect,0.250000X-0.475000X0.337500X-0.475000X-0.337500X0.475000X-0.337500X0.475000X0.337500X0*%
G04 #@! TD*
G04 #@! TA.AperFunction,ComponentPad*
%ADD54O,2.200000X4.000000*%
G04 #@! TD*
G04 #@! TA.AperFunction,ComponentPad*
%ADD55O,4.000000X2.200000*%
G04 #@! TD*
G04 #@! TA.AperFunction,ComponentPad*
%ADD56R,2.200000X4.000000*%
G04 #@! TD*
G04 #@! TA.AperFunction,SMDPad,CuDef*
%ADD57R,1.200000X1.200000*%
G04 #@! TD*
G04 #@! TA.AperFunction,SMDPad,CuDef*
%ADD58RoundRect,0.250000X0.537500X0.425000X-0.537500X0.425000X-0.537500X-0.425000X0.537500X-0.425000X0*%
G04 #@! TD*
G04 #@! TA.AperFunction,ViaPad*
%ADD59C,0.600000*%
G04 #@! TD*
G04 #@! TA.AperFunction,ViaPad*
%ADD60C,0.500000*%
G04 #@! TD*
G04 #@! TA.AperFunction,Conductor*
%ADD61C,0.400000*%
G04 #@! TD*
G04 #@! TA.AperFunction,Conductor*
%ADD62C,0.200000*%
G04 #@! TD*
G04 APERTURE END LIST*
D10*
X113616000Y-80096500D03*
X113616000Y-81366500D03*
X113616000Y-82636500D03*
X113616000Y-83906500D03*
X113616000Y-85176500D03*
X113616000Y-86446500D03*
X113616000Y-87716500D03*
X113616000Y-88986500D03*
X113616000Y-90256500D03*
X113616000Y-91526500D03*
X113616000Y-92796500D03*
X113616000Y-94066500D03*
X113616000Y-95336500D03*
X113616000Y-96606500D03*
D11*
X116656000Y-97856500D03*
X117926000Y-97856500D03*
X119196000Y-97856500D03*
X120466000Y-97856500D03*
X121736000Y-97856500D03*
X123006000Y-97856500D03*
X124276000Y-97856500D03*
X125546000Y-97856500D03*
X126816000Y-97856500D03*
X128086000Y-97856500D03*
D10*
X131116000Y-96606500D03*
X131116000Y-95336500D03*
X131116000Y-94066500D03*
X131116000Y-92796500D03*
X131116000Y-91526500D03*
X131116000Y-90256500D03*
X131116000Y-88986500D03*
X131116000Y-87716500D03*
X131116000Y-86446500D03*
X131116000Y-85176500D03*
X131116000Y-83906500D03*
X131116000Y-82636500D03*
X131116000Y-81366500D03*
X131116000Y-80096500D03*
D12*
X120161000Y-85911500D03*
D13*
X120161000Y-86674000D03*
D12*
X120161000Y-87436500D03*
D13*
X120161000Y-88199000D03*
D12*
X120161000Y-88961500D03*
D13*
X120923500Y-85911500D03*
X120923500Y-87436500D03*
X120923500Y-88961500D03*
D12*
X121686000Y-85911500D03*
D13*
X121686000Y-86674000D03*
D12*
X121686000Y-87436500D03*
D14*
X121686000Y-87436500D03*
D13*
X121686000Y-88199000D03*
D12*
X121686000Y-88961500D03*
D13*
X122448500Y-85911500D03*
X122448500Y-87436500D03*
X122448500Y-88961500D03*
D12*
X123211000Y-85911500D03*
D13*
X123211000Y-86674000D03*
D12*
X123211000Y-87436500D03*
D13*
X123211000Y-88199000D03*
D12*
X123211000Y-88961500D03*
D15*
X98610400Y-89760714D03*
X94610400Y-89760714D03*
X98610400Y-85950714D03*
X94610400Y-85950714D03*
D16*
X84266000Y-107528500D03*
X84266000Y-109353500D03*
X191008000Y-98933000D03*
X191008000Y-100758000D03*
D17*
X138956000Y-84668500D03*
X140781000Y-84668500D03*
X104548300Y-88239600D03*
X106373300Y-88239600D03*
X176792500Y-118999000D03*
X178617500Y-118999000D03*
D16*
X174188499Y-89748500D03*
X174188499Y-91573500D03*
D18*
X179992000Y-123571000D03*
X183292000Y-123571000D03*
D19*
X201741000Y-109268500D03*
X198541000Y-109268500D03*
X196341000Y-109268500D03*
X194141000Y-109268500D03*
X194141000Y-115268500D03*
X196341000Y-115268500D03*
X198541000Y-115268500D03*
X201741000Y-115268500D03*
D20*
X99506000Y-124038500D03*
X95006000Y-124038500D03*
D21*
X100756000Y-121548500D03*
X93746000Y-121548500D03*
D16*
X174436000Y-100670500D03*
X174436000Y-102495500D03*
D22*
X126176000Y-112251000D03*
X126176000Y-110426000D03*
D20*
X110936000Y-124038500D03*
X106436000Y-124038500D03*
D21*
X112186000Y-121548500D03*
X105176000Y-121548500D03*
D17*
X193078500Y-100203000D03*
X194903500Y-100203000D03*
D23*
X176976000Y-100720500D03*
X176976000Y-102445500D03*
D24*
X126616000Y-118958500D03*
D25*
X124016000Y-118958500D03*
X128716000Y-118958500D03*
X121916000Y-118958500D03*
X128716000Y-116158500D03*
X121916000Y-116158500D03*
D26*
X118466000Y-121808500D03*
D27*
X125316000Y-122608500D03*
D26*
X132166000Y-121808500D03*
D28*
X206694000Y-123096000D03*
X206694000Y-117696000D03*
D17*
X138956000Y-88224500D03*
X140781000Y-88224500D03*
X195159000Y-118999000D03*
X196984000Y-118999000D03*
D28*
X188279000Y-123096000D03*
X188279000Y-117696000D03*
D29*
X162498000Y-120228500D03*
D30*
X165038000Y-120228500D03*
D29*
X162498000Y-122768500D03*
D30*
X165038000Y-122768500D03*
D16*
X170499000Y-113878500D03*
X170499000Y-115703500D03*
D31*
X171778499Y-94193500D03*
X171778499Y-95463500D03*
X171778499Y-96733500D03*
X171778499Y-98003500D03*
X176728499Y-98003500D03*
X176728499Y-96733500D03*
X176728499Y-95463500D03*
X176728499Y-94193500D03*
D32*
X140781000Y-80858500D03*
X138956000Y-80858500D03*
D23*
X86806000Y-91018500D03*
X86806000Y-92743500D03*
D22*
X118556000Y-112251000D03*
X118556000Y-110426000D03*
D33*
X147574000Y-105369500D03*
X147574000Y-108244500D03*
D34*
X86806000Y-87543500D03*
X86806000Y-84668500D03*
D29*
X168848000Y-120228500D03*
D30*
X171388000Y-120228500D03*
D29*
X168848000Y-122768500D03*
D30*
X171388000Y-122768500D03*
D17*
X104548300Y-90271600D03*
X106373300Y-90271600D03*
D24*
X151217000Y-118958500D03*
D25*
X148617000Y-118958500D03*
X153317000Y-118958500D03*
X146517000Y-118958500D03*
X153317000Y-116158500D03*
X146517000Y-116158500D03*
D26*
X143067000Y-121808500D03*
D27*
X149917000Y-122608500D03*
D26*
X156767000Y-121808500D03*
D35*
X98396000Y-117688500D03*
X100121000Y-117688500D03*
D16*
X193167000Y-117832500D03*
X193167000Y-119657500D03*
D36*
X82502000Y-92567500D03*
X80202000Y-92567500D03*
D37*
X80202000Y-98867500D03*
D36*
X77902000Y-92567500D03*
D38*
X105801000Y-82001500D03*
X100701000Y-82001500D03*
D17*
X94486000Y-117688500D03*
X96311000Y-117688500D03*
D16*
X174498000Y-117832500D03*
X174498000Y-119657500D03*
D17*
X166143000Y-93726000D03*
X167968000Y-93726000D03*
D31*
X152276000Y-99527500D03*
X152276000Y-100797500D03*
X152276000Y-102067500D03*
X152276000Y-103337500D03*
X152276000Y-104607500D03*
X152276000Y-105877500D03*
X152276000Y-107147500D03*
X152276000Y-108417500D03*
X157226000Y-108417500D03*
X157226000Y-107147500D03*
X157226000Y-105877500D03*
X157226000Y-104607500D03*
X157226000Y-103337500D03*
X157226000Y-102067500D03*
X157226000Y-100797500D03*
X157226000Y-99527500D03*
D39*
X77916000Y-88656000D03*
X77916000Y-83556000D03*
D33*
X144526000Y-105369500D03*
X144526000Y-108244500D03*
D40*
X197388000Y-100183000D03*
X197388000Y-102083000D03*
X199263000Y-101133000D03*
D35*
X109766000Y-117688500D03*
X111491000Y-117688500D03*
D17*
X91901000Y-104013000D03*
X93726000Y-104013000D03*
D19*
X183250500Y-109268500D03*
X180050500Y-109268500D03*
X177850500Y-109268500D03*
X175650500Y-109268500D03*
X175650500Y-115268500D03*
X177850500Y-115268500D03*
X180050500Y-115268500D03*
X183250500Y-115268500D03*
D34*
X86084500Y-104561500D03*
X86084500Y-101686500D03*
D41*
X196132500Y-121871500D03*
X194232500Y-121871500D03*
X195182500Y-123746500D03*
D42*
X107106000Y-114508500D03*
X107106000Y-112608500D03*
X105231000Y-113558500D03*
D43*
X93176000Y-79588500D03*
X92326000Y-79588500D03*
X91476000Y-79588500D03*
X90626000Y-79588500D03*
X89776000Y-79588500D03*
X88926000Y-79588500D03*
X88076000Y-79588500D03*
X87226000Y-79588500D03*
X87226000Y-78238500D03*
X88076000Y-78238500D03*
X88926000Y-78238500D03*
X89776000Y-78238500D03*
X90626000Y-78238500D03*
X91476000Y-78238500D03*
X92326000Y-78238500D03*
X93176000Y-78238500D03*
D44*
X94521000Y-79088500D03*
D45*
X94516000Y-74783500D03*
D44*
X85881000Y-79088500D03*
D45*
X85881000Y-74788500D03*
D41*
X177766000Y-121871500D03*
X175866000Y-121871500D03*
X176816000Y-123746500D03*
D33*
X161355000Y-100503000D03*
X161355000Y-103378000D03*
D46*
X81700000Y-102956500D03*
X78450000Y-102956500D03*
D20*
X77916000Y-113298500D03*
X77916000Y-108798500D03*
D21*
X80406000Y-114548500D03*
X80406000Y-107538500D03*
D47*
X171775499Y-91473500D03*
X171775499Y-89748500D03*
D17*
X138956000Y-93558500D03*
X140781000Y-93558500D03*
D29*
X86824750Y-122796000D03*
D30*
X89364750Y-122796000D03*
D48*
X212836000Y-111948500D03*
X212836000Y-86948500D03*
D24*
X212536000Y-104988500D03*
D25*
X212536000Y-102218500D03*
X212536000Y-99448500D03*
X212536000Y-96678500D03*
X212536000Y-93908500D03*
X215376000Y-103603500D03*
X215376000Y-100833500D03*
X215376000Y-98063500D03*
X215376000Y-95293500D03*
D49*
X181267499Y-101178500D03*
X186667499Y-101178500D03*
D17*
X138956000Y-90002500D03*
X140781000Y-90002500D03*
D49*
X181267499Y-92923500D03*
X186667499Y-92923500D03*
D33*
X144526000Y-99781500D03*
X144526000Y-102656500D03*
D50*
X92561000Y-97623500D03*
X92561000Y-98123500D03*
X92561000Y-98623500D03*
X92561000Y-99123500D03*
X92561000Y-99623500D03*
X92561000Y-100123500D03*
X92561000Y-100623500D03*
D51*
X93711000Y-101773500D03*
X94211000Y-101773500D03*
X94711000Y-101773500D03*
X95211000Y-101773500D03*
X95711000Y-101773500D03*
X96211000Y-101773500D03*
X96711000Y-101773500D03*
D50*
X97861000Y-100623500D03*
X97861000Y-100123500D03*
X97861000Y-99623500D03*
X97861000Y-99123500D03*
X97861000Y-98623500D03*
X97861000Y-98123500D03*
X97861000Y-97623500D03*
D51*
X96711000Y-96473500D03*
X96211000Y-96473500D03*
X95711000Y-96473500D03*
X95211000Y-96473500D03*
X94711000Y-96473500D03*
X94211000Y-96473500D03*
X93711000Y-96473500D03*
D52*
X95211000Y-99123500D03*
D48*
X178478000Y-78087000D03*
X153478000Y-78087000D03*
D24*
X161663000Y-80137000D03*
D25*
X163953000Y-80137000D03*
X166243000Y-80137000D03*
X168533000Y-80137000D03*
X170823000Y-80137000D03*
X160518000Y-78157000D03*
X162808000Y-78157000D03*
X165098000Y-78157000D03*
X167388000Y-78157000D03*
X169678000Y-78157000D03*
X161663000Y-76177000D03*
X163953000Y-76177000D03*
X166243000Y-76177000D03*
X168533000Y-76177000D03*
X170823000Y-76177000D03*
D32*
X167977500Y-91530685D03*
X166152500Y-91530685D03*
D16*
X167959000Y-113878500D03*
X167959000Y-115703500D03*
X164149000Y-113878500D03*
X164149000Y-115703500D03*
D22*
X100121000Y-114433500D03*
X100121000Y-112608500D03*
D28*
X204662000Y-104046000D03*
X204662000Y-98646000D03*
D22*
X128716000Y-112251000D03*
X128716000Y-110426000D03*
D35*
X166243000Y-95885000D03*
X167968000Y-95885000D03*
D22*
X116016000Y-112251000D03*
X116016000Y-110426000D03*
D19*
X199604750Y-90225500D03*
X196404750Y-90225500D03*
X194204750Y-90225500D03*
X192004750Y-90225500D03*
X192004750Y-96225500D03*
X194204750Y-96225500D03*
X196404750Y-96225500D03*
X199604750Y-96225500D03*
D33*
X147574000Y-99781500D03*
X147574000Y-102656500D03*
D18*
X198358500Y-123571000D03*
X201658500Y-123571000D03*
D53*
X167994500Y-98149500D03*
X167994500Y-100224500D03*
D22*
X131256000Y-112251000D03*
X131256000Y-110426000D03*
D34*
X109285000Y-83566000D03*
X109285000Y-80691000D03*
D54*
X205036000Y-82508500D03*
X202336000Y-81308500D03*
D55*
X199836000Y-74508500D03*
D56*
X195236000Y-78408500D03*
D55*
X195736000Y-85708500D03*
D42*
X96311000Y-114508500D03*
X96311000Y-112608500D03*
X94436000Y-113558500D03*
D47*
X171896000Y-102445500D03*
X171896000Y-100720500D03*
D39*
X82996000Y-88656000D03*
X82996000Y-83556000D03*
D23*
X84266000Y-112608500D03*
X84266000Y-114333500D03*
D40*
X199517000Y-118983500D03*
X199517000Y-120883500D03*
X201392000Y-119933500D03*
D22*
X110916000Y-114433500D03*
X110916000Y-112608500D03*
D17*
X138956000Y-91780500D03*
X140781000Y-91780500D03*
D22*
X135701000Y-98558500D03*
X135701000Y-96733500D03*
D16*
X161609000Y-113878500D03*
X161609000Y-115703500D03*
D17*
X91901000Y-106299000D03*
X93726000Y-106299000D03*
D22*
X133796000Y-112251000D03*
X133796000Y-110426000D03*
X121096000Y-112251000D03*
X121096000Y-110426000D03*
D17*
X91901000Y-108585000D03*
X93726000Y-108585000D03*
D32*
X140781000Y-82763500D03*
X138956000Y-82763500D03*
D57*
X89981000Y-87465500D03*
X89981000Y-84665500D03*
D17*
X138956000Y-86446500D03*
X140781000Y-86446500D03*
D32*
X89369500Y-117688500D03*
X87544500Y-117688500D03*
D16*
X165835500Y-98274500D03*
X165835500Y-100099500D03*
D58*
X106390300Y-85801200D03*
X103515300Y-85801200D03*
D41*
X194052000Y-103075500D03*
X192152000Y-103075500D03*
X193102000Y-104950500D03*
D17*
X105856000Y-117688500D03*
X107681000Y-117688500D03*
D18*
X196278000Y-104775000D03*
X199578000Y-104775000D03*
D22*
X123636000Y-112251000D03*
X123636000Y-110426000D03*
D40*
X181102000Y-118958500D03*
X181102000Y-120858500D03*
X182977000Y-119908500D03*
D59*
X94437200Y-112420400D03*
X89346000Y-104013000D03*
X89346000Y-107950000D03*
X176790600Y-126578500D03*
D60*
X146496000Y-126578500D03*
X122366000Y-126578500D03*
D59*
X176816000Y-125222000D03*
X191770000Y-105029000D03*
X89981000Y-88849200D03*
X181432200Y-103225600D03*
X77916000Y-85445600D03*
X90678000Y-106299000D03*
X197468500Y-121285000D03*
X159196000Y-101178500D03*
X195388000Y-102616000D03*
X82996000Y-85394800D03*
X94426000Y-99908500D03*
X95696000Y-99908500D03*
X179102000Y-121285000D03*
D60*
X186667499Y-102616000D03*
D59*
X98602800Y-87845414D03*
X86806000Y-83108800D03*
X102057200Y-85801200D03*
X170180000Y-101600000D03*
X95696000Y-98638500D03*
X84632800Y-101686500D03*
X76962000Y-102956500D03*
X132526000Y-80839500D03*
X98806000Y-82042000D03*
X116656000Y-99268500D03*
X85081000Y-92743500D03*
X94426000Y-98638500D03*
X111150400Y-80691000D03*
X163006000Y-102448500D03*
X135066000Y-99908500D03*
X129986000Y-111338500D03*
X159196000Y-125308500D03*
X107543600Y-88239600D03*
X91886000Y-89748500D03*
X90616000Y-98638500D03*
X133796000Y-93558500D03*
X189992000Y-97155000D03*
X153111200Y-111338500D03*
X135066000Y-93558500D03*
X192024000Y-98298000D03*
X196712250Y-98054750D03*
X197550000Y-116418500D03*
X182056000Y-106239500D03*
X183326000Y-106258500D03*
X196026000Y-107528500D03*
X150306000Y-108798500D03*
X161736000Y-107528500D03*
X161736000Y-106258500D03*
X154116000Y-107528500D03*
X133796000Y-96098500D03*
X105231000Y-114681000D03*
D60*
X124906000Y-103718500D03*
X114746000Y-103718500D03*
D59*
X106375200Y-91490800D03*
D60*
X86806000Y-108798500D03*
D59*
X133796000Y-98638500D03*
X136336000Y-107528500D03*
X129667000Y-107823000D03*
X107315000Y-107823000D03*
X132470854Y-84668500D03*
X94715774Y-94798219D03*
X161736000Y-108796210D03*
X159196000Y-108796210D03*
X159196000Y-110049500D03*
X161736000Y-110068500D03*
X107950000Y-107188000D03*
X130177434Y-107207000D03*
X132526000Y-83398500D03*
X95631000Y-94811800D03*
X91886000Y-85938500D03*
X90616000Y-99908500D03*
D61*
X181427499Y-102595301D02*
X181427499Y-98257500D01*
X181432200Y-102600002D02*
X181427499Y-102595301D01*
X181432200Y-103225600D02*
X181432200Y-102600002D01*
X181427499Y-98257500D02*
X179903499Y-96733500D01*
X179903499Y-96733500D02*
X176728499Y-96733500D01*
X186667499Y-102616000D02*
X186667499Y-101178500D01*
D62*
X94437200Y-112420400D02*
X94436000Y-112421600D01*
X94436000Y-112421600D02*
X94436000Y-113558500D01*
X105231000Y-114681000D02*
X105231000Y-115137000D01*
X105231000Y-115137000D02*
X105856000Y-115762000D01*
X105231000Y-114681000D02*
X105231000Y-113558500D01*
X105856000Y-115762000D02*
X105856000Y-117688500D01*
X130177434Y-107207000D02*
X130304434Y-107207000D01*
X130304434Y-107207000D02*
X130323434Y-107188000D01*
X130323434Y-107188000D02*
X134217500Y-107188000D01*
X134217500Y-107188000D02*
X137352000Y-110322500D01*
X137352000Y-110322500D02*
X156148000Y-110322500D01*
X156148000Y-110322500D02*
X157226000Y-109244500D01*
X129667000Y-107823000D02*
X134217500Y-107823000D01*
X134217500Y-107823000D02*
X137098000Y-110703500D01*
X137098000Y-110703500D02*
X159958000Y-110703500D01*
D61*
X105801000Y-82001500D02*
X104383700Y-82001500D01*
X88925400Y-91338400D02*
X88605500Y-91018500D01*
X102362000Y-84023200D02*
X97218986Y-84023200D01*
X97218986Y-84023200D02*
X96570800Y-84671386D01*
X96570800Y-84671386D02*
X96570800Y-90690214D01*
X104383700Y-82001500D02*
X102362000Y-84023200D01*
X96570800Y-90690214D02*
X95922614Y-91338400D01*
X95922614Y-91338400D02*
X88925400Y-91338400D01*
X88605500Y-91018500D02*
X86806000Y-91018500D01*
D62*
X155956000Y-106704500D02*
X155956000Y-105867200D01*
X157226000Y-105877500D02*
X155966300Y-105877500D01*
X155966300Y-105877500D02*
X155956000Y-105867200D01*
X136336000Y-107528500D02*
X136336000Y-108036500D01*
X136336000Y-108036500D02*
X137860000Y-109560500D01*
X153100000Y-109560500D02*
X155956000Y-106704500D01*
X137860000Y-109560500D02*
X153100000Y-109560500D01*
X155956000Y-105867200D02*
X155956000Y-105812500D01*
X164911000Y-114326991D02*
X164470491Y-114767500D01*
X155956000Y-104149184D02*
X156132684Y-103972500D01*
X156132684Y-103972500D02*
X158434000Y-103972500D01*
X161617448Y-112535500D02*
X164330000Y-112535500D01*
X164330000Y-112535500D02*
X164911000Y-113116500D01*
X155956000Y-105812500D02*
X155956000Y-104149184D01*
X164470491Y-114767500D02*
X161863000Y-114767500D01*
X164911000Y-113116500D02*
X164911000Y-114326991D01*
X160285000Y-105823500D02*
X160285000Y-111203052D01*
X158434000Y-103972500D02*
X160285000Y-105823500D01*
X160285000Y-111203052D02*
X161617448Y-112535500D01*
X161863000Y-114767500D02*
X161609000Y-114513500D01*
X161609000Y-114513500D02*
X161609000Y-113878500D01*
X176976000Y-100720500D02*
X176976000Y-99908500D01*
X176976000Y-99908500D02*
X178054000Y-98830500D01*
X178054000Y-97739200D02*
X177977800Y-97663000D01*
X178054000Y-98830500D02*
X178054000Y-97739200D01*
X175712499Y-97368500D02*
X175404499Y-97060500D01*
X177977800Y-97663000D02*
X177683300Y-97368500D01*
X177683300Y-97368500D02*
X175712499Y-97368500D01*
X175404499Y-97060500D02*
X175404499Y-95812501D01*
X175404499Y-95812501D02*
X175753500Y-95463500D01*
X175753500Y-95463500D02*
X176728499Y-95463500D01*
X91873786Y-85950714D02*
X91886000Y-85938500D01*
X91886000Y-85938500D02*
X94598186Y-85938500D01*
X94598186Y-85938500D02*
X94610400Y-85950714D01*
X91898214Y-89760714D02*
X91901100Y-89763600D01*
X91901100Y-89763600D02*
X94607514Y-89763600D01*
X94607514Y-89763600D02*
X94610400Y-89760714D01*
D61*
X181267499Y-91891000D02*
X180949999Y-91573500D01*
X174188499Y-98003500D02*
X174188499Y-91573500D01*
X181267499Y-92923500D02*
X181267499Y-91891000D01*
X180949999Y-91573500D02*
X174188499Y-91573500D01*
X174188499Y-98003500D02*
X176728499Y-98003500D01*
X174436000Y-99527500D02*
X174436000Y-100670500D01*
X174188499Y-99279999D02*
X174436000Y-99527500D01*
X174188499Y-98003500D02*
X174188499Y-99279999D01*
X89978000Y-87468500D02*
X85911000Y-87468500D01*
X92775000Y-126578500D02*
X193826000Y-126578500D01*
X176816000Y-125222000D02*
X176816000Y-123746500D01*
X191770000Y-105029000D02*
X193023500Y-105029000D01*
X77916000Y-92807500D02*
X77902000Y-92821500D01*
X89346000Y-104013000D02*
X91901000Y-104013000D01*
X193826000Y-126578500D02*
X195182500Y-125222000D01*
X85911000Y-87468500D02*
X84723500Y-88656000D01*
X89346000Y-107950000D02*
X89346000Y-119426500D01*
X89981000Y-87465500D02*
X89978000Y-87468500D01*
X195182500Y-125222000D02*
X195182500Y-123746500D01*
X193023500Y-105029000D02*
X193102000Y-104950500D01*
X89981000Y-88849200D02*
X89981000Y-87465500D01*
X90997000Y-124800500D02*
X92775000Y-126578500D01*
X89346000Y-119426500D02*
X90997000Y-121077500D01*
X90997000Y-121077500D02*
X90997000Y-124800500D01*
X84723500Y-88656000D02*
X77916000Y-88656000D01*
X77916000Y-88656000D02*
X77916000Y-92807500D01*
X98610400Y-87743814D02*
X98610400Y-87837814D01*
X103515300Y-85801200D02*
X102057200Y-85801200D01*
X158815000Y-100797500D02*
X157226000Y-100797500D01*
X171896000Y-100720500D02*
X171896000Y-98121001D01*
D62*
X148955000Y-102656500D02*
X147574000Y-102656500D01*
D61*
X111992500Y-80691000D02*
X112587000Y-80096500D01*
X164996500Y-98274500D02*
X165835500Y-98274500D01*
X173166000Y-101178500D02*
X172708000Y-100720500D01*
X98610400Y-87743814D02*
X98610400Y-89760714D01*
X159196000Y-101178500D02*
X158815000Y-100797500D01*
X172708000Y-100720500D02*
X171896000Y-100720500D01*
D62*
X100121000Y-117688500D02*
X100121000Y-119613500D01*
D61*
X164719000Y-98552000D02*
X164996500Y-98274500D01*
X166243000Y-95885000D02*
X166243000Y-97157185D01*
D62*
X154878000Y-102575500D02*
X154878000Y-101432500D01*
X153481000Y-103972500D02*
X154878000Y-102575500D01*
D61*
X100701000Y-82001500D02*
X98846500Y-82001500D01*
X195388000Y-103124000D02*
X196278000Y-104014000D01*
D62*
X110174000Y-120910500D02*
X110174000Y-123276500D01*
D61*
X195388000Y-101473000D02*
X194903500Y-100988500D01*
X83982300Y-92567500D02*
X82502000Y-92567500D01*
X109285000Y-80691000D02*
X111992500Y-80691000D01*
X166143000Y-95785000D02*
X166243000Y-95885000D01*
X77916000Y-113298500D02*
X78733000Y-112481500D01*
X166243000Y-97157185D02*
X165835500Y-97564685D01*
X198358500Y-122810000D02*
X198358500Y-123571000D01*
X179102000Y-120396000D02*
X178594000Y-119888000D01*
D62*
X131870000Y-80183500D02*
X131116000Y-80183500D01*
X132526000Y-80839500D02*
X131870000Y-80183500D01*
D61*
X77916000Y-83556000D02*
X77916000Y-85445600D01*
X194903500Y-100988500D02*
X194903500Y-100203000D01*
X86806000Y-84668500D02*
X86806000Y-83108800D01*
D62*
X98744000Y-123206500D02*
X99526000Y-123988500D01*
D61*
X196278000Y-104014000D02*
X196278000Y-104775000D01*
X166143000Y-93726000D02*
X166143000Y-95785000D01*
X171059500Y-100720500D02*
X171896000Y-100720500D01*
X98846500Y-82001500D02*
X98806000Y-82042000D01*
X178594000Y-119888000D02*
X178617500Y-119864500D01*
X165481000Y-101600000D02*
X164719000Y-100838000D01*
X199501500Y-118999000D02*
X199517000Y-118983500D01*
X176338000Y-102445500D02*
X175452000Y-101559500D01*
X195388000Y-102616000D02*
X195388000Y-101473000D01*
X98610400Y-85950714D02*
X98610400Y-87743814D01*
X179102000Y-121285000D02*
X179102000Y-120396000D01*
X176976000Y-102445500D02*
X176338000Y-102445500D01*
D62*
X98744000Y-120990500D02*
X98744000Y-123206500D01*
X150560000Y-103972500D02*
X153481000Y-103972500D01*
D61*
X171778499Y-96733500D02*
X171778499Y-98003500D01*
D62*
X149163000Y-105369500D02*
X150560000Y-103972500D01*
D61*
X178617500Y-119864500D02*
X178617500Y-118999000D01*
X161355000Y-103378000D02*
X160252500Y-103378000D01*
X78733000Y-112481500D02*
X81752500Y-112481500D01*
D62*
X94411000Y-98623500D02*
X94426000Y-98638500D01*
X116651000Y-99273500D02*
X116656000Y-99268500D01*
D61*
X165835500Y-97564685D02*
X165835500Y-98274500D01*
X197468500Y-120523000D02*
X196984000Y-120038500D01*
D62*
X154878000Y-101432500D02*
X155513000Y-100797500D01*
D61*
X179992000Y-122746500D02*
X179992000Y-123571000D01*
D62*
X92761000Y-98623500D02*
X94411000Y-98623500D01*
D61*
X178658000Y-118958500D02*
X178617500Y-118999000D01*
D62*
X100121000Y-119613500D02*
X98744000Y-120990500D01*
D61*
X198357500Y-118999000D02*
X199501500Y-118999000D01*
D62*
X155513000Y-100797500D02*
X157226000Y-100797500D01*
D61*
X175452000Y-101559500D02*
X173547000Y-101559500D01*
X197388000Y-100183000D02*
X194923500Y-100183000D01*
X164719000Y-100838000D02*
X164719000Y-98552000D01*
X76962000Y-102956500D02*
X78450000Y-102956500D01*
X98610400Y-87837814D02*
X98602800Y-87845414D01*
X171896000Y-98121001D02*
X171778499Y-98003500D01*
X159196000Y-102321500D02*
X159196000Y-101178500D01*
D62*
X147574000Y-105369500D02*
X149163000Y-105369500D01*
D61*
X84158300Y-92743500D02*
X83982300Y-92567500D01*
X197468500Y-121920000D02*
X198358500Y-122810000D01*
D62*
X194757000Y-100183000D02*
X194691000Y-100117000D01*
D61*
X197468500Y-121285000D02*
X197468500Y-121920000D01*
X181102000Y-118958500D02*
X178658000Y-118958500D01*
X170180000Y-101600000D02*
X165481000Y-101600000D01*
X91901000Y-106299000D02*
X90678000Y-106299000D01*
X179102000Y-121856500D02*
X179992000Y-122746500D01*
X160252500Y-103378000D02*
X159196000Y-102321500D01*
X85081000Y-92743500D02*
X86806000Y-92743500D01*
X83604500Y-114333500D02*
X84266000Y-114333500D01*
X82502000Y-92567500D02*
X82502000Y-92821500D01*
X84632800Y-101686500D02*
X86084500Y-101686500D01*
X196984000Y-120038500D02*
X196984000Y-118999000D01*
X170180000Y-101600000D02*
X171059500Y-100720500D01*
X81752500Y-112481500D02*
X83604500Y-114333500D01*
X112587000Y-80096500D02*
X113616000Y-80096500D01*
X197468500Y-121285000D02*
X197468500Y-120523000D01*
X85081000Y-92743500D02*
X84158300Y-92743500D01*
D62*
X150179000Y-101432500D02*
X148955000Y-102656500D01*
X111491000Y-117688500D02*
X111491000Y-119593500D01*
X154878000Y-101432500D02*
X150179000Y-101432500D01*
D61*
X194923500Y-100183000D02*
X194903500Y-100203000D01*
D62*
X110174000Y-123276500D02*
X110936000Y-124038500D01*
X116656000Y-97943500D02*
X116656000Y-99268500D01*
D61*
X179102000Y-121285000D02*
X179102000Y-121856500D01*
X82996000Y-83556000D02*
X82996000Y-85394800D01*
D62*
X111491000Y-119593500D02*
X110174000Y-120910500D01*
D61*
X173547000Y-101559500D02*
X173166000Y-101178500D01*
X195388000Y-102616000D02*
X195388000Y-103124000D01*
X196984000Y-118999000D02*
X198357500Y-118999000D01*
D62*
X172026000Y-100590500D02*
X171896000Y-100720500D01*
X165835500Y-100099500D02*
X167869500Y-100099500D01*
X170601500Y-95463500D02*
X171778499Y-95463500D01*
X167994500Y-100224500D02*
X169672000Y-98547000D01*
X169672000Y-96393000D02*
X170601500Y-95463500D01*
X169672000Y-98547000D02*
X169672000Y-96393000D01*
X167994500Y-96162500D02*
X167994500Y-98149500D01*
X167977500Y-91530685D02*
X167994500Y-91547685D01*
X167994500Y-91547685D02*
X167994500Y-93699500D01*
X167968000Y-93601185D02*
X167994500Y-93627685D01*
X167968000Y-93350185D02*
X167968000Y-93601185D01*
X167968000Y-93726000D02*
X167968000Y-95885000D01*
X174436000Y-102495500D02*
X171946000Y-102495500D01*
X171946000Y-102495500D02*
X171896000Y-102445500D01*
X171775499Y-89748500D02*
X174315499Y-89748500D01*
X171778499Y-94193500D02*
X171778499Y-93620500D01*
X171775499Y-93617500D02*
X171778499Y-93620500D01*
X171775499Y-91473500D02*
X171775499Y-93617500D01*
X144526000Y-99781500D02*
X145480000Y-99781500D01*
X145480000Y-99781500D02*
X146750000Y-98511500D01*
X146750000Y-98511500D02*
X149163000Y-98511500D01*
X150179000Y-99527500D02*
X152276000Y-99527500D01*
X149163000Y-98511500D02*
X150179000Y-99527500D01*
X145561000Y-102656500D02*
X146750000Y-103845500D01*
X146750000Y-103845500D02*
X148909000Y-103845500D01*
X150687000Y-102067500D02*
X152276000Y-102067500D01*
X148909000Y-103845500D02*
X150687000Y-102067500D01*
X144526000Y-102656500D02*
X145561000Y-102656500D01*
X150941000Y-104607500D02*
X152276000Y-104607500D01*
X145653000Y-108244500D02*
X147131000Y-106766500D01*
X144526000Y-108244500D02*
X145653000Y-108244500D01*
X148782000Y-106766500D02*
X150941000Y-104607500D01*
X147131000Y-106766500D02*
X148782000Y-106766500D01*
X146677000Y-104172500D02*
X149598000Y-104172500D01*
X149598000Y-104172500D02*
X150433000Y-103337500D01*
X144526000Y-105369500D02*
X145480000Y-105369500D01*
X150433000Y-103337500D02*
X152276000Y-103337500D01*
X145480000Y-105369500D02*
X146677000Y-104172500D01*
X150941000Y-105877500D02*
X152276000Y-105877500D01*
X148574000Y-108244500D02*
X150941000Y-105877500D01*
X147574000Y-108244500D02*
X148574000Y-108244500D01*
X149163000Y-99781500D02*
X150179000Y-100797500D01*
X147574000Y-99781500D02*
X149163000Y-99781500D01*
X150179000Y-100797500D02*
X152276000Y-100797500D01*
X117667000Y-111338500D02*
X119445000Y-111338500D01*
X115277500Y-110426000D02*
X114746000Y-110957500D01*
X121834500Y-110426000D02*
X122747000Y-111338500D01*
D61*
X84474000Y-104561500D02*
X86084500Y-104561500D01*
X82869000Y-102956500D02*
X84474000Y-104561500D01*
D62*
X119445000Y-111338500D02*
X120357500Y-110426000D01*
D61*
X109285000Y-83566000D02*
X108000800Y-83566000D01*
X86084500Y-104561500D02*
X86084500Y-103526500D01*
D62*
X124525000Y-111338500D02*
X125437500Y-110426000D01*
D61*
X161355000Y-100503000D02*
X160171500Y-100503000D01*
X91901000Y-108585000D02*
X91901000Y-124688500D01*
X91901000Y-124688500D02*
X93156000Y-125943500D01*
X163006000Y-102448500D02*
X163006000Y-100797500D01*
D62*
X116754500Y-110426000D02*
X117667000Y-111338500D01*
D61*
X104548300Y-88239600D02*
X104548300Y-90271600D01*
X159196000Y-99527500D02*
X157226000Y-99527500D01*
X107746800Y-83312000D02*
X107746800Y-82346800D01*
X91059000Y-102870000D02*
X92710000Y-101219000D01*
D62*
X116016000Y-110426000D02*
X115277500Y-110426000D01*
D61*
X107126900Y-82001500D02*
X105801000Y-82001500D01*
X158561000Y-125943500D02*
X114746000Y-125943500D01*
X107137200Y-81991200D02*
X107126900Y-82001500D01*
D62*
X129986000Y-111338500D02*
X131002000Y-111338500D01*
D61*
X163006000Y-100797500D02*
X162711500Y-100503000D01*
D62*
X126914500Y-110426000D02*
X127827000Y-111338500D01*
X114746000Y-110957500D02*
X114746000Y-125943500D01*
D61*
X93156000Y-125943500D02*
X114746000Y-125943500D01*
X107391200Y-81991200D02*
X107137200Y-81991200D01*
D62*
X127827000Y-111338500D02*
X129986000Y-111338500D01*
X135066000Y-99908500D02*
X135701000Y-99273500D01*
X131002000Y-111338500D02*
X131256000Y-111084500D01*
D61*
X105801000Y-82001500D02*
X105801000Y-83886200D01*
D62*
X131256000Y-111084500D02*
X131256000Y-110426000D01*
D61*
X161355000Y-100503000D02*
X161355000Y-100416500D01*
X80202000Y-91272500D02*
X80202000Y-102448500D01*
X81700000Y-102956500D02*
X82869000Y-102956500D01*
D62*
X126176000Y-110426000D02*
X126914500Y-110426000D01*
X125437500Y-110426000D02*
X126176000Y-110426000D01*
D61*
X105801000Y-83886200D02*
X104952800Y-84734400D01*
D62*
X121096000Y-110426000D02*
X121834500Y-110426000D01*
D61*
X86806000Y-91018500D02*
X80456000Y-91018500D01*
X159196000Y-125308500D02*
X158561000Y-125943500D01*
X87278750Y-104561500D02*
X91302250Y-108585000D01*
X104952800Y-87020400D02*
X104548300Y-87424900D01*
X162711500Y-100503000D02*
X161355000Y-100503000D01*
X104548300Y-87424900D02*
X104548300Y-88239600D01*
D62*
X135701000Y-99273500D02*
X135701000Y-98558500D01*
D61*
X104952800Y-84734400D02*
X104952800Y-87020400D01*
X107746800Y-82346800D02*
X107391200Y-81991200D01*
X92710000Y-101219000D02*
X92710000Y-100203000D01*
X160171500Y-100503000D02*
X159196000Y-99527500D01*
X110514500Y-83566000D02*
X109285000Y-83566000D01*
D62*
X120357500Y-110426000D02*
X121096000Y-110426000D01*
D61*
X110514500Y-83566000D02*
X112627000Y-81453500D01*
X80202000Y-102448500D02*
X80710000Y-102956500D01*
X108000800Y-83566000D02*
X107746800Y-83312000D01*
X86084500Y-104561500D02*
X87278750Y-104561500D01*
X80710000Y-102956500D02*
X81700000Y-102956500D01*
X91302250Y-108585000D02*
X91901000Y-108585000D01*
X86741000Y-102870000D02*
X91059000Y-102870000D01*
D62*
X122747000Y-111338500D02*
X124525000Y-111338500D01*
D61*
X112627000Y-81453500D02*
X113616000Y-81453500D01*
X80456000Y-91018500D02*
X80202000Y-91272500D01*
X86084500Y-103526500D02*
X86741000Y-102870000D01*
D62*
X116016000Y-110426000D02*
X116754500Y-110426000D01*
X107106000Y-123368500D02*
X106436000Y-124038500D01*
X107681000Y-122793500D02*
X107106000Y-123368500D01*
X107681000Y-117688500D02*
X109766000Y-117688500D01*
X107681000Y-117688500D02*
X107681000Y-122793500D01*
X98396000Y-117688500D02*
X96311000Y-117688500D01*
X96311000Y-122703500D02*
X95026000Y-123988500D01*
X96311000Y-117688500D02*
X96311000Y-122703500D01*
X94436000Y-117638500D02*
X94486000Y-117688500D01*
X113616000Y-82723500D02*
X112500000Y-82723500D01*
X109422300Y-85801200D02*
X106390300Y-85801200D01*
X112500000Y-82723500D02*
X109422300Y-85801200D01*
X106373300Y-88239600D02*
X106373300Y-85818200D01*
X106373300Y-88239600D02*
X107543600Y-88239600D01*
X94436000Y-113558500D02*
X94436000Y-117638500D01*
X106373300Y-85818200D02*
X106390300Y-85801200D01*
X84266000Y-112608500D02*
X84266000Y-109353500D01*
X79059000Y-108798500D02*
X77916000Y-108798500D01*
X79614000Y-109353500D02*
X79059000Y-108798500D01*
X84266000Y-109353500D02*
X79614000Y-109353500D01*
D61*
X203265000Y-110221000D02*
X202312500Y-109268500D01*
X202312500Y-109268500D02*
X201741000Y-109268500D01*
X206694000Y-117696000D02*
X205685500Y-117696000D01*
X203265000Y-115275500D02*
X203265000Y-110221000D01*
X205685500Y-117696000D02*
X203265000Y-115275500D01*
X183796000Y-109268500D02*
X184723000Y-110195500D01*
X184723000Y-115212000D02*
X187207000Y-117696000D01*
X184723000Y-110195500D02*
X184723000Y-115212000D01*
X187207000Y-117696000D02*
X188279000Y-117696000D01*
X183250500Y-109268500D02*
X183796000Y-109268500D01*
X200186000Y-90225500D02*
X201233000Y-91272500D01*
X203526500Y-98646000D02*
X204662000Y-98646000D01*
X199604750Y-90225500D02*
X200186000Y-90225500D01*
X201233000Y-96352500D02*
X203526500Y-98646000D01*
X201233000Y-91272500D02*
X201233000Y-96352500D01*
D62*
X92738000Y-99146500D02*
X92761000Y-99123500D01*
X91124000Y-99146500D02*
X92738000Y-99146500D01*
X90616000Y-98638500D02*
X91124000Y-99146500D01*
D61*
X92326000Y-77795250D02*
X92326000Y-78238500D01*
X88076000Y-78238500D02*
X88076000Y-77810500D01*
X88076000Y-81239500D02*
X89981000Y-83144500D01*
X92326000Y-79588500D02*
X92326000Y-78238500D01*
X89981000Y-83144500D02*
X89981000Y-84665500D01*
X91960250Y-77429500D02*
X92326000Y-77795250D01*
X88457000Y-77429500D02*
X91960250Y-77429500D01*
X88076000Y-78238500D02*
X88076000Y-81239500D01*
X88076000Y-77810500D02*
X88457000Y-77429500D01*
D62*
X87544500Y-118347000D02*
X86886000Y-119005500D01*
X86886000Y-122843000D02*
X86806000Y-122923000D01*
X87544500Y-117688500D02*
X87544500Y-118347000D01*
X86886000Y-119005500D02*
X86886000Y-122843000D01*
X86806000Y-122923000D02*
X86806000Y-122768500D01*
X123798000Y-108452500D02*
X134212000Y-108452500D01*
X155498800Y-117166300D02*
X158561000Y-120228500D01*
X162406252Y-125933200D02*
X189788800Y-125933200D01*
X152080100Y-111084500D02*
X155498800Y-114503200D01*
X113616000Y-98270500D02*
X123798000Y-108452500D01*
X189788800Y-125933200D02*
X192278000Y-123444000D01*
X158561000Y-122087948D02*
X162406252Y-125933200D01*
X134212000Y-108452500D02*
X136844000Y-111084500D01*
X155498800Y-114503200D02*
X155498800Y-117166300D01*
X192278000Y-123444000D02*
X192278000Y-117983000D01*
X192278000Y-117983000D02*
X192428500Y-117832500D01*
X192428500Y-117832500D02*
X193167000Y-117832500D01*
X113616000Y-96693500D02*
X113616000Y-98270500D01*
X136844000Y-111084500D02*
X152080100Y-111084500D01*
X158561000Y-120228500D02*
X158561000Y-122087948D01*
D61*
X199517000Y-121555500D02*
X200008500Y-122047000D01*
X200008500Y-122047000D02*
X201151500Y-122047000D01*
X199517000Y-120883500D02*
X201958500Y-120883500D01*
X202613500Y-120228500D02*
X202613500Y-117418000D01*
X201741000Y-116545500D02*
X201741000Y-115268500D01*
X202613500Y-117418000D02*
X201741000Y-116545500D01*
X199517000Y-120883500D02*
X199517000Y-121555500D01*
X201958500Y-120883500D02*
X202613500Y-120228500D01*
X201658500Y-122554000D02*
X201658500Y-123571000D01*
X201151500Y-122047000D02*
X201658500Y-122554000D01*
D62*
X133201000Y-94153500D02*
X131116000Y-94153500D01*
X133796000Y-93558500D02*
X133201000Y-94153500D01*
X191008000Y-98171000D02*
X191008000Y-98933000D01*
X189992000Y-97155000D02*
X191008000Y-98171000D01*
D61*
X197388000Y-102711000D02*
X197928000Y-103251000D01*
X199071000Y-103251000D02*
X199578000Y-103758000D01*
X199604750Y-97518250D02*
X199604750Y-96225500D01*
X197928000Y-103251000D02*
X199071000Y-103251000D01*
X200533000Y-101432500D02*
X200533000Y-98446500D01*
X200533000Y-98446500D02*
X200090000Y-98003500D01*
X199578000Y-103758000D02*
X199578000Y-104775000D01*
X199882500Y-102083000D02*
X200533000Y-101432500D01*
X200090000Y-98003500D02*
X199604750Y-97518250D01*
X197388000Y-102083000D02*
X199882500Y-102083000D01*
X197388000Y-102083000D02*
X197388000Y-102711000D01*
D62*
X161244514Y-124307600D02*
X172364400Y-124307600D01*
X153111200Y-111338500D02*
X155825800Y-114053100D01*
X173609000Y-117983000D02*
X173759500Y-117832500D01*
X173759500Y-117832500D02*
X174498000Y-117832500D01*
X135066000Y-93558500D02*
X134391000Y-92883500D01*
X158889000Y-120092638D02*
X158889000Y-121952086D01*
X134391000Y-92883500D02*
X131116000Y-92883500D01*
X158889000Y-121952086D02*
X161244514Y-124307600D01*
X173609000Y-123063000D02*
X173609000Y-117983000D01*
X155826800Y-117030438D02*
X158889000Y-120092638D01*
X155825800Y-114053100D02*
X155825800Y-114366338D01*
X172364400Y-124307600D02*
X173609000Y-123063000D01*
X155826800Y-114367338D02*
X155826800Y-117030438D01*
X155825800Y-114366338D02*
X155826800Y-114367338D01*
D61*
X182785000Y-122047000D02*
X183292000Y-122554000D01*
X183444650Y-120858500D02*
X181102000Y-120858500D01*
X181102000Y-120858500D02*
X181102000Y-121634000D01*
X183292000Y-122554000D02*
X183292000Y-123571000D01*
X183515000Y-116967000D02*
X184182000Y-117634000D01*
X184182000Y-120121150D02*
X183444650Y-120858500D01*
D62*
X183326000Y-115395500D02*
X183274500Y-115344000D01*
D61*
X183250500Y-116702500D02*
X183515000Y-116967000D01*
X184182000Y-117634000D02*
X184182000Y-120121150D01*
X183250500Y-115268500D02*
X183250500Y-116702500D01*
X181515000Y-122047000D02*
X182785000Y-122047000D01*
X181102000Y-121634000D02*
X181515000Y-122047000D01*
D62*
X140781000Y-84668500D02*
X140781000Y-86446500D01*
X159497797Y-83039802D02*
X159377797Y-83039802D01*
X151319700Y-82042000D02*
X150860080Y-82501619D01*
X148738758Y-84622943D02*
X148271700Y-85090000D01*
X159137797Y-82042000D02*
X159137797Y-81284198D01*
X152897797Y-81044198D02*
X152777797Y-81044198D01*
X149529164Y-84904232D02*
X149163023Y-84538091D01*
X157697797Y-81044198D02*
X157577797Y-81044198D01*
X159737797Y-81284198D02*
X159737797Y-81802000D01*
X148966601Y-82984020D02*
X148881748Y-83068872D01*
X147381700Y-84850000D02*
X147381700Y-84332174D01*
X149417581Y-83944117D02*
X149587288Y-84113824D01*
X161663000Y-80137000D02*
X161663000Y-81288000D01*
X156137797Y-82042000D02*
X156137797Y-82799802D01*
X148823611Y-84538092D02*
X148738758Y-84622943D01*
X152537797Y-81284198D02*
X152537797Y-82042000D01*
X150377700Y-84055708D02*
X149841847Y-83519855D01*
X154337797Y-82799802D02*
X154337797Y-82042000D01*
X148271700Y-85090000D02*
X147621700Y-85090000D01*
X154937797Y-82042000D02*
X154937797Y-82799802D01*
X149841846Y-83519854D02*
X149306012Y-82984020D01*
X157937797Y-82042000D02*
X157937797Y-81284198D01*
X146781700Y-84332174D02*
X146781700Y-84850000D01*
X153737797Y-82042000D02*
X153737797Y-82799802D01*
X156497797Y-81044198D02*
X156377797Y-81044198D01*
X151577797Y-82042000D02*
X151319700Y-82042000D01*
X158537797Y-82042000D02*
X158537797Y-82799802D01*
X149815098Y-82135460D02*
X149730245Y-82220312D01*
X146421700Y-85090000D02*
X145687282Y-85090000D01*
X160909000Y-82042000D02*
X160577797Y-82042000D01*
X159737797Y-82042000D02*
X159737797Y-82799802D01*
X160337797Y-81802000D02*
X160337797Y-81284198D01*
X159137797Y-82799802D02*
X159137797Y-82042000D01*
X151697797Y-82042000D02*
X151577797Y-82042000D01*
X154937797Y-81284198D02*
X154937797Y-82042000D01*
X159737797Y-81802000D02*
X159737797Y-82042000D01*
X152537797Y-82282000D02*
X152537797Y-82799802D01*
X153497797Y-83039802D02*
X153377797Y-83039802D01*
X155537797Y-82042000D02*
X155537797Y-81284198D01*
X149587288Y-84113824D02*
X149953429Y-84479965D01*
X150266110Y-83095590D02*
X150801964Y-83631444D01*
X153137797Y-82799802D02*
X153137797Y-82042000D01*
X153737797Y-81284198D02*
X153737797Y-82042000D01*
X155297797Y-81044198D02*
X155177797Y-81044198D01*
X148881748Y-83408284D02*
X149417581Y-83944117D01*
X158297797Y-83039802D02*
X158177797Y-83039802D01*
X155897797Y-83039802D02*
X155777797Y-83039802D01*
X158897797Y-81044198D02*
X158777797Y-81044198D01*
X155537797Y-82799802D02*
X155537797Y-82042000D01*
X160097797Y-81044198D02*
X159977797Y-81044198D01*
X152537797Y-82042000D02*
X152537797Y-82282000D01*
X149841847Y-83519855D02*
X149841846Y-83519854D01*
X154697797Y-83039802D02*
X154577797Y-83039802D01*
X157097797Y-83039802D02*
X156977797Y-83039802D01*
X145687282Y-85090000D02*
X142580500Y-85090000D01*
X156737797Y-82799802D02*
X156737797Y-82042000D01*
X156737797Y-82042000D02*
X156737797Y-81284198D01*
X142113000Y-85557500D02*
X140781000Y-85557500D01*
X156137797Y-81284198D02*
X156137797Y-82042000D01*
X161663000Y-81288000D02*
X160909000Y-82042000D01*
X157337797Y-81284198D02*
X157337797Y-82042000D01*
X151937797Y-82799802D02*
X151937797Y-82282000D01*
X157337797Y-82042000D02*
X157337797Y-82799802D01*
X150520668Y-82501619D02*
X150154509Y-82135460D01*
X149953429Y-84819377D02*
X149868574Y-84904233D01*
X154337797Y-82042000D02*
X154337797Y-81284198D01*
X153137797Y-82042000D02*
X153137797Y-81284198D01*
X147141700Y-84092174D02*
X147021700Y-84092174D01*
X149730245Y-82559724D02*
X150096403Y-82925882D01*
X150096403Y-82925882D02*
X150266110Y-83095590D01*
X157937797Y-82799802D02*
X157937797Y-82042000D01*
X146541700Y-85090000D02*
X146421700Y-85090000D01*
X150801963Y-83970856D02*
X150717112Y-84055708D01*
X158537797Y-81284198D02*
X158537797Y-82042000D01*
X154097797Y-81044198D02*
X153977797Y-81044198D01*
X142580500Y-85090000D02*
X142113000Y-85557500D01*
X152297797Y-83039802D02*
X152177797Y-83039802D01*
X159737797Y-82799802D02*
G75*
G02*
X159497797Y-83039797I-239997J2D01*
G01*
X147381700Y-84332174D02*
G75*
G03*
X147141700Y-84092200I-240000J-26D01*
G01*
X154337797Y-81284198D02*
G75*
G03*
X154097797Y-81044203I-239997J-2D01*
G01*
X153737797Y-82799802D02*
G75*
G02*
X153497797Y-83039797I-239997J2D01*
G01*
X154577797Y-83039802D02*
G75*
G02*
X154337798Y-82799802I3J240002D01*
G01*
X158777797Y-81044198D02*
G75*
G03*
X158537798Y-81284198I3J-240002D01*
G01*
X153977797Y-81044198D02*
G75*
G03*
X153737798Y-81284198I3J-240002D01*
G01*
X149868574Y-84904233D02*
G75*
G02*
X149529194Y-84904202I-169674J169733D01*
G01*
X158537797Y-82799802D02*
G75*
G02*
X158297797Y-83039797I-239997J2D01*
G01*
X152537797Y-82799802D02*
G75*
G02*
X152297797Y-83039797I-239997J2D01*
G01*
X146781700Y-84850000D02*
G75*
G02*
X146541700Y-85090000I-240000J0D01*
G01*
X149953429Y-84479965D02*
G75*
G02*
X149953458Y-84819406I-169729J-169735D01*
G01*
X150801964Y-83631444D02*
G75*
G02*
X150801914Y-83970806I-169664J-169656D01*
G01*
X158177797Y-83039802D02*
G75*
G02*
X157937798Y-82799802I3J240002D01*
G01*
X157337797Y-82799802D02*
G75*
G02*
X157097797Y-83039797I-239997J2D01*
G01*
X149306012Y-82984020D02*
G75*
G03*
X148966602Y-82984020I-169705J-169703D01*
G01*
X153377797Y-83039802D02*
G75*
G02*
X153137798Y-82799802I3J240002D01*
G01*
X159977797Y-81044198D02*
G75*
G03*
X159737798Y-81284198I3J-240002D01*
G01*
X154937797Y-82799802D02*
G75*
G02*
X154697797Y-83039797I-239997J2D01*
G01*
X150860080Y-82501619D02*
G75*
G02*
X150520668Y-82501619I-169706J169704D01*
G01*
X156137797Y-82799802D02*
G75*
G02*
X155897797Y-83039797I-239997J2D01*
G01*
X160577797Y-82042000D02*
G75*
G02*
X160337800Y-81802000I3J240000D01*
G01*
X160337797Y-81284198D02*
G75*
G03*
X160097797Y-81044203I-239997J-2D01*
G01*
X157577797Y-81044198D02*
G75*
G03*
X157337798Y-81284198I3J-240002D01*
G01*
X159377797Y-83039802D02*
G75*
G02*
X159137798Y-82799802I3J240002D01*
G01*
X155537797Y-81284198D02*
G75*
G03*
X155297797Y-81044203I-239997J-2D01*
G01*
X156737797Y-81284198D02*
G75*
G03*
X156497797Y-81044203I-239997J-2D01*
G01*
X149730245Y-82220312D02*
G75*
G03*
X149730263Y-82559706I169655J-169688D01*
G01*
X155177797Y-81044198D02*
G75*
G03*
X154937798Y-81284198I3J-240002D01*
G01*
X147021700Y-84092174D02*
G75*
G03*
X146781674Y-84332174I0J-240026D01*
G01*
X157937797Y-81284198D02*
G75*
G03*
X157697797Y-81044203I-239997J-2D01*
G01*
X148881748Y-83068872D02*
G75*
G03*
X148881726Y-83408306I169752J-169728D01*
G01*
X149163023Y-84538091D02*
G75*
G03*
X148823594Y-84538074I-169723J-169709D01*
G01*
X150717112Y-84055708D02*
G75*
G02*
X150377700Y-84055708I-169706J169701D01*
G01*
X151937797Y-82282000D02*
G75*
G03*
X151697797Y-82042003I-239997J0D01*
G01*
X159137797Y-81284198D02*
G75*
G03*
X158897797Y-81044203I-239997J-2D01*
G01*
X152777797Y-81044198D02*
G75*
G03*
X152537798Y-81284198I3J-240002D01*
G01*
X155777797Y-83039802D02*
G75*
G02*
X155537798Y-82799802I3J240002D01*
G01*
X156377797Y-81044198D02*
G75*
G03*
X156137798Y-81284198I3J-240002D01*
G01*
X147621700Y-85090000D02*
G75*
G02*
X147381700Y-84850000I0J240000D01*
G01*
X156977797Y-83039802D02*
G75*
G02*
X156737798Y-82799802I3J240002D01*
G01*
X150154509Y-82135460D02*
G75*
G03*
X149815099Y-82135460I-169705J-169703D01*
G01*
X152177797Y-83039802D02*
G75*
G02*
X151937798Y-82799802I3J240002D01*
G01*
X153137797Y-81284198D02*
G75*
G03*
X152897797Y-81044203I-239997J-2D01*
G01*
X149098000Y-79502000D02*
X149098000Y-77089000D01*
X145120000Y-81862753D02*
X145240000Y-81862753D01*
X155039000Y-73649000D02*
X155159000Y-73649000D01*
X156839000Y-75549000D02*
X156959000Y-75549000D01*
X143320000Y-83664244D02*
X143440000Y-83664244D01*
X158399000Y-75309000D02*
X158399000Y-74549000D01*
X148414090Y-81709910D02*
X148583795Y-81879615D01*
X155999000Y-74549000D02*
X155999000Y-73889000D01*
X147522607Y-81327546D02*
X147607461Y-81242693D01*
X144880000Y-82763500D02*
X144880000Y-82102753D01*
X158999000Y-73889000D02*
X158999000Y-74309000D01*
X143080000Y-82523500D02*
X143080000Y-82763500D01*
X154799000Y-74309000D02*
X154799000Y-73889000D01*
X144520000Y-83664244D02*
X144640000Y-83664244D01*
X149098000Y-81026000D02*
X149098000Y-79502000D01*
X159239000Y-74549000D02*
X159359000Y-74549000D01*
X158399000Y-74549000D02*
X158399000Y-74309000D01*
X143680000Y-83424244D02*
X143680000Y-82763500D01*
X149305579Y-81752870D02*
X149008059Y-81455350D01*
X147946873Y-81242693D02*
X148244386Y-81540206D01*
X155399000Y-74309000D02*
X155399000Y-74549000D01*
X148583795Y-81879615D02*
X148881315Y-82177135D01*
X142720000Y-81862756D02*
X142840000Y-81862756D01*
X144880000Y-83424244D02*
X144880000Y-82763500D01*
X156239000Y-73649000D02*
X156359000Y-73649000D01*
X158639000Y-73649000D02*
X158759000Y-73649000D01*
X143680000Y-82763500D02*
X143680000Y-82102756D01*
X146080000Y-83424248D02*
X146080000Y-82763500D01*
X155999000Y-75309000D02*
X155999000Y-74549000D01*
X159359000Y-74549000D02*
X160127883Y-74549000D01*
X157199000Y-75309000D02*
X157199000Y-74549000D01*
X149098000Y-77089000D02*
X151638000Y-74549000D01*
X149220726Y-82177135D02*
X149305579Y-82092281D01*
X160127883Y-74549000D02*
X165862001Y-74549000D01*
X146080000Y-82763500D02*
X146080000Y-82523500D01*
X166243000Y-74929999D02*
X166243000Y-76177000D01*
X147820120Y-81964468D02*
X147522608Y-81666956D01*
X158399000Y-74309000D02*
X158399000Y-73889000D01*
X143920000Y-81862756D02*
X144040000Y-81862756D01*
X155399000Y-74549000D02*
X155399000Y-75309000D01*
X144280000Y-82763500D02*
X144280000Y-83424244D01*
X143080000Y-82763500D02*
X143080000Y-83424244D01*
X158039000Y-75549000D02*
X158159000Y-75549000D01*
X147360500Y-82763500D02*
X147820119Y-82303880D01*
X165862001Y-74549000D02*
X166243000Y-74929999D01*
X157799000Y-73889000D02*
X157799000Y-74549000D01*
X157439000Y-73649000D02*
X157559000Y-73649000D01*
X156599000Y-73889000D02*
X156599000Y-74549000D01*
X146080000Y-82523500D02*
X146080000Y-82102752D01*
X140781000Y-82763500D02*
X142240000Y-82763500D01*
X147040000Y-82763500D02*
X147360500Y-82763500D01*
X144280000Y-82102756D02*
X144280000Y-82763500D01*
X148414091Y-81709911D02*
X148414090Y-81709910D01*
X155399000Y-73889000D02*
X155399000Y-74309000D01*
X157799000Y-74549000D02*
X157799000Y-75309000D01*
X156599000Y-74549000D02*
X156599000Y-75309000D01*
X148244386Y-81540206D02*
X148414091Y-81709911D01*
X145480000Y-82102753D02*
X145480000Y-82763500D01*
X146680000Y-82102752D02*
X146680000Y-82523500D01*
X157199000Y-74549000D02*
X157199000Y-73889000D01*
X143080000Y-82102756D02*
X143080000Y-82523500D01*
X151638000Y-74549000D02*
X154559000Y-74549000D01*
X146320000Y-81862752D02*
X146440000Y-81862752D01*
X145720000Y-83664248D02*
X145840000Y-83664248D01*
X146920000Y-82763500D02*
X147040000Y-82763500D01*
X149092913Y-81031086D02*
X149098000Y-81026000D01*
X142480000Y-82523500D02*
X142480000Y-82102756D01*
X155639000Y-75549000D02*
X155759000Y-75549000D01*
X149008059Y-81115939D02*
X149092913Y-81031086D01*
X145480000Y-82763500D02*
X145480000Y-83424248D01*
X144880000Y-82102753D02*
G75*
G02*
X145120000Y-81862800I240000J-47D01*
G01*
X147607461Y-81242693D02*
G75*
G02*
X147946873Y-81242693I169706J-169708D01*
G01*
X155759000Y-75549000D02*
G75*
G03*
X155999000Y-75309000I0J240000D01*
G01*
X157799000Y-75309000D02*
G75*
G03*
X158039000Y-75549000I240000J0D01*
G01*
X156959000Y-75549000D02*
G75*
G03*
X157199000Y-75309000I0J240000D01*
G01*
X143680000Y-82102756D02*
G75*
G02*
X143920000Y-81862800I240000J-44D01*
G01*
X155399000Y-75309000D02*
G75*
G03*
X155639000Y-75549000I240000J0D01*
G01*
X158159000Y-75549000D02*
G75*
G03*
X158399000Y-75309000I0J240000D01*
G01*
X145840000Y-83664248D02*
G75*
G03*
X146080048Y-83424248I0J240048D01*
G01*
X144640000Y-83664244D02*
G75*
G03*
X144880044Y-83424244I0J240044D01*
G01*
X157199000Y-73889000D02*
G75*
G02*
X157439000Y-73649000I240000J0D01*
G01*
X147820119Y-82303880D02*
G75*
G03*
X147820094Y-81964494I-169719J169680D01*
G01*
X157559000Y-73649000D02*
G75*
G02*
X157799000Y-73889000I0J-240000D01*
G01*
X145480000Y-83424248D02*
G75*
G03*
X145720000Y-83664200I240000J48D01*
G01*
X143080000Y-83424244D02*
G75*
G03*
X143320000Y-83664200I240000J44D01*
G01*
X156599000Y-75309000D02*
G75*
G03*
X156839000Y-75549000I240000J0D01*
G01*
X154559000Y-74549000D02*
G75*
G03*
X154799000Y-74309000I0J240000D01*
G01*
X144280000Y-83424244D02*
G75*
G03*
X144520000Y-83664200I240000J44D01*
G01*
X144040000Y-81862756D02*
G75*
G02*
X144280044Y-82102756I0J-240044D01*
G01*
X154799000Y-73889000D02*
G75*
G02*
X155039000Y-73649000I240000J0D01*
G01*
X155159000Y-73649000D02*
G75*
G02*
X155399000Y-73889000I0J-240000D01*
G01*
X148881315Y-82177135D02*
G75*
G03*
X149220726Y-82177136I169706J169707D01*
G01*
X158759000Y-73649000D02*
G75*
G02*
X158999000Y-73889000I0J-240000D01*
G01*
X143440000Y-83664244D02*
G75*
G03*
X143680044Y-83424244I0J240044D01*
G01*
X158999000Y-74309000D02*
G75*
G03*
X159239000Y-74549000I240000J0D01*
G01*
X146440000Y-81862752D02*
G75*
G02*
X146680048Y-82102752I0J-240048D01*
G01*
X145240000Y-81862753D02*
G75*
G02*
X145480047Y-82102753I0J-240047D01*
G01*
X146080000Y-82102752D02*
G75*
G02*
X146320000Y-81862800I240000J-48D01*
G01*
X149008059Y-81455350D02*
G75*
G02*
X149008014Y-81115895I169741J169750D01*
G01*
X147522608Y-81666956D02*
G75*
G02*
X147522656Y-81327596I169692J169656D01*
G01*
X155999000Y-73889000D02*
G75*
G02*
X156239000Y-73649000I240000J0D01*
G01*
X146680000Y-82523500D02*
G75*
G03*
X146920000Y-82763500I240000J0D01*
G01*
X156359000Y-73649000D02*
G75*
G02*
X156599000Y-73889000I0J-240000D01*
G01*
X149305579Y-82092281D02*
G75*
G03*
X149305555Y-81752895I-169679J169681D01*
G01*
X142240000Y-82763500D02*
G75*
G03*
X142480000Y-82523500I0J240000D01*
G01*
X158399000Y-73889000D02*
G75*
G02*
X158639000Y-73649000I240000J0D01*
G01*
X142480000Y-82102756D02*
G75*
G02*
X142720000Y-81862800I240000J-44D01*
G01*
X142840000Y-81862756D02*
G75*
G02*
X143080044Y-82102756I0J-240044D01*
G01*
X163953000Y-80137000D02*
X163957000Y-80141000D01*
X163301391Y-83801060D02*
X163216540Y-83885912D01*
X154527000Y-85047911D02*
X154527000Y-84328000D01*
X154887000Y-85287911D02*
X154767000Y-85287911D01*
X155127000Y-84328000D02*
X155127000Y-85047911D01*
X159927000Y-83608089D02*
X159927000Y-84088000D01*
X153927000Y-84328000D02*
X153927000Y-84568000D01*
X162283343Y-82443599D02*
X162622665Y-82782921D01*
X155127000Y-83658101D02*
X155127000Y-84328000D01*
X158127000Y-85047911D02*
X158127000Y-84328000D01*
X162198402Y-83207186D02*
X161859071Y-82867855D01*
X154287000Y-83418101D02*
X154167000Y-83418101D01*
X153327000Y-85047911D02*
X153327000Y-84568000D01*
X163046930Y-82358658D02*
X162707607Y-82019335D01*
X150540586Y-86060415D02*
X150114000Y-86487000D01*
X155727000Y-85047911D02*
X155727000Y-84328000D01*
X159327000Y-84328000D02*
X159327000Y-83658101D01*
X148624000Y-85767065D02*
X148624000Y-86247000D01*
X156327000Y-84328000D02*
X156327000Y-85047911D01*
X150114000Y-86487000D02*
X149464000Y-86487000D01*
X151473968Y-84787619D02*
X151205314Y-84518965D01*
X159327000Y-85047911D02*
X159327000Y-84328000D01*
X163957000Y-81788000D02*
X163386342Y-82358658D01*
X141264500Y-89113500D02*
X140781000Y-89113500D01*
X159927000Y-84328000D02*
X159927000Y-85047911D01*
X158727000Y-83658101D02*
X158727000Y-84328000D01*
X156087000Y-85287911D02*
X155967000Y-85287911D01*
X150865903Y-84518965D02*
X150781050Y-84603817D01*
X157887000Y-83418101D02*
X157767000Y-83418101D01*
X151049703Y-85211882D02*
X151389116Y-85551296D01*
X152967000Y-84328000D02*
X152273000Y-84328000D01*
X151304198Y-86314911D02*
X150964851Y-85975564D01*
X155487000Y-83418101D02*
X155367000Y-83418101D01*
X161417000Y-84328000D02*
X160767000Y-84328000D01*
X157527000Y-83658101D02*
X157527000Y-84328000D01*
X162792372Y-82952628D02*
X163301392Y-83461648D01*
X156327000Y-83658101D02*
X156327000Y-84328000D01*
X148264000Y-86487000D02*
X147010701Y-86487000D01*
X158727000Y-84328000D02*
X158727000Y-85047911D01*
X153927000Y-83658101D02*
X153927000Y-84328000D01*
X160527000Y-84088000D02*
X160527000Y-83608089D01*
X162622665Y-82782921D02*
X162792372Y-82952628D01*
X155727000Y-84328000D02*
X155727000Y-83658101D01*
X161519660Y-82867855D02*
X161434806Y-82952708D01*
X156687000Y-83418101D02*
X156567000Y-83418101D01*
X156927000Y-84328000D02*
X156927000Y-83658101D01*
X159927000Y-84088000D02*
X159927000Y-84328000D01*
X162368196Y-82019335D02*
X162283343Y-82104187D01*
X161689284Y-84055715D02*
X161417000Y-84328000D01*
X151728463Y-86230056D02*
X151643610Y-86314910D01*
X161774136Y-83970860D02*
X161689284Y-84055715D01*
X153087000Y-84328000D02*
X152967000Y-84328000D01*
X160287000Y-83368089D02*
X160167000Y-83368089D01*
X157527000Y-84328000D02*
X157527000Y-85047911D01*
X154527000Y-84328000D02*
X154527000Y-83658101D01*
X157287000Y-85287911D02*
X157167000Y-85287911D01*
X153927000Y-84568000D02*
X153927000Y-85047911D01*
X156927000Y-85047911D02*
X156927000Y-84328000D01*
X149224000Y-86247000D02*
X149224000Y-85767065D01*
X151389116Y-85551296D02*
X151728464Y-85890644D01*
X159087000Y-83418101D02*
X158967000Y-83418101D01*
X161434806Y-83292119D02*
X161774136Y-83631449D01*
X152273000Y-84328000D02*
X151813380Y-84787619D01*
X150781050Y-84943229D02*
X151049703Y-85211882D01*
X143891000Y-86487000D02*
X141264500Y-89113500D01*
X153687000Y-85287911D02*
X153567000Y-85287911D01*
X148984000Y-85527065D02*
X148864000Y-85527065D01*
X150625441Y-85975563D02*
X150540586Y-86060415D01*
X163957000Y-80141000D02*
X163957000Y-81788000D01*
X158487000Y-85287911D02*
X158367000Y-85287911D01*
X140781000Y-88224500D02*
X140781000Y-90002500D01*
X162368109Y-83376893D02*
X162198402Y-83207186D01*
X158127000Y-84328000D02*
X158127000Y-83658101D01*
X162877128Y-83885912D02*
X162368109Y-83376893D01*
X147010701Y-86487000D02*
X143891000Y-86487000D01*
X159687000Y-85287911D02*
X159567000Y-85287911D01*
X148384000Y-86487000D02*
X148264000Y-86487000D01*
X157167000Y-85287911D02*
G75*
G02*
X156926989Y-85047911I0J240011D01*
G01*
X159327000Y-83658101D02*
G75*
G03*
X159087000Y-83418100I-240000J1D01*
G01*
X154527000Y-83658101D02*
G75*
G03*
X154287000Y-83418100I-240000J1D01*
G01*
X149224000Y-85767065D02*
G75*
G03*
X148984000Y-85527100I-240000J-35D01*
G01*
X161774136Y-83631449D02*
G75*
G02*
X161774182Y-83970905I-169736J-169751D01*
G01*
X150964851Y-85975564D02*
G75*
G03*
X150625396Y-85975517I-169751J-169736D01*
G01*
X160527000Y-83608089D02*
G75*
G03*
X160287000Y-83368100I-240000J-11D01*
G01*
X150781050Y-84603817D02*
G75*
G03*
X150781073Y-84943206I169750J-169683D01*
G01*
X158127000Y-83658101D02*
G75*
G03*
X157887000Y-83418100I-240000J1D01*
G01*
X153327000Y-84568000D02*
G75*
G03*
X153087000Y-84328000I-240000J0D01*
G01*
X160167000Y-83368089D02*
G75*
G03*
X159926989Y-83608089I0J-240011D01*
G01*
X156327000Y-85047911D02*
G75*
G02*
X156087000Y-85287900I-240000J11D01*
G01*
X148864000Y-85527065D02*
G75*
G03*
X148623965Y-85767065I0J-240035D01*
G01*
X151205314Y-84518965D02*
G75*
G03*
X150865902Y-84518964I-169706J-169703D01*
G01*
X153567000Y-85287911D02*
G75*
G02*
X153326989Y-85047911I0J240011D01*
G01*
X162283343Y-82104187D02*
G75*
G03*
X162283336Y-82443606I169657J-169713D01*
G01*
X148624000Y-86247000D02*
G75*
G02*
X148384000Y-86487000I-240000J0D01*
G01*
X155367000Y-83418101D02*
G75*
G03*
X155127001Y-83658101I0J-239999D01*
G01*
X155727000Y-83658101D02*
G75*
G03*
X155487000Y-83418100I-240000J1D01*
G01*
X154167000Y-83418101D02*
G75*
G03*
X153927001Y-83658101I0J-239999D01*
G01*
X155127000Y-85047911D02*
G75*
G02*
X154887000Y-85287900I-240000J11D01*
G01*
X155967000Y-85287911D02*
G75*
G02*
X155726989Y-85047911I0J240011D01*
G01*
X149464000Y-86487000D02*
G75*
G02*
X149224000Y-86247000I0J240000D01*
G01*
X156927000Y-83658101D02*
G75*
G03*
X156687000Y-83418100I-240000J1D01*
G01*
X157527000Y-85047911D02*
G75*
G02*
X157287000Y-85287900I-240000J11D01*
G01*
X158727000Y-85047911D02*
G75*
G02*
X158487000Y-85287900I-240000J11D01*
G01*
X162707607Y-82019335D02*
G75*
G03*
X162368195Y-82019334I-169706J-169703D01*
G01*
X161859071Y-82867855D02*
G75*
G03*
X161519659Y-82867854I-169706J-169703D01*
G01*
X157767000Y-83418101D02*
G75*
G03*
X157527001Y-83658101I0J-239999D01*
G01*
X158367000Y-85287911D02*
G75*
G02*
X158126989Y-85047911I0J240011D01*
G01*
X151643610Y-86314910D02*
G75*
G02*
X151304195Y-86314915I-169710J169710D01*
G01*
X163301392Y-83461648D02*
G75*
G02*
X163301438Y-83801106I-169692J-169752D01*
G01*
X159567000Y-85287911D02*
G75*
G02*
X159326989Y-85047911I0J240011D01*
G01*
X154767000Y-85287911D02*
G75*
G02*
X154526989Y-85047911I0J240011D01*
G01*
X159927000Y-85047911D02*
G75*
G02*
X159687000Y-85287900I-240000J11D01*
G01*
X153927000Y-85047911D02*
G75*
G02*
X153687000Y-85287900I-240000J11D01*
G01*
X160767000Y-84328000D02*
G75*
G02*
X160527000Y-84088000I0J240000D01*
G01*
X151728464Y-85890644D02*
G75*
G02*
X151728414Y-86230006I-169664J-169656D01*
G01*
X163216540Y-83885912D02*
G75*
G02*
X162877128Y-83885912I-169706J169701D01*
G01*
X158967000Y-83418101D02*
G75*
G03*
X158727001Y-83658101I0J-239999D01*
G01*
X161434806Y-82952708D02*
G75*
G03*
X161434819Y-83292105I169694J-169692D01*
G01*
X156567000Y-83418101D02*
G75*
G03*
X156327001Y-83658101I0J-239999D01*
G01*
X151813380Y-84787619D02*
G75*
G02*
X151473968Y-84787619I-169706J169704D01*
G01*
X163386342Y-82358658D02*
G75*
G02*
X163046930Y-82358658I-169706J169704D01*
G01*
X140781000Y-80858500D02*
X146623000Y-80858500D01*
X146623000Y-80858500D02*
X146623000Y-80834000D01*
X166866588Y-73279000D02*
X168533000Y-74945412D01*
X147828000Y-79629000D02*
X147828000Y-76327000D01*
X147828000Y-76327000D02*
X150876000Y-73279000D01*
X168533000Y-74945412D02*
X168533000Y-76177000D01*
X150876000Y-73279000D02*
X166866588Y-73279000D01*
X146623000Y-80834000D02*
X147828000Y-79629000D01*
X152781000Y-87249000D02*
X146709500Y-87249000D01*
X156030000Y-85775152D02*
X155910000Y-85775152D01*
X160230000Y-87448839D02*
X160110000Y-87448839D01*
X157470000Y-86487000D02*
X157470000Y-86015169D01*
X164525501Y-83500628D02*
X165035935Y-84011062D01*
X162828469Y-85197711D02*
X163169172Y-85538414D01*
X158670000Y-86487000D02*
X158670000Y-86015169D01*
X165035937Y-84011063D02*
X165546346Y-84521472D01*
X159270000Y-86487000D02*
X159270000Y-87208839D01*
X165546346Y-84860884D02*
X165461493Y-84945738D01*
X165035935Y-84011062D02*
X165035937Y-84011063D01*
X160830000Y-85525161D02*
X160710000Y-85525161D01*
X158070000Y-86487000D02*
X158070000Y-87208839D01*
X161070000Y-86727000D02*
X161070000Y-86487000D01*
X154194801Y-86487000D02*
X153543000Y-86487000D01*
X146709500Y-87249000D02*
X141289000Y-92669500D01*
X161070000Y-87208839D02*
X161070000Y-86727000D01*
X165629907Y-83756508D02*
X165460201Y-83586802D01*
X156630000Y-87448839D02*
X156510000Y-87448839D01*
X161430000Y-87448839D02*
X161310000Y-87448839D01*
X159870000Y-87208839D02*
X159870000Y-86487000D01*
X166243000Y-82804000D02*
X166054171Y-82992829D01*
X159870000Y-86487000D02*
X159870000Y-86015169D01*
X159630000Y-85775169D02*
X159510000Y-85775169D01*
X165460201Y-83586799D02*
X164949766Y-83076364D01*
X160470000Y-86487000D02*
X160470000Y-87208839D01*
X162913323Y-84773447D02*
X162828469Y-84858300D01*
X155430000Y-86487000D02*
X155310000Y-86487000D01*
X165122081Y-84945738D02*
X164611673Y-84435330D01*
X162560000Y-86487000D02*
X161910000Y-86487000D01*
X157470000Y-87208839D02*
X157470000Y-86487000D01*
X157830000Y-87448839D02*
X157710000Y-87448839D01*
X161670000Y-86727000D02*
X161670000Y-87208839D01*
X159030000Y-87448839D02*
X158910000Y-87448839D01*
X141289000Y-92669500D02*
X140781000Y-92669500D01*
X159270000Y-86015169D02*
X159270000Y-86487000D01*
X166243000Y-80137000D02*
X166243000Y-82804000D01*
X164187408Y-84859592D02*
X164697826Y-85370010D01*
X163169172Y-85877825D02*
X163084320Y-85962679D01*
X160470000Y-85765161D02*
X160470000Y-86487000D01*
X158070000Y-86015169D02*
X158070000Y-86487000D01*
X153543000Y-86487000D02*
X152781000Y-87249000D01*
X164187407Y-84859590D02*
X164187408Y-84859592D01*
X156270000Y-87208839D02*
X156270000Y-86487000D01*
X165970605Y-84097206D02*
X165629907Y-83756508D01*
X163763145Y-85283857D02*
X163593438Y-85114150D01*
X156270000Y-86247000D02*
X156270000Y-86015152D01*
X163797212Y-83960277D02*
X163712358Y-84045130D01*
X166054171Y-83332241D02*
X166394870Y-83672940D01*
X156870000Y-86487000D02*
X156870000Y-87208839D01*
X156870000Y-86015169D02*
X156870000Y-86487000D01*
X164273562Y-85794274D02*
X163763145Y-85283857D01*
X164610354Y-83076364D02*
X164525501Y-83161216D01*
X155310000Y-86487000D02*
X154194801Y-86487000D01*
X157230000Y-85775169D02*
X157110000Y-85775169D01*
X165460201Y-83586802D02*
X165460201Y-83586799D01*
X158430000Y-85775169D02*
X158310000Y-85775169D01*
X163084320Y-85962679D02*
X162560000Y-86487000D01*
X163593438Y-85114150D02*
X163252735Y-84773447D01*
X164611673Y-84435330D02*
X164611673Y-84435327D01*
X158670000Y-87208839D02*
X158670000Y-86487000D01*
X156270000Y-86487000D02*
X156270000Y-86247000D01*
X166394870Y-84012352D02*
X166310017Y-84097206D01*
X163712358Y-84384541D02*
X164187407Y-84859590D01*
X161070000Y-86487000D02*
X161070000Y-85765161D01*
X140781000Y-91780500D02*
X140781000Y-93558500D01*
X155670000Y-86015152D02*
X155670000Y-86247000D01*
X164611673Y-84435327D02*
X164136623Y-83960277D01*
X164697825Y-85709422D02*
X164612974Y-85794274D01*
X166310017Y-84097206D02*
G75*
G02*
X165970605Y-84097206I-169706J169708D01*
G01*
X160710000Y-85525161D02*
G75*
G03*
X160469961Y-85765161I0J-240039D01*
G01*
X166394870Y-83672940D02*
G75*
G02*
X166394824Y-84012306I-169670J-169660D01*
G01*
X163252735Y-84773447D02*
G75*
G03*
X162913323Y-84773447I-169706J-169704D01*
G01*
X159270000Y-87208839D02*
G75*
G02*
X159030000Y-87448800I-240000J39D01*
G01*
X164949766Y-83076364D02*
G75*
G03*
X164610354Y-83076364I-169706J-169704D01*
G01*
X161670000Y-87208839D02*
G75*
G02*
X161430000Y-87448800I-240000J39D01*
G01*
X158310000Y-85775169D02*
G75*
G03*
X158069969Y-86015169I0J-240031D01*
G01*
X162828469Y-84858300D02*
G75*
G03*
X162828474Y-85197706I169731J-169700D01*
G01*
X165546346Y-84521472D02*
G75*
G02*
X165546368Y-84860906I-169746J-169728D01*
G01*
X159510000Y-85775169D02*
G75*
G03*
X159269969Y-86015169I0J-240031D01*
G01*
X156510000Y-87448839D02*
G75*
G02*
X156269961Y-87208839I0J240039D01*
G01*
X159870000Y-86015169D02*
G75*
G03*
X159630000Y-85775200I-240000J-31D01*
G01*
X156870000Y-87208839D02*
G75*
G02*
X156630000Y-87448800I-240000J39D01*
G01*
X157470000Y-86015169D02*
G75*
G03*
X157230000Y-85775200I-240000J-31D01*
G01*
X158070000Y-87208839D02*
G75*
G02*
X157830000Y-87448800I-240000J39D01*
G01*
X158670000Y-86015169D02*
G75*
G03*
X158430000Y-85775200I-240000J-31D01*
G01*
X164697826Y-85370010D02*
G75*
G02*
X164697810Y-85709407I-169726J-169690D01*
G01*
X161910000Y-86487000D02*
G75*
G03*
X161670000Y-86727000I0J-240000D01*
G01*
X155910000Y-85775152D02*
G75*
G03*
X155669952Y-86015152I0J-240048D01*
G01*
X163712358Y-84045130D02*
G75*
G03*
X163712393Y-84384506I169742J-169670D01*
G01*
X157110000Y-85775169D02*
G75*
G03*
X156869969Y-86015169I0J-240031D01*
G01*
X160110000Y-87448839D02*
G75*
G02*
X159869961Y-87208839I0J240039D01*
G01*
X164612974Y-85794274D02*
G75*
G02*
X164273562Y-85794274I-169706J169701D01*
G01*
X166054171Y-82992829D02*
G75*
G03*
X166054206Y-83332206I169729J-169671D01*
G01*
X155670000Y-86247000D02*
G75*
G02*
X155430000Y-86487000I-240000J0D01*
G01*
X164525501Y-83161216D02*
G75*
G03*
X164525523Y-83500606I169699J-169684D01*
G01*
X157710000Y-87448839D02*
G75*
G02*
X157469961Y-87208839I0J240039D01*
G01*
X156270000Y-86015152D02*
G75*
G03*
X156030000Y-85775200I-240000J-48D01*
G01*
X160470000Y-87208839D02*
G75*
G02*
X160230000Y-87448800I-240000J39D01*
G01*
X163169172Y-85538414D02*
G75*
G02*
X163169153Y-85877805I-169672J-169686D01*
G01*
X161310000Y-87448839D02*
G75*
G02*
X161069961Y-87208839I0J240039D01*
G01*
X165461493Y-84945738D02*
G75*
G02*
X165122081Y-84945738I-169706J169708D01*
G01*
X164136623Y-83960277D02*
G75*
G03*
X163797211Y-83960276I-169706J-169703D01*
G01*
X158910000Y-87448839D02*
G75*
G02*
X158669961Y-87208839I0J240039D01*
G01*
X161070000Y-85765161D02*
G75*
G03*
X160830000Y-85525200I-240000J-39D01*
G01*
X128716000Y-115021500D02*
X128716000Y-116158500D01*
X121096000Y-112251000D02*
X123636000Y-112251000D01*
X124652000Y-114132500D02*
X127827000Y-114132500D01*
X127827000Y-114132500D02*
X128716000Y-115021500D01*
X123636000Y-113116500D02*
X124652000Y-114132500D01*
X123636000Y-112251000D02*
X123636000Y-113116500D01*
X126616000Y-117874500D02*
X126616000Y-118958500D01*
X116016000Y-112251000D02*
X118556000Y-112251000D01*
X119953000Y-114513500D02*
X123255000Y-114513500D01*
X123255000Y-114513500D02*
X126616000Y-117874500D01*
X118556000Y-112251000D02*
X118556000Y-113116500D01*
X118556000Y-113116500D02*
X119953000Y-114513500D01*
X131256000Y-112251000D02*
X133796000Y-112251000D01*
X134050000Y-113370500D02*
X146877000Y-113370500D01*
X133796000Y-113116500D02*
X134050000Y-113370500D01*
X133796000Y-112251000D02*
X133796000Y-113116500D01*
X151217000Y-117710500D02*
X151217000Y-118958500D01*
X146877000Y-113370500D02*
X151217000Y-117710500D01*
X145988000Y-120609500D02*
X153735000Y-120609500D01*
X154618000Y-116158500D02*
X153317000Y-116158500D01*
X126176000Y-112251000D02*
X128716000Y-112251000D01*
X154878000Y-116418500D02*
X154618000Y-116158500D01*
X154878000Y-119466500D02*
X154878000Y-116418500D01*
X139130000Y-113751500D02*
X145988000Y-120609500D01*
X128716000Y-112251000D02*
X128716000Y-113116500D01*
X153735000Y-120609500D02*
X154878000Y-119466500D01*
X128716000Y-113116500D02*
X129351000Y-113751500D01*
X129351000Y-113751500D02*
X139130000Y-113751500D01*
X192004750Y-98278750D02*
X192004750Y-96225500D01*
X192024000Y-98298000D02*
X192004750Y-98278750D01*
X213211500Y-98044000D02*
X213933000Y-98765500D01*
X196404750Y-90225500D02*
X196404750Y-88988750D01*
X196534000Y-88859500D02*
X209128500Y-88859500D01*
X209931000Y-96033500D02*
X211941500Y-98044000D01*
X209128500Y-88859500D02*
X209931000Y-89662000D01*
X211941500Y-98044000D02*
X213211500Y-98044000D01*
X209931000Y-89662000D02*
X209931000Y-96033500D01*
X213933000Y-98765500D02*
X213933000Y-99390500D01*
X196404750Y-88988750D02*
X196534000Y-88859500D01*
X213933000Y-99390500D02*
X215376000Y-100833500D01*
X209931000Y-106565250D02*
X209931000Y-104775500D01*
X198541000Y-109268500D02*
X198541000Y-107934500D01*
X194121000Y-113307000D02*
X195454500Y-111973500D01*
X198541000Y-111363500D02*
X198541000Y-110012052D01*
X195454500Y-111973500D02*
X197931000Y-111973500D01*
X194141000Y-115268500D02*
X194121000Y-115248500D01*
X209308250Y-107188000D02*
X209931000Y-106565250D01*
X194121000Y-115248500D02*
X194121000Y-113307000D01*
X209931000Y-104775500D02*
X212512000Y-102194500D01*
X198541000Y-107934500D02*
X199287500Y-107188000D01*
X199287500Y-107188000D02*
X209308250Y-107188000D01*
X197931000Y-111973500D02*
X198541000Y-111363500D01*
X215136000Y-98063500D02*
X215330000Y-98257500D01*
X196404750Y-97747250D02*
X196404750Y-96225500D01*
X196712250Y-98054750D02*
X196404750Y-97747250D01*
X198541000Y-112633500D02*
X199836000Y-111338500D01*
X193105000Y-112501500D02*
X193105000Y-116164500D01*
X199836000Y-111338500D02*
X199836000Y-108036500D01*
X200303500Y-107569000D02*
X209498750Y-107569000D01*
X211733000Y-103591500D02*
X212790000Y-103591500D01*
X210312000Y-106755750D02*
X210312000Y-105012500D01*
X212790000Y-103591500D02*
X213636000Y-102745500D01*
X193105000Y-116164500D02*
X193613000Y-116672500D01*
X195264000Y-113878500D02*
X196509000Y-112633500D01*
X198541000Y-115268500D02*
X198541000Y-112633500D01*
X210312000Y-105012500D02*
X211733000Y-103591500D01*
X194141000Y-109268500D02*
X194141000Y-111465500D01*
X213636000Y-100548500D02*
X212536000Y-99448500D01*
X213636000Y-102745500D02*
X213636000Y-100548500D01*
X196509000Y-112633500D02*
X198541000Y-112633500D01*
X194756000Y-116672500D02*
X195264000Y-116164500D01*
X195264000Y-116164500D02*
X195264000Y-113878500D01*
X194141000Y-111465500D02*
X193105000Y-112501500D01*
X209498750Y-107569000D02*
X210312000Y-106755750D01*
X199836000Y-108036500D02*
X200303500Y-107569000D01*
X193613000Y-116672500D02*
X194756000Y-116672500D01*
X193137750Y-90558500D02*
X193137750Y-91193500D01*
X209308250Y-88478500D02*
X210312000Y-89482250D01*
X192004750Y-90225500D02*
X192804750Y-90225500D01*
X195772000Y-88478500D02*
X209308250Y-88478500D01*
X193137750Y-91193500D02*
X193772750Y-91828500D01*
X192804750Y-90225500D02*
X193137750Y-90558500D01*
X210312000Y-94454500D02*
X212536000Y-96678500D01*
X194581000Y-91828500D02*
X195264000Y-91145500D01*
X193772750Y-91828500D02*
X194581000Y-91828500D01*
X195264000Y-88986500D02*
X195772000Y-88478500D01*
X210312000Y-89482250D02*
X210312000Y-94454500D01*
X195264000Y-91145500D02*
X195264000Y-88986500D01*
X160720000Y-104988500D02*
X158688000Y-102956500D01*
X158688000Y-102321500D02*
X158434000Y-102067500D01*
X164276000Y-104988500D02*
X160720000Y-104988500D01*
X158434000Y-102067500D02*
X157226000Y-102067500D01*
X197162000Y-115268500D02*
X196341000Y-115268500D01*
X182056000Y-106239500D02*
X182037000Y-106258500D01*
X158688000Y-102956500D02*
X158688000Y-102321500D01*
X197550000Y-116418500D02*
X197550000Y-115656500D01*
X165546000Y-106258500D02*
X164276000Y-104988500D01*
X197550000Y-115656500D02*
X197162000Y-115268500D01*
X182037000Y-106258500D02*
X165546000Y-106258500D01*
X158434000Y-103337500D02*
X157226000Y-103337500D01*
X165591552Y-106766500D02*
X164194552Y-105369500D01*
X196087000Y-107589500D02*
X196026000Y-107528500D01*
X183326000Y-106258500D02*
X182818000Y-106766500D01*
X160466000Y-105369500D02*
X158434000Y-103337500D01*
X196026000Y-107528500D02*
X196341000Y-107843500D01*
X196341000Y-107843500D02*
X196341000Y-109268500D01*
X164194552Y-105369500D02*
X160466000Y-105369500D01*
X182818000Y-106766500D02*
X165591552Y-106766500D01*
X180583500Y-107401500D02*
X184555276Y-107401500D01*
X179440500Y-111973500D02*
X180050500Y-111363500D01*
X188976000Y-91210500D02*
X191327000Y-88859500D01*
X194121000Y-88859500D02*
X194204750Y-88943250D01*
X180050500Y-111363500D02*
X180050500Y-107934500D01*
X194204750Y-88943250D02*
X194204750Y-90225500D01*
X180050500Y-107934500D02*
X180583500Y-107401500D01*
X175650500Y-113223500D02*
X176900500Y-111973500D01*
X175650500Y-115268500D02*
X175650500Y-113223500D01*
X184555276Y-107401500D02*
X188976000Y-102980776D01*
X176900500Y-111973500D02*
X179440500Y-111973500D01*
X188976000Y-102980776D02*
X188976000Y-91210500D01*
X191327000Y-88859500D02*
X194121000Y-88859500D01*
X179948500Y-112608500D02*
X180075500Y-112608500D01*
X176773500Y-113243500D02*
X177408500Y-112608500D01*
X175122500Y-116672500D02*
X176265500Y-116672500D01*
X180050500Y-115268500D02*
X180050500Y-112710500D01*
X189230000Y-103275500D02*
X189230000Y-103190638D01*
X191117336Y-94828500D02*
X193994000Y-94828500D01*
X176773500Y-116164500D02*
X176773500Y-113243500D01*
X189304000Y-96641836D02*
X191117336Y-94828500D01*
X194204750Y-95039250D02*
X194204750Y-96225500D01*
X180050500Y-112710500D02*
X179948500Y-112608500D01*
X174614500Y-112481500D02*
X174614500Y-116164500D01*
X181345500Y-108163500D02*
X181726500Y-107782500D01*
X181345500Y-111338500D02*
X181345500Y-108163500D01*
X175650500Y-109268500D02*
X175650500Y-111445500D01*
X184723000Y-107782500D02*
X189230000Y-103275500D01*
X189304000Y-103116638D02*
X189304000Y-96641836D01*
X177408500Y-112608500D02*
X179948500Y-112608500D01*
X175650500Y-111445500D02*
X174614500Y-112481500D01*
X180075500Y-112608500D02*
X181345500Y-111338500D01*
X174614500Y-116164500D02*
X175122500Y-116672500D01*
X189230000Y-103190638D02*
X189304000Y-103116638D01*
X181726500Y-107782500D02*
X184723000Y-107782500D01*
X193994000Y-94828500D02*
X194204750Y-95039250D01*
X176265500Y-116672500D02*
X176773500Y-116164500D01*
X152276000Y-108417500D02*
X150687000Y-108417500D01*
X170480000Y-111573500D02*
X174287500Y-115381000D01*
X177411000Y-116999500D02*
X177850500Y-116560000D01*
X177850500Y-116560000D02*
X177850500Y-115268500D01*
X166162000Y-111573500D02*
X170480000Y-111573500D01*
X162117000Y-107528500D02*
X166162000Y-111573500D01*
X174287500Y-115381000D02*
X174287500Y-116299948D01*
X161736000Y-107528500D02*
X162117000Y-107528500D01*
X150687000Y-108417500D02*
X150306000Y-108798500D01*
X174987052Y-116999500D02*
X177411000Y-116999500D01*
X174287500Y-116299948D02*
X174987052Y-116999500D01*
X177850500Y-107970500D02*
X177850500Y-109268500D01*
X164149000Y-106258500D02*
X165165000Y-107274500D01*
X153989000Y-107528500D02*
X153608000Y-107147500D01*
X177154500Y-107274500D02*
X177850500Y-107970500D01*
X154116000Y-107528500D02*
X153989000Y-107528500D01*
X161736000Y-106258500D02*
X164149000Y-106258500D01*
X153608000Y-107147500D02*
X152276000Y-107147500D01*
X165165000Y-107274500D02*
X177154500Y-107274500D01*
X100121000Y-114433500D02*
X96386000Y-114433500D01*
X96386000Y-114433500D02*
X96311000Y-114508500D01*
X103824000Y-113497500D02*
X104386000Y-112935500D01*
X99794295Y-108612705D02*
X96311000Y-112096000D01*
X95711000Y-96473500D02*
X95711000Y-95678000D01*
X95711000Y-95678000D02*
X95885000Y-95504000D01*
X95885000Y-95504000D02*
X97641500Y-95504000D01*
X106056000Y-112935500D02*
X106618000Y-113497500D01*
X96311000Y-112608500D02*
X96311000Y-113075000D01*
X95711000Y-96113500D02*
X95711000Y-96673500D01*
X99794295Y-97656795D02*
X99794295Y-108612705D01*
X97641500Y-95504000D02*
X99794295Y-97656795D01*
X96311000Y-112096000D02*
X96311000Y-112608500D01*
X96733500Y-113497500D02*
X103824000Y-113497500D01*
X104386000Y-112935500D02*
X106056000Y-112935500D01*
X110149500Y-112608500D02*
X110916000Y-112608500D01*
X106618000Y-113497500D02*
X109260500Y-113497500D01*
X96311000Y-113075000D02*
X96733500Y-113497500D01*
X95696000Y-96098500D02*
X95711000Y-96113500D01*
X109260500Y-113497500D02*
X110149500Y-112608500D01*
X110916000Y-114433500D02*
X107181000Y-114433500D01*
X107181000Y-114433500D02*
X107106000Y-114508500D01*
X100121295Y-97521347D02*
X96793448Y-94193500D01*
X96793448Y-94193500D02*
X94219000Y-94193500D01*
X100121000Y-112608500D02*
X107106000Y-112608500D01*
X100121000Y-112608500D02*
X100121295Y-112608205D01*
X94219000Y-94193500D02*
X93711000Y-94701500D01*
X100121295Y-112608205D02*
X100121295Y-97521347D01*
X93711000Y-94701500D02*
X93711000Y-96673500D01*
X133796000Y-96098500D02*
X134431000Y-96733500D01*
X105231000Y-113558500D02*
X105221000Y-113548500D01*
X135701000Y-96733500D02*
X131356000Y-96733500D01*
X131356000Y-96733500D02*
X131356000Y-96693500D01*
X134431000Y-96733500D02*
X135701000Y-96733500D01*
X135574000Y-86446500D02*
X138956000Y-86446500D01*
X134418185Y-86446500D02*
X134418185Y-86660364D01*
X131116000Y-86446500D02*
X133483185Y-86446500D01*
X133910883Y-86018802D02*
X134204336Y-86018802D01*
X134418185Y-86232651D02*
X134418185Y-86446500D01*
X135322049Y-86446500D02*
X135553185Y-86446500D01*
X135553185Y-86446500D02*
X135574000Y-86446500D01*
X134632049Y-86874228D02*
X134894321Y-86874228D01*
X133697034Y-86232651D02*
G75*
G02*
X133910883Y-86018834I213866J-49D01*
G01*
X133483185Y-86446500D02*
G75*
G03*
X133697000Y-86232651I15J213800D01*
G01*
X135108185Y-86660364D02*
G75*
G02*
X135322049Y-86446585I213815J-36D01*
G01*
X134894321Y-86874228D02*
G75*
G03*
X135108128Y-86660364I-21J213828D01*
G01*
X134204336Y-86018802D02*
G75*
G02*
X134418198Y-86232651I-36J-213898D01*
G01*
X134418185Y-86660364D02*
G75*
G03*
X134632049Y-86874215I213815J-36D01*
G01*
X134797081Y-82723500D02*
X136169000Y-82723500D01*
X138869000Y-84755500D02*
X138956000Y-84668500D01*
X131116000Y-82723500D02*
X133524629Y-82723500D01*
X133835077Y-82413052D02*
X134124629Y-82413052D01*
X134435077Y-82723500D02*
X134724629Y-82723500D01*
X138114000Y-84668500D02*
X138956000Y-84668500D01*
X134724629Y-82723500D02*
X134797081Y-82723500D01*
X136169000Y-82723500D02*
X138114000Y-84668500D01*
X133679853Y-82568276D02*
G75*
G02*
X133835077Y-82413053I155247J-24D01*
G01*
X134279853Y-82568276D02*
G75*
G03*
X134435077Y-82723547I155247J-24D01*
G01*
X134124629Y-82413052D02*
G75*
G02*
X134279848Y-82568276I-29J-155248D01*
G01*
X133524629Y-82723500D02*
G75*
G03*
X133679800Y-82568276I-29J155200D01*
G01*
X135236783Y-90256500D02*
X135318589Y-90256500D01*
X135026249Y-90256500D02*
X135236783Y-90256500D01*
X134231783Y-90256500D02*
X134231783Y-90450966D01*
X134426249Y-90645432D02*
X134637317Y-90645432D01*
X137860000Y-90256500D02*
X138114000Y-90002500D01*
X131116000Y-90256500D02*
X133436783Y-90256500D01*
X134231783Y-90062049D02*
X134231783Y-90256500D01*
X138114000Y-90002500D02*
X138956000Y-90002500D01*
X133825685Y-89867598D02*
X134037332Y-89867598D01*
X135318589Y-90256500D02*
X137860000Y-90256500D01*
X133631234Y-90062049D02*
G75*
G02*
X133825685Y-89867534I194466J49D01*
G01*
X134637317Y-90645432D02*
G75*
G03*
X134831732Y-90450966I-17J194432D01*
G01*
X134231783Y-90450966D02*
G75*
G03*
X134426249Y-90645417I194417J-34D01*
G01*
X134831783Y-90450966D02*
G75*
G02*
X135026249Y-90256583I194417J-34D01*
G01*
X133436783Y-90256500D02*
G75*
G03*
X133631200Y-90062049I17J194400D01*
G01*
X134037332Y-89867598D02*
G75*
G02*
X134231702Y-90062049I-32J-194402D01*
G01*
X138114000Y-88224500D02*
X138956000Y-88224500D01*
X134419762Y-89297768D02*
X134708494Y-89297768D01*
X137352000Y-88986500D02*
X138114000Y-88224500D01*
X134264128Y-88986500D02*
X134264128Y-89142134D01*
X131116000Y-88986500D02*
X133484128Y-88986500D01*
X135320000Y-88986500D02*
X137352000Y-88986500D01*
X134264128Y-88830851D02*
X134264128Y-88986500D01*
X135019762Y-88986500D02*
X135284128Y-88986500D01*
X133795426Y-88675202D02*
X134108479Y-88675202D01*
X135284128Y-88986500D02*
X135320000Y-88986500D01*
X134864128Y-89142134D02*
G75*
G02*
X135019762Y-88986428I155672J34D01*
G01*
X134108479Y-88675202D02*
G75*
G02*
X134264198Y-88830851I21J-155698D01*
G01*
X134708494Y-89297768D02*
G75*
G03*
X134864168Y-89142134I6J155668D01*
G01*
X134264128Y-89142134D02*
G75*
G03*
X134419762Y-89297772I155672J34D01*
G01*
X133484128Y-88986500D02*
G75*
G03*
X133639800Y-88830851I-28J155700D01*
G01*
X133639777Y-88830851D02*
G75*
G02*
X133795426Y-88675277I155623J-49D01*
G01*
X134029530Y-95423500D02*
X134050000Y-95423500D01*
X133953530Y-95423500D02*
X134029530Y-95423500D01*
X134050000Y-95423500D02*
X134725000Y-95423500D01*
X133573530Y-95099234D02*
X133649530Y-95099234D01*
X133421530Y-95271500D02*
X133421530Y-95251234D01*
X131116000Y-95423500D02*
X133269530Y-95423500D01*
X136590000Y-93558500D02*
X138956000Y-93558500D01*
X133801530Y-95251234D02*
X133801530Y-95271500D01*
X134725000Y-95423500D02*
X136590000Y-93558500D01*
X133421530Y-95251234D02*
G75*
G02*
X133573530Y-95099230I151970J34D01*
G01*
X133649530Y-95099234D02*
G75*
G02*
X133801466Y-95251234I-30J-151966D01*
G01*
X133269530Y-95423500D02*
G75*
G03*
X133421500Y-95271500I-30J152000D01*
G01*
X133801530Y-95271500D02*
G75*
G03*
X133953530Y-95423470I151970J0D01*
G01*
X134902016Y-91526500D02*
X135102591Y-91526500D01*
X138114000Y-91780500D02*
X138956000Y-91780500D01*
X137860000Y-91526500D02*
X138114000Y-91780500D01*
X134107591Y-91526500D02*
X134107591Y-91720925D01*
X131116000Y-91526500D02*
X133302591Y-91526500D01*
X133691453Y-91137638D02*
X133913160Y-91137638D01*
X135193000Y-91526500D02*
X137860000Y-91526500D01*
X135102591Y-91526500D02*
X135193000Y-91526500D01*
X134107591Y-91332069D02*
X134107591Y-91526500D01*
X134302016Y-91915350D02*
X134513166Y-91915350D01*
X134707591Y-91720925D02*
G75*
G02*
X134902016Y-91526491I194409J25D01*
G01*
X134513166Y-91915350D02*
G75*
G03*
X134707650Y-91720925I34J194450D01*
G01*
X133497022Y-91332069D02*
G75*
G02*
X133691453Y-91137622I194478J-31D01*
G01*
X133302591Y-91526500D02*
G75*
G03*
X133497000Y-91332069I9J194400D01*
G01*
X134107591Y-91720925D02*
G75*
G03*
X134302016Y-91915309I194409J25D01*
G01*
X133913160Y-91137638D02*
G75*
G02*
X134107662Y-91332069I40J-194462D01*
G01*
X134326291Y-81110378D02*
X134326291Y-81122500D01*
X134570291Y-81366500D02*
X134692291Y-81366500D01*
X131116000Y-81366500D02*
X133472291Y-81366500D01*
X136844000Y-81366500D02*
X138241000Y-82763500D01*
X134958241Y-81366500D02*
X136844000Y-81366500D01*
X134692291Y-81366500D02*
X134958241Y-81366500D01*
X138241000Y-82763500D02*
X138956000Y-82763500D01*
X133716291Y-81122500D02*
X133716291Y-81110378D01*
X131356000Y-81493500D02*
X131356000Y-81453500D01*
X133960291Y-80866378D02*
X134082291Y-80866378D01*
X134326291Y-81122500D02*
G75*
G03*
X134570291Y-81366509I244009J0D01*
G01*
X133472291Y-81366500D02*
G75*
G03*
X133716300Y-81122500I9J244000D01*
G01*
X134082291Y-80866378D02*
G75*
G02*
X134326322Y-81110378I9J-244022D01*
G01*
X133716291Y-81110378D02*
G75*
G02*
X133960291Y-80866391I244009J-22D01*
G01*
X139892000Y-81794500D02*
X138956000Y-80858500D01*
X136971000Y-99452200D02*
X136971000Y-97241500D01*
X126816000Y-98103500D02*
X126816000Y-98977600D01*
X139892000Y-94320500D02*
X139892000Y-81794500D01*
X128371600Y-100533200D02*
X135890000Y-100533200D01*
X126816000Y-98977600D02*
X128371600Y-100533200D01*
X135890000Y-100533200D02*
X136971000Y-99452200D01*
X136971000Y-97241500D02*
X139892000Y-94320500D01*
X108904000Y-107655500D02*
X108904000Y-91653500D01*
X108904000Y-91653500D02*
X110214000Y-90343500D01*
X123636000Y-110426000D02*
X122872000Y-110426000D01*
X121552500Y-109106500D02*
X110355000Y-109106500D01*
X110355000Y-109106500D02*
X108904000Y-107655500D01*
X122872000Y-110426000D02*
X121552500Y-109106500D01*
X110214000Y-90343500D02*
X113376000Y-90343500D01*
X108542000Y-91507500D02*
X110976000Y-89073500D01*
X108542000Y-107928500D02*
X108542000Y-91507500D01*
X110047000Y-109433500D02*
X108542000Y-107928500D01*
X116788750Y-109433500D02*
X110047000Y-109433500D01*
X118556000Y-110426000D02*
X117781250Y-110426000D01*
X110976000Y-89073500D02*
X113376000Y-89073500D01*
X117781250Y-110426000D02*
X116788750Y-109433500D01*
X112436500Y-92883500D02*
X113376000Y-92883500D01*
X127396500Y-109106500D02*
X123481552Y-109106500D01*
X128716000Y-110426000D02*
X127396500Y-109106500D01*
X111444000Y-97068948D02*
X111444000Y-93876000D01*
X111444000Y-93876000D02*
X112436500Y-92883500D01*
X123481552Y-109106500D02*
X111444000Y-97068948D01*
X132149500Y-108779500D02*
X123617000Y-108779500D01*
X112500000Y-94153500D02*
X113376000Y-94153500D01*
X133796000Y-110426000D02*
X132149500Y-108779500D01*
X123617000Y-108779500D02*
X111825000Y-96987500D01*
X111825000Y-94828500D02*
X112500000Y-94153500D01*
X111825000Y-96987500D02*
X111825000Y-94828500D01*
X166176000Y-91507185D02*
X166152500Y-91530685D01*
X110976000Y-91613500D02*
X113616000Y-91613500D01*
X114746000Y-103718500D02*
X110174000Y-99146500D01*
X140400000Y-102829500D02*
X140400000Y-98384500D01*
X140400000Y-98384500D02*
X147253815Y-91530685D01*
X110174000Y-92415500D02*
X110976000Y-91613500D01*
X124906000Y-103718500D02*
X139511000Y-103718500D01*
X110174000Y-99146500D02*
X110174000Y-92415500D01*
X147253815Y-91530685D02*
X166152500Y-91530685D01*
X139511000Y-103718500D02*
X140400000Y-102829500D01*
X112587000Y-85176500D02*
X113616000Y-85176500D01*
X86806000Y-108798500D02*
X85536000Y-107528500D01*
X85536000Y-107528500D02*
X84266000Y-107528500D01*
X112587000Y-85177400D02*
X107492800Y-90271600D01*
X107492800Y-90271600D02*
X106373300Y-90271600D01*
X106373300Y-91488900D02*
X106375200Y-91490800D01*
X106373300Y-90271600D02*
X106373300Y-91488900D01*
X113616000Y-85176500D02*
X113616000Y-85263500D01*
X112587000Y-85176500D02*
X112587000Y-85177400D01*
X93726000Y-108585000D02*
X94361000Y-108585000D01*
X94211000Y-102720000D02*
X94211000Y-101573500D01*
X94742000Y-108204000D02*
X94742000Y-103251000D01*
X94361000Y-108585000D02*
X94742000Y-108204000D01*
X94742000Y-103251000D02*
X94211000Y-102720000D01*
X128783000Y-97943500D02*
X128086000Y-97943500D01*
X129478000Y-98638500D02*
X128783000Y-97943500D01*
X133796000Y-98638500D02*
X129478000Y-98638500D01*
X159958000Y-110559790D02*
X159941290Y-110576500D01*
X158434000Y-104607500D02*
X159958000Y-106131500D01*
X112500000Y-86533500D02*
X113616000Y-86533500D01*
X159958000Y-111338500D02*
X161482000Y-112862500D01*
X164149000Y-113116500D02*
X164149000Y-113878500D01*
X161482000Y-112862500D02*
X163895000Y-112862500D01*
X163895000Y-112862500D02*
X164149000Y-113116500D01*
X159958000Y-106131500D02*
X159958000Y-110559790D01*
X157226000Y-104607500D02*
X158434000Y-104607500D01*
X159958000Y-110559790D02*
X159958000Y-111338500D01*
X107315000Y-107823000D02*
X107315000Y-91718500D01*
X107315000Y-91718500D02*
X112500000Y-86533500D01*
X132470854Y-84850646D02*
X132058000Y-85263500D01*
X94715774Y-94798219D02*
X94715774Y-95616726D01*
X132058000Y-85263500D02*
X131116000Y-85263500D01*
X94711000Y-95621500D02*
X94711000Y-96673500D01*
X94715774Y-95616726D02*
X94711000Y-95621500D01*
X132470854Y-84668500D02*
X132470854Y-84850646D01*
X122533500Y-106680000D02*
X131059943Y-106680000D01*
X158815000Y-107147500D02*
X159196000Y-107528500D01*
X168213000Y-114767500D02*
X167959000Y-114513500D01*
X157226000Y-107147500D02*
X158815000Y-107147500D01*
X117926000Y-97943500D02*
X117926000Y-102072500D01*
X134325500Y-106661000D02*
X137606000Y-109941500D01*
X153227000Y-109941500D02*
X156021000Y-107147500D01*
X131078943Y-106661000D02*
X134325500Y-106661000D01*
X159196000Y-107528500D02*
X159196000Y-108796210D01*
X171261000Y-113116500D02*
X171261000Y-114390491D01*
X170883991Y-114767500D02*
X168213000Y-114767500D01*
X131059943Y-106680000D02*
X131078943Y-106661000D01*
X137606000Y-109941500D02*
X153227000Y-109941500D01*
X164840290Y-111900500D02*
X170045000Y-111900500D01*
X171261000Y-114390491D02*
X170883991Y-114767500D01*
X161736000Y-108796210D02*
X164840290Y-111900500D01*
X167959000Y-114513500D02*
X167959000Y-113878500D01*
X170045000Y-111900500D02*
X171261000Y-113116500D01*
X117926000Y-102072500D02*
X122533500Y-106680000D01*
X156021000Y-107147500D02*
X157226000Y-107147500D01*
X111738000Y-87803500D02*
X113616000Y-87803500D01*
X158031000Y-110049500D02*
X157226000Y-109244500D01*
X169610000Y-112227500D02*
X170499000Y-113116500D01*
X107950000Y-91591500D02*
X111738000Y-87803500D01*
X164484448Y-112227500D02*
X169610000Y-112227500D01*
X163876000Y-112208500D02*
X164465448Y-112208500D01*
X170499000Y-113116500D02*
X170499000Y-113878500D01*
X107950000Y-107188000D02*
X107950000Y-91591500D01*
X159196000Y-110049500D02*
X158031000Y-110049500D01*
X161736000Y-110068500D02*
X163876000Y-112208500D01*
X157226000Y-109244500D02*
X157226000Y-108417500D01*
X164465448Y-112208500D02*
X164484448Y-112227500D01*
X132526000Y-83525500D02*
X132058000Y-83993500D01*
X132058000Y-83993500D02*
X131116000Y-83993500D01*
X132526000Y-83398500D02*
X132526000Y-83525500D01*
X95631000Y-94811800D02*
X95211000Y-95231800D01*
X95211000Y-95231800D02*
X95211000Y-96673500D01*
X164149000Y-116418500D02*
X163768000Y-116799500D01*
X164149000Y-115703500D02*
X164149000Y-116418500D01*
X163514000Y-120228500D02*
X162498000Y-120228500D01*
X163768000Y-116799500D02*
X163768000Y-119974500D01*
X163768000Y-119974500D02*
X163514000Y-120228500D01*
X160974000Y-122387500D02*
X161355000Y-122768500D01*
X161609000Y-115703500D02*
X161609000Y-116418500D01*
X160974000Y-117053500D02*
X160974000Y-122387500D01*
X161355000Y-122768500D02*
X162498000Y-122768500D01*
X161609000Y-116418500D02*
X160974000Y-117053500D01*
X167324000Y-122387500D02*
X167705000Y-122768500D01*
X167959000Y-116418500D02*
X167324000Y-117053500D01*
X167324000Y-117053500D02*
X167324000Y-122387500D01*
X167959000Y-115703500D02*
X167959000Y-116418500D01*
X167705000Y-122768500D02*
X168848000Y-122768500D01*
X170499000Y-116418500D02*
X170118000Y-116799500D01*
X170118000Y-116799500D02*
X170118000Y-119866500D01*
X169756000Y-120228500D02*
X168848000Y-120228500D01*
X170499000Y-115703500D02*
X170499000Y-116418500D01*
X170118000Y-119866500D02*
X169756000Y-120228500D01*
X90616000Y-99908500D02*
X90901000Y-99623500D01*
X89776000Y-79588500D02*
X89776000Y-79324500D01*
X89776000Y-79324500D02*
X90626000Y-78474500D01*
X90626000Y-78474500D02*
X90626000Y-78238500D01*
X90901000Y-99623500D02*
X92761000Y-99623500D01*
D61*
X193523000Y-78408500D02*
X195236000Y-78408500D01*
X186749815Y-92841184D02*
X186749815Y-87716500D01*
X186749815Y-85181685D02*
X193523000Y-78408500D01*
X186749815Y-87716500D02*
X186749815Y-85181685D01*
X186667499Y-92923500D02*
X186749815Y-92841184D01*
D62*
X93726000Y-104013000D02*
X93726000Y-106299000D01*
X93711000Y-103998000D02*
X93726000Y-104013000D01*
X93711000Y-101773500D02*
X93711000Y-103998000D01*
D61*
X195159000Y-119911500D02*
X194232500Y-120838000D01*
X200770500Y-117983000D02*
X201392000Y-118604500D01*
X195159000Y-118260500D02*
X195436500Y-117983000D01*
X198693000Y-119933500D02*
X198230500Y-120396000D01*
X203835000Y-124841000D02*
X205580000Y-123096000D01*
X195436500Y-117983000D02*
X200770500Y-117983000D01*
X199821853Y-124002853D02*
X200660000Y-124841000D01*
X201392000Y-118604500D02*
X201392000Y-119933500D01*
X194232500Y-120838000D02*
X194232500Y-121871500D01*
X195159000Y-118999000D02*
X195159000Y-118260500D01*
X198230500Y-120396000D02*
X198230500Y-121531294D01*
X195159000Y-118999000D02*
X195159000Y-119911500D01*
X205580000Y-123096000D02*
X206694000Y-123096000D01*
X200660000Y-124841000D02*
X203835000Y-124841000D01*
X198230500Y-121531294D02*
X199821853Y-123122647D01*
X199821853Y-123122647D02*
X199821853Y-124002853D01*
X201392000Y-119933500D02*
X198693000Y-119933500D01*
X180351500Y-119908500D02*
X179864000Y-120396000D01*
X182977000Y-118683000D02*
X182977000Y-119908500D01*
X182277000Y-117983000D02*
X182977000Y-118683000D01*
X177070000Y-117983000D02*
X182277000Y-117983000D01*
X175866000Y-121871500D02*
X175866000Y-120838000D01*
X187165000Y-123096000D02*
X188279000Y-123096000D01*
X181356000Y-123952000D02*
X182245000Y-124841000D01*
X181356000Y-123031000D02*
X181356000Y-123952000D01*
X179864000Y-120396000D02*
X179864000Y-121539000D01*
X185420000Y-124841000D02*
X187165000Y-123096000D01*
X176792500Y-118999000D02*
X176792500Y-118260500D01*
X179864000Y-121539000D02*
X181356000Y-123031000D01*
X176792500Y-119911500D02*
X176792500Y-118999000D01*
X176792500Y-118260500D02*
X177070000Y-117983000D01*
X182977000Y-119908500D02*
X180351500Y-119908500D01*
X182245000Y-124841000D02*
X185420000Y-124841000D01*
X175866000Y-120838000D02*
X176792500Y-119911500D01*
X203421000Y-104046000D02*
X204662000Y-104046000D01*
X198309000Y-106045000D02*
X201422000Y-106045000D01*
X201422000Y-106045000D02*
X203421000Y-104046000D01*
X193078500Y-100203000D02*
X193078500Y-100988500D01*
X192152000Y-101915000D02*
X192152000Y-103075500D01*
X199263000Y-101133000D02*
X196744000Y-101133000D01*
X193078500Y-99464500D02*
X193356000Y-99187000D01*
X197801000Y-105537000D02*
X198309000Y-106045000D01*
X198436000Y-99187000D02*
X199263000Y-100014000D01*
X193078500Y-100203000D02*
X193078500Y-99464500D01*
X196744000Y-101133000D02*
X196150000Y-101727000D01*
X196150000Y-101727000D02*
X196150000Y-102528457D01*
X193078500Y-100988500D02*
X192152000Y-101915000D01*
X196150000Y-102528457D02*
X197801000Y-104179457D01*
X197801000Y-104179457D02*
X197801000Y-105537000D01*
X193356000Y-99187000D02*
X198436000Y-99187000D01*
X199263000Y-100014000D02*
X199263000Y-101133000D01*
D62*
X193167000Y-122301000D02*
X193864272Y-122998272D01*
X193167000Y-119657500D02*
X193167000Y-122301000D01*
X195612000Y-121871500D02*
X196132500Y-121871500D01*
X194485228Y-122998272D02*
X195612000Y-121871500D01*
X193864272Y-122998272D02*
X194485228Y-122998272D01*
X177245500Y-121871500D02*
X176435000Y-122682000D01*
X176435000Y-122682000D02*
X176435000Y-122693864D01*
X176435000Y-122693864D02*
X176065864Y-123063000D01*
X174498000Y-121920000D02*
X174498000Y-119657500D01*
X176065864Y-123063000D02*
X175641000Y-123063000D01*
X177766000Y-121871500D02*
X177245500Y-121871500D01*
X175641000Y-123063000D02*
X174498000Y-121920000D01*
X194053389Y-103074111D02*
X194052000Y-103075500D01*
X192532000Y-104140000D02*
X193596500Y-103075500D01*
X191008000Y-103378000D02*
X191770000Y-104140000D01*
X191008000Y-100758000D02*
X191008000Y-103378000D01*
X193596500Y-103075500D02*
X194052000Y-103075500D01*
X191770000Y-104140000D02*
X192532000Y-104140000D01*
M02*
