G04 #@! TF.GenerationSoftware,KiCad,Pcbnew,8.0.5*
G04 #@! TF.CreationDate,2025-02-16T13:40:21+01:00*
G04 #@! TF.ProjectId,nTerm2-s,6e546572-6d32-42d7-932e-6b696361645f,0.03*
G04 #@! TF.SameCoordinates,Original*
G04 #@! TF.FileFunction,Copper,L1,Top*
G04 #@! TF.FilePolarity,Positive*
%FSLAX46Y46*%
G04 Gerber Fmt 4.6, Leading zero omitted, Abs format (unit mm)*
G04 Created by KiCad (PCBNEW 8.0.5) date 2025-02-16 13:40:21*
%MOMM*%
%LPD*%
G01*
G04 APERTURE LIST*
G04 Aperture macros list*
%AMRoundRect*
0 Rectangle with rounded corners*
0 $1 Rounding radius*
0 $2 $3 $4 $5 $6 $7 $8 $9 X,Y pos of 4 corners*
0 Add a 4 corners polygon primitive as box body*
4,1,4,$2,$3,$4,$5,$6,$7,$8,$9,$2,$3,0*
0 Add four circle primitives for the rounded corners*
1,1,$1+$1,$2,$3*
1,1,$1+$1,$4,$5*
1,1,$1+$1,$6,$7*
1,1,$1+$1,$8,$9*
0 Add four rect primitives between the rounded corners*
20,1,$1+$1,$2,$3,$4,$5,0*
20,1,$1+$1,$4,$5,$6,$7,0*
20,1,$1+$1,$6,$7,$8,$9,0*
20,1,$1+$1,$8,$9,$2,$3,0*%
G04 Aperture macros list end*
G04 #@! TA.AperFunction,SMDPad,CuDef*
%ADD10RoundRect,0.237500X-0.237500X0.250000X-0.237500X-0.250000X0.237500X-0.250000X0.237500X0.250000X0*%
G04 #@! TD*
G04 #@! TA.AperFunction,SMDPad,CuDef*
%ADD11RoundRect,0.237500X-0.250000X-0.237500X0.250000X-0.237500X0.250000X0.237500X-0.250000X0.237500X0*%
G04 #@! TD*
G04 #@! TA.AperFunction,SMDPad,CuDef*
%ADD12RoundRect,0.237500X0.237500X-0.250000X0.237500X0.250000X-0.237500X0.250000X-0.237500X-0.250000X0*%
G04 #@! TD*
G04 #@! TA.AperFunction,SMDPad,CuDef*
%ADD13RoundRect,0.250000X1.000000X0.650000X-1.000000X0.650000X-1.000000X-0.650000X1.000000X-0.650000X0*%
G04 #@! TD*
G04 #@! TA.AperFunction,SMDPad,CuDef*
%ADD14RoundRect,0.225000X0.375000X-0.225000X0.375000X0.225000X-0.375000X0.225000X-0.375000X-0.225000X0*%
G04 #@! TD*
G04 #@! TA.AperFunction,SMDPad,CuDef*
%ADD15RoundRect,0.225000X-0.225000X-0.375000X0.225000X-0.375000X0.225000X0.375000X-0.225000X0.375000X0*%
G04 #@! TD*
G04 #@! TA.AperFunction,SMDPad,CuDef*
%ADD16R,0.700000X2.000000*%
G04 #@! TD*
G04 #@! TA.AperFunction,ComponentPad*
%ADD17C,1.750000*%
G04 #@! TD*
G04 #@! TA.AperFunction,ComponentPad*
%ADD18C,2.100000*%
G04 #@! TD*
G04 #@! TA.AperFunction,SMDPad,CuDef*
%ADD19R,1.500000X0.900000*%
G04 #@! TD*
G04 #@! TA.AperFunction,SMDPad,CuDef*
%ADD20R,0.900000X1.500000*%
G04 #@! TD*
G04 #@! TA.AperFunction,SMDPad,CuDef*
%ADD21R,1.050000X1.050000*%
G04 #@! TD*
G04 #@! TA.AperFunction,HeatsinkPad*
%ADD22C,0.600000*%
G04 #@! TD*
G04 #@! TA.AperFunction,SMDPad,CuDef*
%ADD23R,4.200000X4.200000*%
G04 #@! TD*
G04 #@! TA.AperFunction,SMDPad,CuDef*
%ADD24RoundRect,0.237500X-0.237500X0.300000X-0.237500X-0.300000X0.237500X-0.300000X0.237500X0.300000X0*%
G04 #@! TD*
G04 #@! TA.AperFunction,ComponentPad*
%ADD25R,1.600000X1.600000*%
G04 #@! TD*
G04 #@! TA.AperFunction,ComponentPad*
%ADD26C,1.600000*%
G04 #@! TD*
G04 #@! TA.AperFunction,ComponentPad*
%ADD27O,2.000000X3.500000*%
G04 #@! TD*
G04 #@! TA.AperFunction,ComponentPad*
%ADD28O,4.000000X2.000000*%
G04 #@! TD*
G04 #@! TA.AperFunction,SMDPad,CuDef*
%ADD29RoundRect,0.250000X0.550000X-1.500000X0.550000X1.500000X-0.550000X1.500000X-0.550000X-1.500000X0*%
G04 #@! TD*
G04 #@! TA.AperFunction,ComponentPad*
%ADD30R,1.800000X1.800000*%
G04 #@! TD*
G04 #@! TA.AperFunction,ComponentPad*
%ADD31C,1.800000*%
G04 #@! TD*
G04 #@! TA.AperFunction,SMDPad,CuDef*
%ADD32RoundRect,0.150000X-0.825000X-0.150000X0.825000X-0.150000X0.825000X0.150000X-0.825000X0.150000X0*%
G04 #@! TD*
G04 #@! TA.AperFunction,SMDPad,CuDef*
%ADD33RoundRect,0.237500X0.250000X0.237500X-0.250000X0.237500X-0.250000X-0.237500X0.250000X-0.237500X0*%
G04 #@! TD*
G04 #@! TA.AperFunction,SMDPad,CuDef*
%ADD34RoundRect,0.250000X-0.425000X0.537500X-0.425000X-0.537500X0.425000X-0.537500X0.425000X0.537500X0*%
G04 #@! TD*
G04 #@! TA.AperFunction,SMDPad,CuDef*
%ADD35RoundRect,0.250000X0.425000X-0.537500X0.425000X0.537500X-0.425000X0.537500X-0.425000X-0.537500X0*%
G04 #@! TD*
G04 #@! TA.AperFunction,SMDPad,CuDef*
%ADD36RoundRect,0.237500X-0.300000X-0.237500X0.300000X-0.237500X0.300000X0.237500X-0.300000X0.237500X0*%
G04 #@! TD*
G04 #@! TA.AperFunction,SMDPad,CuDef*
%ADD37RoundRect,0.375000X-0.375000X0.625000X-0.375000X-0.625000X0.375000X-0.625000X0.375000X0.625000X0*%
G04 #@! TD*
G04 #@! TA.AperFunction,SMDPad,CuDef*
%ADD38RoundRect,0.500000X-1.400000X0.500000X-1.400000X-0.500000X1.400000X-0.500000X1.400000X0.500000X0*%
G04 #@! TD*
G04 #@! TA.AperFunction,SMDPad,CuDef*
%ADD39RoundRect,0.250000X0.875000X0.925000X-0.875000X0.925000X-0.875000X-0.925000X0.875000X-0.925000X0*%
G04 #@! TD*
G04 #@! TA.AperFunction,SMDPad,CuDef*
%ADD40RoundRect,0.250000X0.925000X-0.875000X0.925000X0.875000X-0.925000X0.875000X-0.925000X-0.875000X0*%
G04 #@! TD*
G04 #@! TA.AperFunction,SMDPad,CuDef*
%ADD41RoundRect,0.150000X-0.587500X-0.150000X0.587500X-0.150000X0.587500X0.150000X-0.587500X0.150000X0*%
G04 #@! TD*
G04 #@! TA.AperFunction,SMDPad,CuDef*
%ADD42RoundRect,0.150000X0.587500X0.150000X-0.587500X0.150000X-0.587500X-0.150000X0.587500X-0.150000X0*%
G04 #@! TD*
G04 #@! TA.AperFunction,ComponentPad*
%ADD43C,0.700000*%
G04 #@! TD*
G04 #@! TA.AperFunction,ComponentPad*
%ADD44O,1.300000X3.200000*%
G04 #@! TD*
G04 #@! TA.AperFunction,ComponentPad*
%ADD45O,1.300000X2.500000*%
G04 #@! TD*
G04 #@! TA.AperFunction,SMDPad,CuDef*
%ADD46RoundRect,0.250001X0.499999X0.924999X-0.499999X0.924999X-0.499999X-0.924999X0.499999X-0.924999X0*%
G04 #@! TD*
G04 #@! TA.AperFunction,SMDPad,CuDef*
%ADD47RoundRect,0.237500X0.237500X-0.300000X0.237500X0.300000X-0.237500X0.300000X-0.237500X-0.300000X0*%
G04 #@! TD*
G04 #@! TA.AperFunction,ComponentPad*
%ADD48C,4.000000*%
G04 #@! TD*
G04 #@! TA.AperFunction,SMDPad,CuDef*
%ADD49RoundRect,0.250000X-1.500000X-0.550000X1.500000X-0.550000X1.500000X0.550000X-1.500000X0.550000X0*%
G04 #@! TD*
G04 #@! TA.AperFunction,SMDPad,CuDef*
%ADD50RoundRect,0.062500X-0.337500X-0.062500X0.337500X-0.062500X0.337500X0.062500X-0.337500X0.062500X0*%
G04 #@! TD*
G04 #@! TA.AperFunction,SMDPad,CuDef*
%ADD51RoundRect,0.062500X-0.062500X-0.337500X0.062500X-0.337500X0.062500X0.337500X-0.062500X0.337500X0*%
G04 #@! TD*
G04 #@! TA.AperFunction,HeatsinkPad*
%ADD52R,3.350000X3.350000*%
G04 #@! TD*
G04 #@! TA.AperFunction,SMDPad,CuDef*
%ADD53RoundRect,0.250000X-0.475000X0.337500X-0.475000X-0.337500X0.475000X-0.337500X0.475000X0.337500X0*%
G04 #@! TD*
G04 #@! TA.AperFunction,ComponentPad*
%ADD54O,4.000000X2.200000*%
G04 #@! TD*
G04 #@! TA.AperFunction,ComponentPad*
%ADD55O,2.200000X4.000000*%
G04 #@! TD*
G04 #@! TA.AperFunction,ComponentPad*
%ADD56R,2.200000X4.000000*%
G04 #@! TD*
G04 #@! TA.AperFunction,SMDPad,CuDef*
%ADD57R,1.200000X1.200000*%
G04 #@! TD*
G04 #@! TA.AperFunction,SMDPad,CuDef*
%ADD58RoundRect,0.250000X0.537500X0.425000X-0.537500X0.425000X-0.537500X-0.425000X0.537500X-0.425000X0*%
G04 #@! TD*
G04 #@! TA.AperFunction,ViaPad*
%ADD59C,0.600000*%
G04 #@! TD*
G04 #@! TA.AperFunction,ViaPad*
%ADD60C,0.500000*%
G04 #@! TD*
G04 #@! TA.AperFunction,Conductor*
%ADD61C,0.400000*%
G04 #@! TD*
G04 #@! TA.AperFunction,Conductor*
%ADD62C,0.200000*%
G04 #@! TD*
G04 APERTURE END LIST*
D10*
X84266000Y-107528500D03*
X84266000Y-109353500D03*
D11*
X138956000Y-84668500D03*
X140781000Y-84668500D03*
D12*
X103570000Y-94113500D03*
X103570000Y-92288500D03*
X177895000Y-120783500D03*
X177895000Y-118958500D03*
D10*
X174188499Y-89748500D03*
X174188499Y-91573500D03*
D13*
X99474000Y-89748500D03*
X95474000Y-89748500D03*
D14*
X191708000Y-103417000D03*
X191708000Y-100117000D03*
D15*
X178374000Y-124038500D03*
X181674000Y-124038500D03*
D16*
X201741000Y-109268500D03*
X198541000Y-109268500D03*
X196341000Y-109268500D03*
X194141000Y-109268500D03*
X194141000Y-115268500D03*
X196341000Y-115268500D03*
X198541000Y-115268500D03*
X201741000Y-115268500D03*
D17*
X99506000Y-124038500D03*
X95006000Y-124038500D03*
D18*
X100756000Y-121548500D03*
X93746000Y-121548500D03*
D10*
X174436000Y-100670500D03*
X174436000Y-102495500D03*
D19*
X113616000Y-80096500D03*
X113616000Y-81366500D03*
X113616000Y-82636500D03*
X113616000Y-83906500D03*
X113616000Y-85176500D03*
X113616000Y-86446500D03*
X113616000Y-87716500D03*
X113616000Y-88986500D03*
X113616000Y-90256500D03*
X113616000Y-91526500D03*
X113616000Y-92796500D03*
X113616000Y-94066500D03*
X113616000Y-95336500D03*
X113616000Y-96606500D03*
D20*
X116656000Y-97856500D03*
X117926000Y-97856500D03*
X119196000Y-97856500D03*
X120466000Y-97856500D03*
X121736000Y-97856500D03*
X123006000Y-97856500D03*
X124276000Y-97856500D03*
X125546000Y-97856500D03*
X126816000Y-97856500D03*
X128086000Y-97856500D03*
D19*
X131116000Y-96606500D03*
X131116000Y-95336500D03*
X131116000Y-94066500D03*
X131116000Y-92796500D03*
X131116000Y-91526500D03*
X131116000Y-90256500D03*
X131116000Y-88986500D03*
X131116000Y-87716500D03*
X131116000Y-86446500D03*
X131116000Y-85176500D03*
X131116000Y-83906500D03*
X131116000Y-82636500D03*
X131116000Y-81366500D03*
X131116000Y-80096500D03*
D21*
X120161000Y-85911500D03*
D22*
X120161000Y-86674000D03*
D21*
X120161000Y-87436500D03*
D22*
X120161000Y-88199000D03*
D21*
X120161000Y-88961500D03*
D22*
X120923500Y-85911500D03*
X120923500Y-87436500D03*
X120923500Y-88961500D03*
D21*
X121686000Y-85911500D03*
D22*
X121686000Y-86674000D03*
D21*
X121686000Y-87436500D03*
D23*
X121686000Y-87436500D03*
D22*
X121686000Y-88199000D03*
D21*
X121686000Y-88961500D03*
D22*
X122448500Y-85911500D03*
X122448500Y-87436500D03*
X122448500Y-88961500D03*
D21*
X123211000Y-85911500D03*
D22*
X123211000Y-86674000D03*
D21*
X123211000Y-87436500D03*
D22*
X123211000Y-88199000D03*
D21*
X123211000Y-88961500D03*
D12*
X126176000Y-112251000D03*
X126176000Y-110426000D03*
D17*
X110936000Y-124038500D03*
X106436000Y-124038500D03*
D18*
X112186000Y-121548500D03*
X105176000Y-121548500D03*
D12*
X194248000Y-101942000D03*
X194248000Y-100117000D03*
D24*
X176976000Y-100720500D03*
X176976000Y-102445500D03*
D25*
X126616000Y-118958500D03*
D26*
X124016000Y-118958500D03*
X128716000Y-118958500D03*
X121916000Y-118958500D03*
X128716000Y-116158500D03*
X121916000Y-116158500D03*
D27*
X118466000Y-121808500D03*
D28*
X125316000Y-122608500D03*
D27*
X132166000Y-121808500D03*
D29*
X206694000Y-123096000D03*
X206694000Y-117696000D03*
D11*
X138956000Y-88224500D03*
X140781000Y-88224500D03*
D14*
X193740000Y-122258500D03*
X193740000Y-118958500D03*
D12*
X196280000Y-120783500D03*
X196280000Y-118958500D03*
D29*
X188279000Y-123096000D03*
X188279000Y-117696000D03*
D14*
X175355000Y-122258500D03*
X175355000Y-118958500D03*
D30*
X162498000Y-120228500D03*
D31*
X165038000Y-120228500D03*
D30*
X162498000Y-122768500D03*
D31*
X165038000Y-122768500D03*
D10*
X170499000Y-113878500D03*
X170499000Y-115703500D03*
D32*
X171778499Y-94193500D03*
X171778499Y-95463500D03*
X171778499Y-96733500D03*
X171778499Y-98003500D03*
X176728499Y-98003500D03*
X176728499Y-96733500D03*
X176728499Y-95463500D03*
X176728499Y-94193500D03*
D33*
X140781000Y-80858500D03*
X138956000Y-80858500D03*
D24*
X86806000Y-91018500D03*
X86806000Y-92743500D03*
D12*
X118556000Y-112251000D03*
X118556000Y-110426000D03*
D34*
X147574000Y-105369500D03*
X147574000Y-108244500D03*
D35*
X86806000Y-87543500D03*
X86806000Y-84668500D03*
D30*
X168848000Y-120228500D03*
D31*
X171388000Y-120228500D03*
D30*
X168848000Y-122768500D03*
D31*
X171388000Y-122768500D03*
D12*
X105602000Y-94113500D03*
X105602000Y-92288500D03*
D25*
X151217000Y-118958500D03*
D26*
X148617000Y-118958500D03*
X153317000Y-118958500D03*
X146517000Y-118958500D03*
X153317000Y-116158500D03*
X146517000Y-116158500D03*
D27*
X143067000Y-121808500D03*
D28*
X149917000Y-122608500D03*
D27*
X156767000Y-121808500D03*
D36*
X98396000Y-117688500D03*
X100121000Y-117688500D03*
D37*
X82502000Y-92567500D03*
X80202000Y-92567500D03*
D38*
X80202000Y-98867500D03*
D37*
X77902000Y-92567500D03*
D39*
X105801000Y-82001500D03*
X100701000Y-82001500D03*
D11*
X94486000Y-117688500D03*
X96311000Y-117688500D03*
X166143000Y-93726000D03*
X167968000Y-93726000D03*
D32*
X152276000Y-99527500D03*
X152276000Y-100797500D03*
X152276000Y-102067500D03*
X152276000Y-103337500D03*
X152276000Y-104607500D03*
X152276000Y-105877500D03*
X152276000Y-107147500D03*
X152276000Y-108417500D03*
X157226000Y-108417500D03*
X157226000Y-107147500D03*
X157226000Y-105877500D03*
X157226000Y-104607500D03*
X157226000Y-103337500D03*
X157226000Y-102067500D03*
X157226000Y-100797500D03*
X157226000Y-99527500D03*
D40*
X77916000Y-88656000D03*
X77916000Y-83556000D03*
D34*
X144526000Y-105369500D03*
X144526000Y-108244500D03*
D41*
X196945000Y-100183000D03*
X196945000Y-102083000D03*
X198820000Y-101133000D03*
D36*
X109766000Y-117688500D03*
X111491000Y-117688500D03*
D11*
X91839000Y-103718500D03*
X93664000Y-103718500D03*
D16*
X183250500Y-109268500D03*
X180050500Y-109268500D03*
X177850500Y-109268500D03*
X175650500Y-109268500D03*
X175650500Y-115268500D03*
X177850500Y-115268500D03*
X180050500Y-115268500D03*
X183250500Y-115268500D03*
D35*
X86084500Y-104561500D03*
X86084500Y-101686500D03*
D42*
X107106000Y-114508500D03*
X107106000Y-112608500D03*
X105231000Y-113558500D03*
D43*
X93176000Y-79588500D03*
X92326000Y-79588500D03*
X91476000Y-79588500D03*
X90626000Y-79588500D03*
X89776000Y-79588500D03*
X88926000Y-79588500D03*
X88076000Y-79588500D03*
X87226000Y-79588500D03*
X87226000Y-78238500D03*
X88076000Y-78238500D03*
X88926000Y-78238500D03*
X89776000Y-78238500D03*
X90626000Y-78238500D03*
X91476000Y-78238500D03*
X92326000Y-78238500D03*
X93176000Y-78238500D03*
D44*
X94521000Y-79088500D03*
D45*
X94516000Y-74783500D03*
D44*
X85881000Y-79088500D03*
D45*
X85881000Y-74788500D03*
D34*
X161355000Y-100503000D03*
X161355000Y-103378000D03*
D46*
X81700000Y-102956500D03*
X78450000Y-102956500D03*
D17*
X77916000Y-113298500D03*
X77916000Y-108798500D03*
D18*
X80406000Y-114548500D03*
X80406000Y-107538500D03*
D47*
X171775499Y-91473500D03*
X171775499Y-89748500D03*
D11*
X138956000Y-93558500D03*
X140781000Y-93558500D03*
D30*
X86824750Y-122796000D03*
D31*
X89364750Y-122796000D03*
D48*
X212836000Y-111948500D03*
X212836000Y-86948500D03*
D25*
X212536000Y-104988500D03*
D26*
X212536000Y-102218500D03*
X212536000Y-99448500D03*
X212536000Y-96678500D03*
X212536000Y-93908500D03*
X215376000Y-103603500D03*
X215376000Y-100833500D03*
X215376000Y-98063500D03*
X215376000Y-95293500D03*
D49*
X181267499Y-101178500D03*
X186667499Y-101178500D03*
D11*
X138956000Y-90002500D03*
X140781000Y-90002500D03*
D49*
X181267499Y-92923500D03*
X186667499Y-92923500D03*
D34*
X144526000Y-99781500D03*
X144526000Y-102656500D03*
D50*
X92761000Y-97623500D03*
X92761000Y-98123500D03*
X92761000Y-98623500D03*
X92761000Y-99123500D03*
X92761000Y-99623500D03*
X92761000Y-100123500D03*
X92761000Y-100623500D03*
D51*
X93711000Y-101573500D03*
X94211000Y-101573500D03*
X94711000Y-101573500D03*
X95211000Y-101573500D03*
X95711000Y-101573500D03*
X96211000Y-101573500D03*
X96711000Y-101573500D03*
D50*
X97661000Y-100623500D03*
X97661000Y-100123500D03*
X97661000Y-99623500D03*
X97661000Y-99123500D03*
X97661000Y-98623500D03*
X97661000Y-98123500D03*
X97661000Y-97623500D03*
D51*
X96711000Y-96673500D03*
X96211000Y-96673500D03*
X95711000Y-96673500D03*
X95211000Y-96673500D03*
X94711000Y-96673500D03*
X94211000Y-96673500D03*
X93711000Y-96673500D03*
D52*
X95211000Y-99123500D03*
D48*
X178551000Y-83958500D03*
X153551000Y-83958500D03*
D25*
X161736000Y-85378500D03*
D26*
X164026000Y-85378500D03*
X166316000Y-85378500D03*
X168606000Y-85378500D03*
X170896000Y-85378500D03*
X160591000Y-83398500D03*
X162881000Y-83398500D03*
X165171000Y-83398500D03*
X167461000Y-83398500D03*
X169751000Y-83398500D03*
X161736000Y-81418500D03*
X164026000Y-81418500D03*
X166316000Y-81418500D03*
X168606000Y-81418500D03*
X170896000Y-81418500D03*
D33*
X167977500Y-91530685D03*
X166152500Y-91530685D03*
D10*
X167959000Y-113878500D03*
X167959000Y-115703500D03*
X164149000Y-113878500D03*
X164149000Y-115703500D03*
D12*
X100121000Y-114433500D03*
X100121000Y-112608500D03*
D29*
X204662000Y-104046000D03*
X204662000Y-98646000D03*
D12*
X128716000Y-112251000D03*
X128716000Y-110426000D03*
D36*
X166243000Y-95885000D03*
X167968000Y-95885000D03*
D12*
X116016000Y-112251000D03*
X116016000Y-110426000D03*
D16*
X199604750Y-90225500D03*
X196404750Y-90225500D03*
X194204750Y-90225500D03*
X192004750Y-90225500D03*
X192004750Y-96225500D03*
X194204750Y-96225500D03*
X196404750Y-96225500D03*
X199604750Y-96225500D03*
D34*
X147574000Y-99781500D03*
X147574000Y-102656500D03*
D15*
X196916000Y-124038500D03*
X200216000Y-124038500D03*
D53*
X167994500Y-98149500D03*
X167994500Y-100224500D03*
D12*
X131256000Y-112251000D03*
X131256000Y-110426000D03*
D13*
X99474000Y-85938500D03*
X95474000Y-85938500D03*
D35*
X109285000Y-83566000D03*
X109285000Y-80691000D03*
D54*
X199836000Y-74508500D03*
D55*
X205036000Y-82508500D03*
X202336000Y-81308500D03*
D56*
X195236000Y-78408500D03*
D54*
X195736000Y-85708500D03*
D42*
X96311000Y-114508500D03*
X96311000Y-112608500D03*
X94436000Y-113558500D03*
D47*
X171896000Y-102445500D03*
X171896000Y-100720500D03*
D40*
X82996000Y-88656000D03*
X82996000Y-83556000D03*
D24*
X84266000Y-112608500D03*
X84266000Y-114333500D03*
D41*
X198898500Y-118983500D03*
X198898500Y-120883500D03*
X200773500Y-119933500D03*
D12*
X110916000Y-114433500D03*
X110916000Y-112608500D03*
D11*
X138956000Y-91780500D03*
X140781000Y-91780500D03*
D12*
X135701000Y-98558500D03*
X135701000Y-96733500D03*
D10*
X161609000Y-113878500D03*
X161609000Y-115703500D03*
D11*
X91862500Y-105369500D03*
X93687500Y-105369500D03*
D12*
X133796000Y-112251000D03*
X133796000Y-110426000D03*
X121096000Y-112251000D03*
X121096000Y-110426000D03*
D11*
X91862500Y-107020500D03*
X93687500Y-107020500D03*
D33*
X140781000Y-82763500D03*
X138956000Y-82763500D03*
D57*
X89981000Y-87465500D03*
X89981000Y-84665500D03*
D11*
X138956000Y-86446500D03*
X140781000Y-86446500D03*
D33*
X89369500Y-117688500D03*
X87544500Y-117688500D03*
D10*
X165835500Y-98274500D03*
X165835500Y-100099500D03*
D58*
X109325500Y-86446500D03*
X106450500Y-86446500D03*
D11*
X105856000Y-117688500D03*
X107681000Y-117688500D03*
D15*
X194885000Y-104988500D03*
X198185000Y-104988500D03*
D12*
X123636000Y-112251000D03*
X123636000Y-110426000D03*
D41*
X180435000Y-118958500D03*
X180435000Y-120858500D03*
X182310000Y-119908500D03*
D59*
X89346000Y-103718500D03*
X89346000Y-107528500D03*
D60*
X146496000Y-126578500D03*
X122366000Y-126578500D03*
D59*
X89346000Y-91018500D03*
X179516000Y-103718500D03*
X159196000Y-126578500D03*
X103316000Y-87208500D03*
X77916000Y-85938500D03*
X159196000Y-101178500D03*
X194756000Y-124038500D03*
X82996000Y-85938500D03*
X176976000Y-124038500D03*
X94426000Y-99908500D03*
X95696000Y-99908500D03*
X104140000Y-80010000D03*
D60*
X185866000Y-103718500D03*
D59*
X192216000Y-104988500D03*
X86806000Y-82128500D03*
X170180000Y-101600000D03*
X95696000Y-98638500D03*
X84266000Y-102448500D03*
X76646000Y-102448500D03*
X132526000Y-80839500D03*
X116656000Y-99268500D03*
X85536000Y-92288500D03*
X94426000Y-98638500D03*
X163006000Y-102448500D03*
X135066000Y-99908500D03*
X129986000Y-111338500D03*
X159196000Y-125308500D03*
D60*
X98236000Y-103718500D03*
D59*
X104586000Y-91018500D03*
X91886000Y-89748500D03*
X90616000Y-98638500D03*
X133796000Y-93558500D03*
X190946000Y-98720000D03*
X159196000Y-111338500D03*
X135066000Y-93558500D03*
X192216000Y-98638500D03*
X197296000Y-98638500D03*
X197550000Y-116418500D03*
X182056000Y-106239500D03*
X183326000Y-106258500D03*
X196026000Y-107528500D03*
X150306000Y-108798500D03*
X161736000Y-107528500D03*
X161736000Y-106258500D03*
X154116000Y-107528500D03*
X133796000Y-96098500D03*
X104586000Y-115148500D03*
D60*
X124906000Y-103718500D03*
X114746000Y-103718500D03*
X86806000Y-108798500D03*
D59*
X107126000Y-92288500D03*
X133796000Y-98638500D03*
X136336000Y-107528500D03*
X129986000Y-107528500D03*
X107126000Y-107528500D03*
X105856000Y-98638500D03*
X103316000Y-96098500D03*
X132470854Y-84668500D03*
X94426000Y-94828500D03*
X161736000Y-108796210D03*
X159196000Y-108796210D03*
X159196000Y-110049500D03*
X161736000Y-110068500D03*
X107126000Y-106258500D03*
X131256000Y-106258500D03*
X103316000Y-97368500D03*
X132526000Y-83398500D03*
X105856000Y-99908500D03*
X95696000Y-94828500D03*
X91886000Y-85938500D03*
X90616000Y-99908500D03*
D61*
X181267499Y-91891000D02*
X180949999Y-91573500D01*
X174188499Y-98003500D02*
X174188499Y-91573500D01*
X181267499Y-92923500D02*
X181267499Y-91891000D01*
X180949999Y-91573500D02*
X174188499Y-91573500D01*
X174188499Y-98003500D02*
X176728499Y-98003500D01*
X174436000Y-99527500D02*
X174436000Y-100670500D01*
X174188499Y-99279999D02*
X174436000Y-99527500D01*
X174188499Y-98003500D02*
X174188499Y-99279999D01*
X89978000Y-87468500D02*
X85911000Y-87468500D01*
X90997000Y-124800500D02*
X90997000Y-121077500D01*
X159196000Y-126578500D02*
X92775000Y-126578500D01*
X89346000Y-91018500D02*
X89981000Y-90383500D01*
X179516000Y-103718500D02*
X181427499Y-101807001D01*
X92775000Y-126578500D02*
X90997000Y-124800500D01*
X77916000Y-92807500D02*
X77902000Y-92821500D01*
X90997000Y-121077500D02*
X89346000Y-119426500D01*
X85911000Y-87468500D02*
X84723500Y-88656000D01*
X89346000Y-103718500D02*
X91839000Y-103718500D01*
X89981000Y-87465500D02*
X89978000Y-87468500D01*
X179903499Y-96733500D02*
X176728499Y-96733500D01*
X181427499Y-101807001D02*
X181427499Y-98257500D01*
X181427499Y-98257500D02*
X179903499Y-96733500D01*
X89346000Y-119426500D02*
X89346000Y-107528500D01*
X89981000Y-90383500D02*
X89981000Y-87465500D01*
X84723500Y-88656000D02*
X77916000Y-88656000D01*
X77916000Y-88656000D02*
X77916000Y-92807500D01*
X158815000Y-100797500D02*
X157226000Y-100797500D01*
X171896000Y-100720500D02*
X171896000Y-98121001D01*
D62*
X148955000Y-102656500D02*
X147574000Y-102656500D01*
D61*
X164996500Y-98274500D02*
X165835500Y-98274500D01*
X173166000Y-101178500D02*
X172708000Y-100720500D01*
X192470000Y-121879500D02*
X195391000Y-118958500D01*
X77916000Y-83556000D02*
X77916000Y-85938500D01*
X159196000Y-101178500D02*
X158815000Y-100797500D01*
X194629000Y-104988500D02*
X191245500Y-104988500D01*
X172708000Y-100720500D02*
X171896000Y-100720500D01*
X87481500Y-103759000D02*
X89092000Y-105369500D01*
D62*
X100121000Y-117688500D02*
X100121000Y-119613500D01*
D61*
X164719000Y-98552000D02*
X164996500Y-98274500D01*
X166243000Y-95885000D02*
X166243000Y-97157185D01*
D62*
X154878000Y-102575500D02*
X154878000Y-101432500D01*
X153481000Y-103972500D02*
X154878000Y-102575500D01*
D61*
X190438000Y-104181000D02*
X190438000Y-103038000D01*
X86084500Y-101686500D02*
X87100500Y-101686500D01*
X178374000Y-124038500D02*
X175355000Y-124038500D01*
D62*
X110174000Y-120910500D02*
X110174000Y-123276500D01*
D61*
X111992500Y-80691000D02*
X112587000Y-80096500D01*
X104332000Y-87208500D02*
X105094000Y-86446500D01*
X85028000Y-92796500D02*
X85536000Y-92288500D01*
X99474000Y-85938500D02*
X102046000Y-85938500D01*
X82502000Y-92821500D02*
X82527000Y-92796500D01*
X166143000Y-95785000D02*
X166243000Y-95885000D01*
X77916000Y-113298500D02*
X78733000Y-112481500D01*
X190438000Y-103038000D02*
X193359000Y-100117000D01*
X166243000Y-97157185D02*
X165835500Y-97564685D01*
D62*
X131870000Y-80183500D02*
X131116000Y-80183500D01*
D61*
X177895000Y-118958500D02*
X180435000Y-118958500D01*
X174085000Y-122768500D02*
X174085000Y-121816000D01*
D62*
X132526000Y-80839500D02*
X131870000Y-80183500D01*
X98744000Y-123206500D02*
X99526000Y-123988500D01*
D61*
X82527000Y-92796500D02*
X85028000Y-92796500D01*
X196945000Y-100183000D02*
X194314000Y-100183000D01*
X104140000Y-80010000D02*
X107547500Y-80010000D01*
X166143000Y-93726000D02*
X166143000Y-95785000D01*
X171059500Y-100720500D02*
X171896000Y-100720500D01*
X102046000Y-89748500D02*
X99474000Y-89748500D01*
X174085000Y-121816000D02*
X176942500Y-118958500D01*
X108228500Y-80691000D02*
X111992500Y-80691000D01*
X196305000Y-118983500D02*
X198898500Y-118983500D01*
X165481000Y-101600000D02*
X164719000Y-100838000D01*
X193359000Y-100117000D02*
X194248000Y-100117000D01*
X192470000Y-122768500D02*
X192470000Y-121879500D01*
X176338000Y-102445500D02*
X175452000Y-101559500D01*
X103316000Y-87208500D02*
X104332000Y-87208500D01*
X186667499Y-102917001D02*
X186667499Y-101178500D01*
X102046000Y-85938500D02*
X103316000Y-87208500D01*
X85536000Y-92288500D02*
X85991000Y-92743500D01*
X176976000Y-102445500D02*
X176338000Y-102445500D01*
D62*
X98744000Y-120990500D02*
X98744000Y-123206500D01*
X150560000Y-103972500D02*
X153481000Y-103972500D01*
D61*
X171778499Y-96733500D02*
X171778499Y-98003500D01*
D62*
X149163000Y-105369500D02*
X150560000Y-103972500D01*
D61*
X196280000Y-118958500D02*
X196305000Y-118983500D01*
X103316000Y-88478500D02*
X102046000Y-89748500D01*
X185866000Y-103718500D02*
X186667499Y-102917001D01*
X161355000Y-103378000D02*
X160252500Y-103378000D01*
X103316000Y-87208500D02*
X103316000Y-88478500D01*
X78733000Y-112481500D02*
X81752500Y-112481500D01*
D62*
X94411000Y-98623500D02*
X94426000Y-98638500D01*
X116651000Y-99273500D02*
X116656000Y-99268500D01*
D61*
X165835500Y-97564685D02*
X165835500Y-98274500D01*
X78450000Y-102956500D02*
X77154000Y-102956500D01*
X85028000Y-101686500D02*
X86084500Y-101686500D01*
D62*
X154878000Y-101432500D02*
X155513000Y-100797500D01*
X92761000Y-98623500D02*
X94411000Y-98623500D01*
D61*
X175355000Y-124038500D02*
X174085000Y-122768500D01*
D62*
X100121000Y-119613500D02*
X98744000Y-120990500D01*
D61*
X84266000Y-102448500D02*
X85028000Y-101686500D01*
D62*
X155513000Y-100797500D02*
X157226000Y-100797500D01*
D61*
X193740000Y-124038500D02*
X192470000Y-122768500D01*
X102148500Y-82001500D02*
X100701000Y-82001500D01*
X175452000Y-101559500D02*
X173547000Y-101559500D01*
X164719000Y-100838000D02*
X164719000Y-98552000D01*
X176942500Y-118958500D02*
X177895000Y-118958500D01*
X104140000Y-80010000D02*
X102148500Y-82001500D01*
X87100500Y-101686500D02*
X87481500Y-102067500D01*
X191245500Y-104988500D02*
X190438000Y-104181000D01*
X171896000Y-98121001D02*
X171778499Y-98003500D01*
X89092000Y-105369500D02*
X91862500Y-105369500D01*
X159196000Y-102321500D02*
X159196000Y-101178500D01*
X195391000Y-118958500D02*
X196280000Y-118958500D01*
X86806000Y-84668500D02*
X86806000Y-82128500D01*
D62*
X147574000Y-105369500D02*
X149163000Y-105369500D01*
D61*
X196916000Y-124038500D02*
X193740000Y-124038500D01*
D62*
X194314000Y-100183000D02*
X194248000Y-100117000D01*
D61*
X170180000Y-101600000D02*
X165481000Y-101600000D01*
X112587000Y-80096500D02*
X113616000Y-80096500D01*
X85991000Y-92743500D02*
X86806000Y-92743500D01*
X160252500Y-103378000D02*
X159196000Y-102321500D01*
X77154000Y-102956500D02*
X76646000Y-102448500D01*
X83604500Y-114333500D02*
X84266000Y-114333500D01*
X170180000Y-101600000D02*
X171059500Y-100720500D01*
X81752500Y-112481500D02*
X83604500Y-114333500D01*
X107547500Y-80010000D02*
X108228500Y-80691000D01*
X82996000Y-83556000D02*
X82996000Y-85938500D01*
D62*
X150179000Y-101432500D02*
X148955000Y-102656500D01*
X111491000Y-117688500D02*
X111491000Y-119593500D01*
X154878000Y-101432500D02*
X150179000Y-101432500D01*
X110174000Y-123276500D02*
X110936000Y-124038500D01*
X116656000Y-97943500D02*
X116656000Y-99268500D01*
D61*
X87481500Y-102067500D02*
X87481500Y-103759000D01*
D62*
X111491000Y-119593500D02*
X110174000Y-120910500D01*
D61*
X105094000Y-86446500D02*
X106450500Y-86446500D01*
X173547000Y-101559500D02*
X173166000Y-101178500D01*
D62*
X172026000Y-100590500D02*
X171896000Y-100720500D01*
X165835500Y-100099500D02*
X167869500Y-100099500D01*
X170601500Y-95463500D02*
X171778499Y-95463500D01*
X167994500Y-100224500D02*
X169672000Y-98547000D01*
X169672000Y-96393000D02*
X170601500Y-95463500D01*
X169672000Y-98547000D02*
X169672000Y-96393000D01*
X167994500Y-96162500D02*
X167994500Y-98149500D01*
X167977500Y-91530685D02*
X167994500Y-91547685D01*
X167994500Y-91547685D02*
X167994500Y-93699500D01*
X167968000Y-93601185D02*
X167994500Y-93627685D01*
X167968000Y-93350185D02*
X167968000Y-93601185D01*
X167968000Y-93726000D02*
X167968000Y-95885000D01*
X174436000Y-102495500D02*
X171946000Y-102495500D01*
X171946000Y-102495500D02*
X171896000Y-102445500D01*
X171775499Y-89748500D02*
X174315499Y-89748500D01*
X171778499Y-94193500D02*
X171778499Y-93620500D01*
X171775499Y-93617500D02*
X171778499Y-93620500D01*
X171775499Y-91473500D02*
X171775499Y-93617500D01*
X175753500Y-95463500D02*
X176728499Y-95463500D01*
X175712499Y-97368500D02*
X175404499Y-97060500D01*
X175404499Y-97060500D02*
X175404499Y-95812501D01*
X175404499Y-95812501D02*
X175753500Y-95463500D01*
X177930499Y-97693184D02*
X177605815Y-97368500D01*
X177930499Y-98954001D02*
X177930499Y-97693184D01*
X177605815Y-97368500D02*
X175712499Y-97368500D01*
X176976000Y-100720500D02*
X176976000Y-99908500D01*
X176976000Y-99908500D02*
X177930499Y-98954001D01*
X144526000Y-99781500D02*
X145480000Y-99781500D01*
X145480000Y-99781500D02*
X146750000Y-98511500D01*
X146750000Y-98511500D02*
X149163000Y-98511500D01*
X150179000Y-99527500D02*
X152276000Y-99527500D01*
X149163000Y-98511500D02*
X150179000Y-99527500D01*
X145561000Y-102656500D02*
X146750000Y-103845500D01*
X146750000Y-103845500D02*
X148909000Y-103845500D01*
X150687000Y-102067500D02*
X152276000Y-102067500D01*
X148909000Y-103845500D02*
X150687000Y-102067500D01*
X144526000Y-102656500D02*
X145561000Y-102656500D01*
X150941000Y-104607500D02*
X152276000Y-104607500D01*
X145653000Y-108244500D02*
X147131000Y-106766500D01*
X144526000Y-108244500D02*
X145653000Y-108244500D01*
X148782000Y-106766500D02*
X150941000Y-104607500D01*
X147131000Y-106766500D02*
X148782000Y-106766500D01*
X146677000Y-104172500D02*
X149598000Y-104172500D01*
X149598000Y-104172500D02*
X150433000Y-103337500D01*
X144526000Y-105369500D02*
X145480000Y-105369500D01*
X150433000Y-103337500D02*
X152276000Y-103337500D01*
X145480000Y-105369500D02*
X146677000Y-104172500D01*
X150941000Y-105877500D02*
X152276000Y-105877500D01*
X148574000Y-108244500D02*
X150941000Y-105877500D01*
X147574000Y-108244500D02*
X148574000Y-108244500D01*
X149163000Y-99781500D02*
X150179000Y-100797500D01*
X147574000Y-99781500D02*
X149163000Y-99781500D01*
X150179000Y-100797500D02*
X152276000Y-100797500D01*
D61*
X107888000Y-87208500D02*
X107888000Y-84033500D01*
D62*
X117667000Y-111338500D02*
X119445000Y-111338500D01*
X115277500Y-110426000D02*
X114746000Y-110957500D01*
X121834500Y-110426000D02*
X122747000Y-111338500D01*
D61*
X84474000Y-104561500D02*
X86084500Y-104561500D01*
X82869000Y-102956500D02*
X84474000Y-104561500D01*
D62*
X119445000Y-111338500D02*
X120357500Y-110426000D01*
X124525000Y-111338500D02*
X125437500Y-110426000D01*
D61*
X161355000Y-100503000D02*
X160171500Y-100503000D01*
X87141000Y-104561500D02*
X86084500Y-104561500D01*
X163006000Y-102448500D02*
X163006000Y-100797500D01*
X90489000Y-106385500D02*
X88965000Y-106385500D01*
X87568000Y-91018500D02*
X89981000Y-93431500D01*
D62*
X116754500Y-110426000D02*
X117667000Y-111338500D01*
D61*
X105801000Y-83459750D02*
X106374750Y-84033500D01*
X102427000Y-91399500D02*
X104713000Y-89113500D01*
X159196000Y-99527500D02*
X157226000Y-99527500D01*
X91886000Y-107044000D02*
X91886000Y-124673500D01*
X91124000Y-107020500D02*
X90489000Y-106385500D01*
D62*
X116016000Y-110426000D02*
X115277500Y-110426000D01*
X91862500Y-107020500D02*
X92761000Y-106122000D01*
D61*
X158561000Y-125943500D02*
X114746000Y-125943500D01*
X91862500Y-107020500D02*
X91124000Y-107020500D01*
D62*
X129986000Y-111338500D02*
X131002000Y-111338500D01*
D61*
X107888000Y-84033500D02*
X108355500Y-83566000D01*
X163006000Y-100797500D02*
X162711500Y-100503000D01*
D62*
X126914500Y-110426000D02*
X127827000Y-111338500D01*
X114746000Y-110957500D02*
X114746000Y-125943500D01*
D61*
X105602000Y-94113500D02*
X102507000Y-94113500D01*
D62*
X127827000Y-111338500D02*
X129986000Y-111338500D01*
X135066000Y-99908500D02*
X135701000Y-99273500D01*
X131002000Y-111338500D02*
X131256000Y-111084500D01*
X131256000Y-111084500D02*
X131256000Y-110426000D01*
D61*
X161355000Y-100503000D02*
X161355000Y-100416500D01*
D62*
X92761000Y-100623500D02*
X92761000Y-100123500D01*
D61*
X80202000Y-91272500D02*
X80202000Y-102448500D01*
X106374750Y-84033500D02*
X107888000Y-84033500D01*
X86806000Y-91018500D02*
X87568000Y-91018500D01*
X81700000Y-102956500D02*
X82869000Y-102956500D01*
D62*
X126176000Y-110426000D02*
X126914500Y-110426000D01*
X125437500Y-110426000D02*
X126176000Y-110426000D01*
D61*
X102427000Y-94193500D02*
X102427000Y-91399500D01*
D62*
X121096000Y-110426000D02*
X121834500Y-110426000D01*
D61*
X102507000Y-94113500D02*
X102427000Y-94193500D01*
X86806000Y-91018500D02*
X80456000Y-91018500D01*
X159196000Y-125308500D02*
X158561000Y-125943500D01*
X162711500Y-100503000D02*
X161355000Y-100503000D01*
D62*
X135701000Y-99273500D02*
X135701000Y-98558500D01*
D61*
X160171500Y-100503000D02*
X159196000Y-99527500D01*
X89981000Y-93431500D02*
X102427000Y-93431500D01*
D62*
X120357500Y-110426000D02*
X121096000Y-110426000D01*
D61*
X110514500Y-83566000D02*
X112627000Y-81453500D01*
X80202000Y-102448500D02*
X80710000Y-102956500D01*
X88965000Y-106385500D02*
X87141000Y-104561500D01*
X104713000Y-89113500D02*
X105983000Y-89113500D01*
X91862500Y-107020500D02*
X91886000Y-107044000D01*
X105801000Y-82001500D02*
X105801000Y-83459750D01*
X80710000Y-102956500D02*
X81700000Y-102956500D01*
D62*
X92761000Y-106122000D02*
X92761000Y-100623500D01*
D61*
X93156000Y-125943500D02*
X114746000Y-125943500D01*
D62*
X122747000Y-111338500D02*
X124525000Y-111338500D01*
D61*
X112627000Y-81453500D02*
X113616000Y-81453500D01*
X80456000Y-91018500D02*
X80202000Y-91272500D01*
X91886000Y-124673500D02*
X93156000Y-125943500D01*
X108355500Y-83566000D02*
X110514500Y-83566000D01*
D62*
X116016000Y-110426000D02*
X116754500Y-110426000D01*
D61*
X105983000Y-89113500D02*
X107888000Y-87208500D01*
D62*
X107106000Y-123368500D02*
X106436000Y-124038500D01*
X107681000Y-122793500D02*
X107106000Y-123368500D01*
X107681000Y-117688500D02*
X109766000Y-117688500D01*
X107681000Y-117688500D02*
X107681000Y-122793500D01*
X98396000Y-117688500D02*
X96311000Y-117688500D01*
X96311000Y-122703500D02*
X95026000Y-123988500D01*
X96311000Y-117688500D02*
X96311000Y-122703500D01*
X94436000Y-117638500D02*
X94486000Y-117688500D01*
X104586000Y-91018500D02*
X104078000Y-91018500D01*
X112333000Y-84795500D02*
X112333000Y-82890500D01*
X104586000Y-91018500D02*
X105647552Y-91018500D01*
X98236000Y-108925500D02*
X94426000Y-112735500D01*
X105647552Y-91018500D02*
X109325500Y-87340552D01*
X110682000Y-86446500D02*
X112333000Y-84795500D01*
X104078000Y-91018500D02*
X103570000Y-91526500D01*
X103570000Y-91526500D02*
X103570000Y-92288500D01*
X112500000Y-82723500D02*
X113616000Y-82723500D01*
X112333000Y-82890500D02*
X112500000Y-82723500D01*
X94426000Y-112735500D02*
X94436000Y-112745500D01*
X94436000Y-112745500D02*
X94436000Y-113558500D01*
X109325500Y-86446500D02*
X110682000Y-86446500D01*
X109325500Y-87340552D02*
X109325500Y-86446500D01*
X94436000Y-113558500D02*
X94436000Y-117638500D01*
X98236000Y-103718500D02*
X98236000Y-108925500D01*
X84266000Y-112608500D02*
X84266000Y-109353500D01*
X79059000Y-108798500D02*
X77916000Y-108798500D01*
X79614000Y-109353500D02*
X79059000Y-108798500D01*
X84266000Y-109353500D02*
X79614000Y-109353500D01*
X198566000Y-123911500D02*
X199709000Y-125054500D01*
X193740000Y-121498500D02*
X194455000Y-120783500D01*
X199709000Y-125054500D02*
X203646000Y-125054500D01*
X198566000Y-122180500D02*
X198566000Y-123911500D01*
X193740000Y-122258500D02*
X193740000Y-121498500D01*
X196280000Y-120783500D02*
X197169000Y-120783500D01*
X194455000Y-120783500D02*
X196280000Y-120783500D01*
X203646000Y-125054500D02*
X205604500Y-123096000D01*
X198019000Y-119933500D02*
X200773500Y-119933500D01*
X197169000Y-120783500D02*
X198566000Y-122180500D01*
X205604500Y-123096000D02*
X206694000Y-123096000D01*
X197169000Y-120783500D02*
X198019000Y-119933500D01*
D61*
X203265000Y-110221000D02*
X202312500Y-109268500D01*
X202312500Y-109268500D02*
X201741000Y-109268500D01*
X206694000Y-117696000D02*
X205685500Y-117696000D01*
X203265000Y-115275500D02*
X203265000Y-110221000D01*
X205685500Y-117696000D02*
X203265000Y-115275500D01*
X183796000Y-109268500D02*
X184723000Y-110195500D01*
X184723000Y-115212000D02*
X187207000Y-117696000D01*
X184723000Y-110195500D02*
X184723000Y-115212000D01*
X187207000Y-117696000D02*
X188279000Y-117696000D01*
X183250500Y-109268500D02*
X183796000Y-109268500D01*
D62*
X178707000Y-120783500D02*
X179582000Y-119908500D01*
X175355000Y-122258500D02*
X175355000Y-121498500D01*
X185231000Y-125054500D02*
X187189500Y-123096000D01*
X176070000Y-120783500D02*
X177895000Y-120783500D01*
X177895000Y-120783500D02*
X178610000Y-120783500D01*
X180024000Y-122100500D02*
X180024000Y-123911500D01*
X178610000Y-120783500D02*
X178707000Y-120783500D01*
X179582000Y-119908500D02*
X182310000Y-119908500D01*
X187189500Y-123096000D02*
X188279000Y-123096000D01*
X175355000Y-121498500D02*
X176070000Y-120783500D01*
X178707000Y-120783500D02*
X180024000Y-122100500D01*
X181167000Y-125054500D02*
X185231000Y-125054500D01*
X180024000Y-123911500D02*
X181167000Y-125054500D01*
D61*
X200186000Y-90225500D02*
X201233000Y-91272500D01*
X203526500Y-98646000D02*
X204662000Y-98646000D01*
X199604750Y-90225500D02*
X200186000Y-90225500D01*
X201233000Y-96352500D02*
X203526500Y-98646000D01*
X201233000Y-91272500D02*
X201233000Y-96352500D01*
D62*
X203572500Y-104046000D02*
X204662000Y-104046000D01*
X201614000Y-106004500D02*
X203572500Y-104046000D01*
X191708000Y-102784000D02*
X192597000Y-101895000D01*
X197677000Y-106004500D02*
X201614000Y-106004500D01*
X192597000Y-101895000D02*
X195096250Y-101895000D01*
X195096250Y-101895000D02*
X195985250Y-101006000D01*
X195096250Y-101895000D02*
X196534000Y-103332750D01*
X195985250Y-101006000D02*
X198820000Y-101006000D01*
X196534000Y-104861500D02*
X197677000Y-106004500D01*
X191708000Y-103417000D02*
X191708000Y-102784000D01*
X196534000Y-103332750D02*
X196534000Y-104861500D01*
X92738000Y-99146500D02*
X92761000Y-99123500D01*
X91124000Y-99146500D02*
X92738000Y-99146500D01*
X91886000Y-89748500D02*
X95474000Y-89748500D01*
X90616000Y-98638500D02*
X91124000Y-99146500D01*
D61*
X92326000Y-77795250D02*
X92326000Y-78238500D01*
X88076000Y-78238500D02*
X88076000Y-77810500D01*
X88076000Y-81239500D02*
X89981000Y-83144500D01*
X92326000Y-79588500D02*
X92326000Y-78238500D01*
X89981000Y-83144500D02*
X89981000Y-84665500D01*
X91960250Y-77429500D02*
X92326000Y-77795250D01*
X88457000Y-77429500D02*
X91960250Y-77429500D01*
X88076000Y-78238500D02*
X88076000Y-81239500D01*
X88076000Y-77810500D02*
X88457000Y-77429500D01*
D62*
X87544500Y-118347000D02*
X86886000Y-119005500D01*
X86886000Y-122843000D02*
X86806000Y-122923000D01*
X87544500Y-117688500D02*
X87544500Y-118347000D01*
X86886000Y-119005500D02*
X86886000Y-122843000D01*
X86806000Y-122923000D02*
X86806000Y-122768500D01*
X123798000Y-108452500D02*
X134212000Y-108452500D01*
X193740000Y-119593500D02*
X193740000Y-118958500D01*
X134212000Y-108452500D02*
X136844000Y-111084500D01*
X158561000Y-122260500D02*
X161863000Y-125562500D01*
X113616000Y-96693500D02*
X113616000Y-98270500D01*
X191835000Y-121498500D02*
X193740000Y-119593500D01*
X113616000Y-98270500D02*
X123798000Y-108452500D01*
X157164000Y-118831500D02*
X158561000Y-120228500D01*
X156148000Y-111084500D02*
X157164000Y-112100500D01*
X191835000Y-124038500D02*
X191835000Y-121498500D01*
X157164000Y-112100500D02*
X157164000Y-118831500D01*
X158561000Y-120228500D02*
X158561000Y-122260500D01*
X161863000Y-125562500D02*
X190311000Y-125562500D01*
X190311000Y-125562500D02*
X191835000Y-124038500D01*
X136844000Y-111084500D02*
X156148000Y-111084500D01*
D61*
X198898500Y-120883500D02*
X201340000Y-120883500D01*
X200216000Y-124038500D02*
X200216000Y-123021500D01*
X200216000Y-123021500D02*
X198898500Y-121704000D01*
X201995000Y-116799500D02*
X201741000Y-116545500D01*
X201741000Y-116545500D02*
X201741000Y-115268500D01*
X198898500Y-121704000D02*
X198898500Y-120883500D01*
X201995000Y-120228500D02*
X201995000Y-116799500D01*
X201340000Y-120883500D02*
X201995000Y-120228500D01*
D62*
X133201000Y-94153500D02*
X131116000Y-94153500D01*
X133796000Y-93558500D02*
X133201000Y-94153500D01*
X191708000Y-99482000D02*
X191708000Y-100117000D01*
X190946000Y-98720000D02*
X191708000Y-99482000D01*
D61*
X196945000Y-102859500D02*
X198185000Y-104099500D01*
X199604750Y-97518250D02*
X199604750Y-96225500D01*
X199439500Y-102083000D02*
X200090000Y-101432500D01*
X196945000Y-102083000D02*
X196945000Y-102859500D01*
X200090000Y-101432500D02*
X200090000Y-98003500D01*
X196945000Y-102083000D02*
X199439500Y-102083000D01*
X200090000Y-98003500D02*
X199604750Y-97518250D01*
X198185000Y-104099500D02*
X198185000Y-104988500D01*
D62*
X135066000Y-93558500D02*
X134391000Y-92883500D01*
X134391000Y-92883500D02*
X131116000Y-92883500D01*
X172150000Y-124419500D02*
X173293000Y-123276500D01*
X160593000Y-112735500D02*
X160593000Y-123657500D01*
X173293000Y-121655500D02*
X175355000Y-119593500D01*
X160593000Y-123657500D02*
X161355000Y-124419500D01*
X161355000Y-124419500D02*
X172150000Y-124419500D01*
X173293000Y-123276500D02*
X173293000Y-121655500D01*
X175355000Y-119593500D02*
X175355000Y-118958500D01*
X159196000Y-111338500D02*
X160593000Y-112735500D01*
D61*
X181674000Y-124038500D02*
X181674000Y-122894500D01*
D62*
X183326000Y-115395500D02*
X183274500Y-115344000D01*
D61*
X180435000Y-121655500D02*
X180435000Y-120858500D01*
X182950000Y-120858500D02*
X183580000Y-120228500D01*
X181674000Y-122894500D02*
X180435000Y-121655500D01*
X183580000Y-120228500D02*
X183580000Y-116863000D01*
X183250500Y-116533500D02*
X183250500Y-115268500D01*
X183580000Y-116863000D02*
X183250500Y-116533500D01*
X180435000Y-120858500D02*
X182950000Y-120858500D01*
D62*
X159034000Y-86841500D02*
X159034000Y-86600025D01*
X153634000Y-86600009D02*
X153634000Y-87081500D01*
X140781000Y-84668500D02*
X140781000Y-86446500D01*
X157234000Y-87081500D02*
X157234000Y-87562991D01*
X154834000Y-87081500D02*
X154834000Y-87562991D01*
X148234000Y-87562991D02*
X148234000Y-87081500D01*
X146434000Y-86600009D02*
X146434000Y-87081500D01*
X151234000Y-87081500D02*
X151234000Y-87562991D01*
X149074000Y-87802991D02*
X149194000Y-87802991D01*
X147034000Y-87562991D02*
X147034000Y-87081500D01*
X157234000Y-86600009D02*
X157234000Y-87081500D01*
X144034000Y-86600009D02*
X144034000Y-86841500D01*
X159634000Y-86600025D02*
X159634000Y-86841500D01*
X148834000Y-86600009D02*
X148834000Y-87081500D01*
X153034000Y-87562991D02*
X153034000Y-87081500D01*
X156634000Y-87081500D02*
X156634000Y-86600009D01*
X160438949Y-87081500D02*
X161101000Y-87081500D01*
X153634000Y-87081500D02*
X153634000Y-87562991D01*
X155434000Y-87562991D02*
X155434000Y-87081500D01*
X161101000Y-87081500D02*
X161736000Y-86446500D01*
X150634000Y-87081500D02*
X150634000Y-86600009D01*
X146074000Y-86360009D02*
X146194000Y-86360009D01*
X147034000Y-87081500D02*
X147034000Y-86600009D01*
X141670000Y-85557500D02*
X143194000Y-87081500D01*
X144274000Y-87802991D02*
X144394000Y-87802991D01*
X145234000Y-86600009D02*
X145234000Y-87081500D01*
X150874000Y-86360009D02*
X150994000Y-86360009D01*
X150634000Y-87562991D02*
X150634000Y-87081500D01*
X155434000Y-87081500D02*
X155434000Y-86600009D01*
X158674000Y-87802975D02*
X158794000Y-87802975D01*
X156034000Y-87081500D02*
X156034000Y-87562991D01*
X152074000Y-86360009D02*
X152194000Y-86360009D01*
X156274000Y-87802991D02*
X156394000Y-87802991D01*
X159034000Y-87081500D02*
X159034000Y-86841500D01*
X140781000Y-85557500D02*
X141670000Y-85557500D01*
X152674000Y-87802991D02*
X152794000Y-87802991D01*
X145834000Y-87562991D02*
X145834000Y-87081500D01*
X147874000Y-87802991D02*
X147994000Y-87802991D01*
X149674000Y-86360009D02*
X149794000Y-86360009D01*
X150274000Y-87802991D02*
X150394000Y-87802991D01*
X157474000Y-87802991D02*
X157594000Y-87802991D01*
X161736000Y-86446500D02*
X161736000Y-85378500D01*
X144874000Y-86360009D02*
X144994000Y-86360009D01*
X147274000Y-86360009D02*
X147394000Y-86360009D01*
X144034000Y-87081500D02*
X144034000Y-87562991D01*
X147634000Y-87081500D02*
X147634000Y-87562991D01*
X149434000Y-87081500D02*
X149434000Y-86600009D01*
X157834000Y-87081500D02*
X157834000Y-86600025D01*
X157834000Y-87562991D02*
X157834000Y-87081500D01*
X153034000Y-87081500D02*
X153034000Y-86600009D01*
X148234000Y-87081500D02*
X148234000Y-86600009D01*
X159994000Y-87081500D02*
X160438949Y-87081500D01*
X145834000Y-87081500D02*
X145834000Y-86600009D01*
X158434000Y-86600025D02*
X158434000Y-87081500D01*
X156874000Y-86360009D02*
X156994000Y-86360009D01*
X151474000Y-87802991D02*
X151594000Y-87802991D01*
X149434000Y-87562991D02*
X149434000Y-87081500D01*
X158074000Y-86360025D02*
X158194000Y-86360025D01*
X143434000Y-86841500D02*
X143434000Y-86600009D01*
X154234000Y-87562991D02*
X154234000Y-87081500D01*
X156634000Y-87562991D02*
X156634000Y-87081500D01*
X151234000Y-86600009D02*
X151234000Y-87081500D01*
X150034000Y-87081500D02*
X150034000Y-87562991D01*
X146674000Y-87802991D02*
X146794000Y-87802991D01*
X154234000Y-87081500D02*
X154234000Y-86600009D01*
X159874000Y-87081500D02*
X159994000Y-87081500D01*
X155674000Y-86360009D02*
X155794000Y-86360009D01*
X153874000Y-87802991D02*
X153994000Y-87802991D01*
X152434000Y-87081500D02*
X152434000Y-87562991D01*
X144034000Y-86841500D02*
X144034000Y-87081500D01*
X152434000Y-86600009D02*
X152434000Y-87081500D01*
X155074000Y-87802991D02*
X155194000Y-87802991D01*
X151834000Y-87562991D02*
X151834000Y-87081500D01*
X151834000Y-87081500D02*
X151834000Y-86600009D01*
X154834000Y-86600009D02*
X154834000Y-87081500D01*
X154474000Y-86360009D02*
X154594000Y-86360009D01*
X148474000Y-86360009D02*
X148594000Y-86360009D01*
X148834000Y-87081500D02*
X148834000Y-87562991D01*
X145474000Y-87802991D02*
X145594000Y-87802991D01*
X144634000Y-87081500D02*
X144634000Y-86600009D01*
X147634000Y-86600009D02*
X147634000Y-87081500D01*
X144634000Y-87562991D02*
X144634000Y-87081500D01*
X145234000Y-87081500D02*
X145234000Y-87562991D01*
X153274000Y-86360009D02*
X153394000Y-86360009D01*
X150034000Y-86600009D02*
X150034000Y-87081500D01*
X143674000Y-86360009D02*
X143794000Y-86360009D01*
X146434000Y-87081500D02*
X146434000Y-87562991D01*
X159274000Y-86360025D02*
X159394000Y-86360025D01*
X156034000Y-86600009D02*
X156034000Y-87081500D01*
X159034000Y-87562975D02*
X159034000Y-87081500D01*
X158434000Y-87081500D02*
X158434000Y-87562975D01*
X151234000Y-87562991D02*
G75*
G03*
X151474000Y-87803000I240000J-9D01*
G01*
X152194000Y-86360009D02*
G75*
G02*
X152433991Y-86600009I0J-239991D01*
G01*
X159034000Y-86600025D02*
G75*
G02*
X159274000Y-86360000I240000J25D01*
G01*
X150634000Y-86600009D02*
G75*
G02*
X150874000Y-86360000I240000J9D01*
G01*
X143794000Y-86360009D02*
G75*
G02*
X144033991Y-86600009I0J-239991D01*
G01*
X145234000Y-87562991D02*
G75*
G03*
X145474000Y-87803000I240000J-9D01*
G01*
X156394000Y-87802991D02*
G75*
G03*
X156633991Y-87562991I0J239991D01*
G01*
X156034000Y-87562991D02*
G75*
G03*
X156274000Y-87803000I240000J-9D01*
G01*
X158794000Y-87802975D02*
G75*
G03*
X159033975Y-87562975I0J239975D01*
G01*
X148834000Y-87562991D02*
G75*
G03*
X149074000Y-87803000I240000J-9D01*
G01*
X157594000Y-87802991D02*
G75*
G03*
X157833991Y-87562991I0J239991D01*
G01*
X143194000Y-87081500D02*
G75*
G03*
X143434000Y-86841500I0J240000D01*
G01*
X155794000Y-86360009D02*
G75*
G02*
X156033991Y-86600009I0J-239991D01*
G01*
X155434000Y-86600009D02*
G75*
G02*
X155674000Y-86360000I240000J9D01*
G01*
X150394000Y-87802991D02*
G75*
G03*
X150633991Y-87562991I0J239991D01*
G01*
X153994000Y-87802991D02*
G75*
G03*
X154233991Y-87562991I0J239991D01*
G01*
X147034000Y-86600009D02*
G75*
G02*
X147274000Y-86360000I240000J9D01*
G01*
X146434000Y-87562991D02*
G75*
G03*
X146674000Y-87803000I240000J-9D01*
G01*
X146194000Y-86360009D02*
G75*
G02*
X146433991Y-86600009I0J-239991D01*
G01*
X153034000Y-86600009D02*
G75*
G02*
X153274000Y-86360000I240000J9D01*
G01*
X147394000Y-86360009D02*
G75*
G02*
X147633991Y-86600009I0J-239991D01*
G01*
X154834000Y-87562991D02*
G75*
G03*
X155074000Y-87803000I240000J-9D01*
G01*
X148594000Y-86360009D02*
G75*
G02*
X148833991Y-86600009I0J-239991D01*
G01*
X147994000Y-87802991D02*
G75*
G03*
X148233991Y-87562991I0J239991D01*
G01*
X155194000Y-87802991D02*
G75*
G03*
X155433991Y-87562991I0J239991D01*
G01*
X143434000Y-86600009D02*
G75*
G02*
X143674000Y-86360000I240000J9D01*
G01*
X152794000Y-87802991D02*
G75*
G03*
X153033991Y-87562991I0J239991D01*
G01*
X153634000Y-87562991D02*
G75*
G03*
X153874000Y-87803000I240000J-9D01*
G01*
X146794000Y-87802991D02*
G75*
G03*
X147033991Y-87562991I0J239991D01*
G01*
X158194000Y-86360025D02*
G75*
G02*
X158433975Y-86600025I0J-239975D01*
G01*
X144394000Y-87802991D02*
G75*
G03*
X144633991Y-87562991I0J239991D01*
G01*
X157834000Y-86600025D02*
G75*
G02*
X158074000Y-86360000I240000J25D01*
G01*
X148234000Y-86600009D02*
G75*
G02*
X148474000Y-86360000I240000J9D01*
G01*
X152434000Y-87562991D02*
G75*
G03*
X152674000Y-87803000I240000J-9D01*
G01*
X144994000Y-86360009D02*
G75*
G02*
X145233991Y-86600009I0J-239991D01*
G01*
X156994000Y-86360009D02*
G75*
G02*
X157233991Y-86600009I0J-239991D01*
G01*
X158434000Y-87562975D02*
G75*
G03*
X158674000Y-87803000I240000J-25D01*
G01*
X159394000Y-86360025D02*
G75*
G02*
X159633975Y-86600025I0J-239975D01*
G01*
X154234000Y-86600009D02*
G75*
G02*
X154474000Y-86360000I240000J9D01*
G01*
X145834000Y-86600009D02*
G75*
G02*
X146074000Y-86360000I240000J9D01*
G01*
X149434000Y-86600009D02*
G75*
G02*
X149674000Y-86360000I240000J9D01*
G01*
X157234000Y-87562991D02*
G75*
G03*
X157474000Y-87803000I240000J-9D01*
G01*
X147634000Y-87562991D02*
G75*
G03*
X147874000Y-87803000I240000J-9D01*
G01*
X156634000Y-86600009D02*
G75*
G02*
X156874000Y-86360000I240000J9D01*
G01*
X153394000Y-86360009D02*
G75*
G02*
X153633991Y-86600009I0J-239991D01*
G01*
X144034000Y-87562991D02*
G75*
G03*
X144274000Y-87803000I240000J-9D01*
G01*
X149794000Y-86360009D02*
G75*
G02*
X150033991Y-86600009I0J-239991D01*
G01*
X151594000Y-87802991D02*
G75*
G03*
X151833991Y-87562991I0J239991D01*
G01*
X149194000Y-87802991D02*
G75*
G03*
X149433991Y-87562991I0J239991D01*
G01*
X150034000Y-87562991D02*
G75*
G03*
X150274000Y-87803000I240000J-9D01*
G01*
X159634000Y-86841500D02*
G75*
G03*
X159874000Y-87081500I240000J0D01*
G01*
X150994000Y-86360009D02*
G75*
G02*
X151233991Y-86600009I0J-239991D01*
G01*
X154594000Y-86360009D02*
G75*
G02*
X154833991Y-86600009I0J-239991D01*
G01*
X151834000Y-86600009D02*
G75*
G02*
X152074000Y-86360000I240000J9D01*
G01*
X144634000Y-86600009D02*
G75*
G02*
X144874000Y-86360000I240000J9D01*
G01*
X145594000Y-87802991D02*
G75*
G03*
X145833991Y-87562991I0J239991D01*
G01*
X149289917Y-79588586D02*
X149289915Y-79588585D01*
X153836000Y-79554152D02*
X153956000Y-79554152D01*
X146115000Y-82763500D02*
X146574619Y-82303881D01*
X154796000Y-78812500D02*
X154796000Y-79314152D01*
X149883883Y-78994613D02*
X149968737Y-78909762D01*
X153236000Y-78572500D02*
X153356000Y-78572500D01*
X142933932Y-83505164D02*
X142933932Y-83003500D01*
X143533932Y-82763500D02*
X143533932Y-83505164D01*
X144973932Y-83745152D02*
X145093932Y-83745152D01*
X149012977Y-79311646D02*
X149289917Y-79588586D01*
X147168589Y-81709911D02*
X146891641Y-81432963D01*
X147693040Y-82234362D02*
X147338293Y-81879615D01*
X151196000Y-78812500D02*
X151196000Y-79314164D01*
X147740181Y-80245030D02*
X147825035Y-80160177D01*
X165736500Y-78572500D02*
X166316000Y-79152000D01*
X142573932Y-83745164D02*
X142693932Y-83745164D01*
X160466000Y-78572500D02*
X165736500Y-78572500D01*
X152396000Y-78812500D02*
X152396000Y-79314164D01*
X148017119Y-80861381D02*
X147740180Y-80584442D01*
X148456693Y-81810072D02*
X148541545Y-81725219D01*
X142933932Y-82763500D02*
X142933932Y-82021836D01*
X148017117Y-80861379D02*
X148017119Y-80861381D01*
X147168587Y-81709909D02*
X147168589Y-81709911D01*
X147592857Y-81285646D02*
X147592855Y-81285645D01*
X150306000Y-78572500D02*
X150956000Y-78572500D01*
X148865649Y-80012851D02*
X148588710Y-79735912D01*
X150238630Y-79688772D02*
X149883883Y-79334025D01*
X140781000Y-82763500D02*
X142093932Y-82763500D01*
X156836000Y-78572500D02*
X156956000Y-78572500D01*
X149459620Y-79758290D02*
X149814367Y-80113037D01*
X144733932Y-82763500D02*
X144733932Y-83003500D01*
X148865647Y-80012849D02*
X148865649Y-80012851D01*
X152036000Y-78572500D02*
X152156000Y-78572500D01*
X149289915Y-79588585D02*
X149459620Y-79758290D01*
X151796000Y-79314164D02*
X151796000Y-78812500D01*
X147608188Y-82658627D02*
X147693040Y-82573774D01*
X144133932Y-83505164D02*
X144133932Y-82763500D01*
X147592855Y-81285645D02*
X148117282Y-81810072D01*
X145573932Y-82763500D02*
X145693932Y-82763500D01*
X143533932Y-82021836D02*
X143533932Y-82763500D01*
X148441385Y-80437115D02*
X148965803Y-80961533D01*
X148164447Y-80160176D02*
X148441387Y-80437116D01*
X147315908Y-81008697D02*
X147592857Y-81285646D01*
X155036000Y-79554152D02*
X155156000Y-79554152D01*
X154196000Y-79314152D02*
X154196000Y-78812500D01*
X144133932Y-82763500D02*
X144133932Y-82021836D01*
X144733932Y-82021836D02*
X144733932Y-82763500D01*
X146891642Y-81093551D02*
X146976496Y-81008698D01*
X148541545Y-81385807D02*
X148017117Y-80861379D01*
X155396000Y-79314152D02*
X155396000Y-78812500D01*
X149390066Y-80537268D02*
X148865647Y-80012849D01*
X142933932Y-83003500D02*
X142933932Y-82763500D01*
X156956000Y-78572500D02*
X160466000Y-78572500D01*
X147338293Y-81879615D02*
X147168587Y-81709909D01*
X151436000Y-79554164D02*
X151556000Y-79554164D01*
X152636000Y-79554164D02*
X152756000Y-79554164D01*
X144373932Y-81781836D02*
X144493932Y-81781836D01*
X143773932Y-83745164D02*
X143893932Y-83745164D01*
X156596000Y-79314152D02*
X156596000Y-78812500D01*
X148588711Y-79396500D02*
X148673565Y-79311647D01*
X145693932Y-82763500D02*
X146115000Y-82763500D01*
X144733932Y-83003500D02*
X144733932Y-83505152D01*
X148441387Y-80437116D02*
X148441385Y-80437115D01*
X153596000Y-78812500D02*
X153596000Y-79314152D01*
X155996000Y-78812500D02*
X155996000Y-79314152D01*
X155636000Y-78572500D02*
X155756000Y-78572500D01*
X146914030Y-82303881D02*
X147268776Y-82658627D01*
X166316000Y-79152000D02*
X166316000Y-81418500D01*
X143173932Y-81781836D02*
X143293932Y-81781836D01*
X152996000Y-79314164D02*
X152996000Y-78812500D01*
X156236000Y-79554152D02*
X156356000Y-79554152D01*
X149968737Y-78909762D02*
X150306000Y-78572500D01*
X145333932Y-83505152D02*
X145333932Y-83003500D01*
X149305214Y-80961533D02*
X149390066Y-80876680D01*
X154436000Y-78572500D02*
X154556000Y-78572500D01*
X150153778Y-80113037D02*
X150238630Y-80028184D01*
X142333932Y-83003500D02*
X142333932Y-83505164D01*
X155396000Y-78812500D02*
G75*
G02*
X155636000Y-78572500I240000J0D01*
G01*
X148588710Y-79735912D02*
G75*
G02*
X148588704Y-79396493I169690J169712D01*
G01*
X146891641Y-81432963D02*
G75*
G02*
X146891684Y-81093594I169659J169663D01*
G01*
X153356000Y-78572500D02*
G75*
G02*
X153596000Y-78812500I0J-240000D01*
G01*
X150238630Y-80028184D02*
G75*
G03*
X150238608Y-79688794I-169730J169684D01*
G01*
X154556000Y-78572500D02*
G75*
G02*
X154796000Y-78812500I0J-240000D01*
G01*
X147268776Y-82658627D02*
G75*
G03*
X147608188Y-82658627I169706J169704D01*
G01*
X148541545Y-81725219D02*
G75*
G03*
X148541558Y-81385794I-169745J169719D01*
G01*
X148965803Y-80961533D02*
G75*
G03*
X149305214Y-80961534I169706J169707D01*
G01*
X151556000Y-79554164D02*
G75*
G03*
X151795964Y-79314164I0J239964D01*
G01*
X152756000Y-79554164D02*
G75*
G03*
X152995964Y-79314164I0J239964D01*
G01*
X156356000Y-79554152D02*
G75*
G03*
X156595952Y-79314152I0J239952D01*
G01*
X148117282Y-81810072D02*
G75*
G03*
X148456693Y-81810073I169706J169707D01*
G01*
X142333932Y-83505164D02*
G75*
G03*
X142573932Y-83745168I239968J-36D01*
G01*
X146976496Y-81008698D02*
G75*
G02*
X147315905Y-81008699I169704J-169702D01*
G01*
X153956000Y-79554152D02*
G75*
G03*
X154195952Y-79314152I0J239952D01*
G01*
X155156000Y-79554152D02*
G75*
G03*
X155395952Y-79314152I0J239952D01*
G01*
X142933932Y-82021836D02*
G75*
G02*
X143173932Y-81781832I239968J36D01*
G01*
X143293932Y-81781836D02*
G75*
G02*
X143533864Y-82021836I-32J-239964D01*
G01*
X145333932Y-83003500D02*
G75*
G02*
X145573932Y-82763532I239968J0D01*
G01*
X152156000Y-78572500D02*
G75*
G02*
X152396000Y-78812500I0J-240000D01*
G01*
X144133932Y-82021836D02*
G75*
G02*
X144373932Y-81781832I239968J36D01*
G01*
X142693932Y-83745164D02*
G75*
G03*
X142933864Y-83505164I-32J239964D01*
G01*
X148673565Y-79311647D02*
G75*
G02*
X149013006Y-79311617I169735J-169653D01*
G01*
X147693040Y-82573774D02*
G75*
G03*
X147693008Y-82234394I-169740J169674D01*
G01*
X156596000Y-78812500D02*
G75*
G02*
X156836000Y-78572500I240000J0D01*
G01*
X142093932Y-82763500D02*
G75*
G02*
X142333900Y-83003500I-32J-240000D01*
G01*
X152396000Y-79314164D02*
G75*
G03*
X152636000Y-79554200I240000J-36D01*
G01*
X149814367Y-80113037D02*
G75*
G03*
X150153778Y-80113038I169706J169707D01*
G01*
X145093932Y-83745152D02*
G75*
G03*
X145333852Y-83505152I-32J239952D01*
G01*
X144733932Y-83505152D02*
G75*
G03*
X144973932Y-83745168I239968J-48D01*
G01*
X154196000Y-78812500D02*
G75*
G02*
X154436000Y-78572500I240000J0D01*
G01*
X151796000Y-78812500D02*
G75*
G02*
X152036000Y-78572500I240000J0D01*
G01*
X144493932Y-81781836D02*
G75*
G02*
X144733864Y-82021836I-32J-239964D01*
G01*
X146574619Y-82303881D02*
G75*
G02*
X146914030Y-82303880I169706J-169707D01*
G01*
X152996000Y-78812500D02*
G75*
G02*
X153236000Y-78572500I240000J0D01*
G01*
X143893932Y-83745164D02*
G75*
G03*
X144133864Y-83505164I-32J239964D01*
G01*
X143533932Y-83505164D02*
G75*
G03*
X143773932Y-83745168I239968J-36D01*
G01*
X151196000Y-79314164D02*
G75*
G03*
X151436000Y-79554200I240000J-36D01*
G01*
X147740180Y-80584442D02*
G75*
G02*
X147740144Y-80244994I169720J169742D01*
G01*
X150956000Y-78572500D02*
G75*
G02*
X151196000Y-78812500I0J-240000D01*
G01*
X155756000Y-78572500D02*
G75*
G02*
X155996000Y-78812500I0J-240000D01*
G01*
X153596000Y-79314152D02*
G75*
G03*
X153836000Y-79554200I240000J-48D01*
G01*
X155996000Y-79314152D02*
G75*
G03*
X156236000Y-79554200I240000J-48D01*
G01*
X147825035Y-80160177D02*
G75*
G02*
X148164405Y-80160217I169665J-169723D01*
G01*
X149390066Y-80876680D02*
G75*
G03*
X149390040Y-80537294I-169666J169680D01*
G01*
X149883883Y-79334025D02*
G75*
G02*
X149883864Y-78994594I169717J169725D01*
G01*
X154796000Y-79314152D02*
G75*
G03*
X155036000Y-79554200I240000J-48D01*
G01*
X153218000Y-89491517D02*
X153218000Y-89113500D01*
X151058000Y-88495483D02*
X151178000Y-88495483D01*
X159218000Y-89491531D02*
X159218000Y-89113500D01*
X154658000Y-88495483D02*
X154778000Y-88495483D01*
X146858000Y-89731504D02*
X146978000Y-89731504D01*
X142658000Y-88495496D02*
X142778000Y-88495496D01*
X164026000Y-86442500D02*
X164026000Y-85378500D01*
X144818000Y-89491504D02*
X144818000Y-89113500D01*
X160058000Y-89731531D02*
X160178000Y-89731531D01*
X153218000Y-89113500D02*
X153218000Y-88735483D01*
X148058000Y-89731504D02*
X148178000Y-89731504D01*
X158018000Y-89491531D02*
X158018000Y-89113500D01*
X145418000Y-88735496D02*
X145418000Y-89113500D01*
X157418000Y-88735496D02*
X157418000Y-89113500D01*
X154418000Y-89113500D02*
X154418000Y-88735483D01*
X149018000Y-89113500D02*
X149018000Y-89491504D01*
X147458000Y-88495496D02*
X147578000Y-88495496D01*
X158618000Y-89113500D02*
X158618000Y-89491531D01*
X148418000Y-89491504D02*
X148418000Y-89113500D01*
X147218000Y-89491504D02*
X147218000Y-89113500D01*
X158618000Y-88735496D02*
X158618000Y-89113500D01*
X143018000Y-88735496D02*
X143018000Y-88873500D01*
X155858000Y-88495483D02*
X155978000Y-88495483D01*
X143258000Y-89731504D02*
X143378000Y-89731504D01*
X140781000Y-89113500D02*
X142178000Y-89113500D01*
X150818000Y-89113500D02*
X150818000Y-88735483D01*
X155018000Y-89113500D02*
X155018000Y-89491517D01*
X160418000Y-89491531D02*
X160418000Y-89353500D01*
X147818000Y-89113500D02*
X147818000Y-89491504D01*
X157658000Y-89731531D02*
X157778000Y-89731531D01*
X161355000Y-89113500D02*
X164026000Y-86442500D01*
X157058000Y-88495496D02*
X157178000Y-88495496D01*
X153458000Y-88495483D02*
X153578000Y-88495483D01*
X156218000Y-89113500D02*
X156218000Y-89491517D01*
X152258000Y-88495483D02*
X152378000Y-88495483D01*
X146018000Y-89491504D02*
X146018000Y-89113500D01*
X146018000Y-89113500D02*
X146018000Y-88735496D01*
X149018000Y-88735496D02*
X149018000Y-89113500D01*
X143018000Y-88873500D02*
X143018000Y-89113500D01*
X143018000Y-89113500D02*
X143018000Y-89491504D01*
X156218000Y-88735483D02*
X156218000Y-89113500D01*
X158018000Y-89113500D02*
X158018000Y-88735496D01*
X154418000Y-89491517D02*
X154418000Y-89113500D01*
X143858000Y-88495496D02*
X143978000Y-88495496D01*
X145658000Y-89731504D02*
X145778000Y-89731504D01*
X148658000Y-88495496D02*
X148778000Y-88495496D01*
X147818000Y-88735496D02*
X147818000Y-89113500D01*
X151418000Y-89113500D02*
X151418000Y-89491517D01*
X143618000Y-89491504D02*
X143618000Y-89113500D01*
X153818000Y-89113500D02*
X153818000Y-89491517D01*
X149618000Y-89113500D02*
X149618000Y-88735496D01*
X156818000Y-89113500D02*
X156818000Y-88735496D01*
X158858000Y-89731531D02*
X158978000Y-89731531D01*
X146618000Y-89113500D02*
X146618000Y-89491504D01*
X152618000Y-89113500D02*
X152618000Y-89491517D01*
X160658000Y-89113500D02*
X160778000Y-89113500D01*
X155018000Y-88735483D02*
X155018000Y-89113500D01*
X159818000Y-88735496D02*
X159818000Y-89113500D01*
X152018000Y-89491517D02*
X152018000Y-89113500D01*
X149858000Y-88495496D02*
X149978000Y-88495496D01*
X151658000Y-89731517D02*
X151778000Y-89731517D01*
X150218000Y-88735496D02*
X150218000Y-89113500D01*
X146258000Y-88495496D02*
X146378000Y-88495496D01*
X149618000Y-89491504D02*
X149618000Y-89113500D01*
X157418000Y-89113500D02*
X157418000Y-89491531D01*
X151418000Y-88735483D02*
X151418000Y-89113500D01*
X152018000Y-89113500D02*
X152018000Y-88735483D01*
X148418000Y-89113500D02*
X148418000Y-88735496D01*
X142418000Y-88873500D02*
X142418000Y-88735496D01*
X160778000Y-89113500D02*
X161228000Y-89113500D01*
X150818000Y-89491504D02*
X150818000Y-89113500D01*
X154058000Y-89731517D02*
X154178000Y-89731517D01*
X159218000Y-89113500D02*
X159218000Y-88735496D01*
X155618000Y-89113500D02*
X155618000Y-88735483D01*
X161228000Y-89113500D02*
X161355000Y-89113500D01*
X159818000Y-89353500D02*
X159818000Y-89491531D01*
X149258000Y-89731504D02*
X149378000Y-89731504D01*
X144218000Y-89113500D02*
X144218000Y-89491504D01*
X145058000Y-88495496D02*
X145178000Y-88495496D01*
X144218000Y-88735496D02*
X144218000Y-89113500D01*
X140781000Y-88224500D02*
X140781000Y-90002500D01*
X153818000Y-88735483D02*
X153818000Y-89113500D01*
X155258000Y-89731517D02*
X155378000Y-89731517D01*
X156818000Y-89491517D02*
X156818000Y-89113500D01*
X150218000Y-89113500D02*
X150218000Y-89491504D01*
X143618000Y-89113500D02*
X143618000Y-88735496D01*
X152618000Y-88735483D02*
X152618000Y-89113500D01*
X152858000Y-89731517D02*
X152978000Y-89731517D01*
X159818000Y-89113500D02*
X159818000Y-89353500D01*
X156458000Y-89731517D02*
X156578000Y-89731517D01*
X144458000Y-89731504D02*
X144578000Y-89731504D01*
X145418000Y-89113500D02*
X145418000Y-89491504D01*
X147218000Y-89113500D02*
X147218000Y-88735496D01*
X155618000Y-89491517D02*
X155618000Y-89113500D01*
X146618000Y-88735496D02*
X146618000Y-89113500D01*
X159458000Y-88495496D02*
X159578000Y-88495496D01*
X150458000Y-89731504D02*
X150578000Y-89731504D01*
X158258000Y-88495496D02*
X158378000Y-88495496D01*
X144818000Y-89113500D02*
X144818000Y-88735496D01*
X155378000Y-89731517D02*
G75*
G03*
X155618017Y-89491517I0J240017D01*
G01*
X156818000Y-88735496D02*
G75*
G02*
X157058000Y-88495500I240000J-4D01*
G01*
X149978000Y-88495496D02*
G75*
G02*
X150218004Y-88735496I0J-240004D01*
G01*
X149018000Y-89491504D02*
G75*
G03*
X149258000Y-89731500I240000J4D01*
G01*
X158018000Y-88735496D02*
G75*
G02*
X158258000Y-88495500I240000J-4D01*
G01*
X148418000Y-88735496D02*
G75*
G02*
X148658000Y-88495500I240000J-4D01*
G01*
X156218000Y-89491517D02*
G75*
G03*
X156458000Y-89731500I240000J17D01*
G01*
X159818000Y-89491531D02*
G75*
G03*
X160058000Y-89731500I240000J31D01*
G01*
X157778000Y-89731531D02*
G75*
G03*
X158018031Y-89491531I0J240031D01*
G01*
X153218000Y-88735483D02*
G75*
G02*
X153458000Y-88495500I240000J-17D01*
G01*
X145418000Y-89491504D02*
G75*
G03*
X145658000Y-89731500I240000J4D01*
G01*
X142418000Y-88735496D02*
G75*
G02*
X142658000Y-88495500I240000J-4D01*
G01*
X147218000Y-88735496D02*
G75*
G02*
X147458000Y-88495500I240000J-4D01*
G01*
X158378000Y-88495496D02*
G75*
G02*
X158618004Y-88735496I0J-240004D01*
G01*
X156578000Y-89731517D02*
G75*
G03*
X156818017Y-89491517I0J240017D01*
G01*
X152618000Y-89491517D02*
G75*
G03*
X152858000Y-89731500I240000J17D01*
G01*
X143018000Y-89491504D02*
G75*
G03*
X143258000Y-89731500I240000J4D01*
G01*
X143378000Y-89731504D02*
G75*
G03*
X143618004Y-89491504I0J240004D01*
G01*
X150218000Y-89491504D02*
G75*
G03*
X150458000Y-89731500I240000J4D01*
G01*
X144578000Y-89731504D02*
G75*
G03*
X144818004Y-89491504I0J240004D01*
G01*
X147578000Y-88495496D02*
G75*
G02*
X147818004Y-88735496I0J-240004D01*
G01*
X151178000Y-88495483D02*
G75*
G02*
X151418017Y-88735483I0J-240017D01*
G01*
X142778000Y-88495496D02*
G75*
G02*
X143018004Y-88735496I0J-240004D01*
G01*
X150818000Y-88735483D02*
G75*
G02*
X151058000Y-88495500I240000J-17D01*
G01*
X150578000Y-89731504D02*
G75*
G03*
X150818004Y-89491504I0J240004D01*
G01*
X153578000Y-88495483D02*
G75*
G02*
X153818017Y-88735483I0J-240017D01*
G01*
X154178000Y-89731517D02*
G75*
G03*
X154418017Y-89491517I0J240017D01*
G01*
X158978000Y-89731531D02*
G75*
G03*
X159218031Y-89491531I0J240031D01*
G01*
X159578000Y-88495496D02*
G75*
G02*
X159818004Y-88735496I0J-240004D01*
G01*
X144818000Y-88735496D02*
G75*
G02*
X145058000Y-88495500I240000J-4D01*
G01*
X155978000Y-88495483D02*
G75*
G02*
X156218017Y-88735483I0J-240017D01*
G01*
X146378000Y-88495496D02*
G75*
G02*
X146618004Y-88735496I0J-240004D01*
G01*
X147818000Y-89491504D02*
G75*
G03*
X148058000Y-89731500I240000J4D01*
G01*
X151778000Y-89731517D02*
G75*
G03*
X152018017Y-89491517I0J240017D01*
G01*
X157178000Y-88495496D02*
G75*
G02*
X157418004Y-88735496I0J-240004D01*
G01*
X151418000Y-89491517D02*
G75*
G03*
X151658000Y-89731500I240000J17D01*
G01*
X155618000Y-88735483D02*
G75*
G02*
X155858000Y-88495500I240000J-17D01*
G01*
X145778000Y-89731504D02*
G75*
G03*
X146018004Y-89491504I0J240004D01*
G01*
X160178000Y-89731531D02*
G75*
G03*
X160418031Y-89491531I0J240031D01*
G01*
X157418000Y-89491531D02*
G75*
G03*
X157658000Y-89731500I240000J31D01*
G01*
X149378000Y-89731504D02*
G75*
G03*
X149618004Y-89491504I0J240004D01*
G01*
X159218000Y-88735496D02*
G75*
G02*
X159458000Y-88495500I240000J-4D01*
G01*
X143978000Y-88495496D02*
G75*
G02*
X144218004Y-88735496I0J-240004D01*
G01*
X154418000Y-88735483D02*
G75*
G02*
X154658000Y-88495500I240000J-17D01*
G01*
X149618000Y-88735496D02*
G75*
G02*
X149858000Y-88495500I240000J-4D01*
G01*
X148778000Y-88495496D02*
G75*
G02*
X149018004Y-88735496I0J-240004D01*
G01*
X146618000Y-89491504D02*
G75*
G03*
X146858000Y-89731500I240000J4D01*
G01*
X152978000Y-89731517D02*
G75*
G03*
X153218017Y-89491517I0J240017D01*
G01*
X160418000Y-89353500D02*
G75*
G02*
X160658000Y-89113500I240000J0D01*
G01*
X145178000Y-88495496D02*
G75*
G02*
X145418004Y-88735496I0J-240004D01*
G01*
X152378000Y-88495483D02*
G75*
G02*
X152618017Y-88735483I0J-240017D01*
G01*
X154778000Y-88495483D02*
G75*
G02*
X155018017Y-88735483I0J-240017D01*
G01*
X142178000Y-89113500D02*
G75*
G03*
X142418000Y-88873500I0J240000D01*
G01*
X146978000Y-89731504D02*
G75*
G03*
X147218004Y-89491504I0J240004D01*
G01*
X146018000Y-88735496D02*
G75*
G02*
X146258000Y-88495500I240000J-4D01*
G01*
X144218000Y-89491504D02*
G75*
G03*
X144458000Y-89731500I240000J4D01*
G01*
X148178000Y-89731504D02*
G75*
G03*
X148418004Y-89491504I0J240004D01*
G01*
X153818000Y-89491517D02*
G75*
G03*
X154058000Y-89731500I240000J17D01*
G01*
X158618000Y-89491531D02*
G75*
G03*
X158858000Y-89731500I240000J31D01*
G01*
X152018000Y-88735483D02*
G75*
G02*
X152258000Y-88495500I240000J-17D01*
G01*
X143618000Y-88735496D02*
G75*
G02*
X143858000Y-88495500I240000J-4D01*
G01*
X155018000Y-89491517D02*
G75*
G03*
X155258000Y-89731500I240000J17D01*
G01*
X140781000Y-80858500D02*
X146623000Y-80858500D01*
X167641500Y-78191500D02*
X168606000Y-79156000D01*
X146623000Y-80858500D02*
X149290000Y-78191500D01*
X168606000Y-79156000D02*
X168606000Y-81418500D01*
X149290000Y-78191500D02*
X167641500Y-78191500D01*
X143078328Y-91032500D02*
X143078328Y-90924842D01*
X157478328Y-91272500D02*
X157478328Y-90924852D01*
X158918328Y-90684852D02*
X159038328Y-90684852D01*
X154118328Y-90684848D02*
X154238328Y-90684848D01*
X161482000Y-91272500D02*
X166316000Y-86438500D01*
X159278328Y-90924852D02*
X159278328Y-91272500D01*
X153878328Y-91620158D02*
X153878328Y-91272500D01*
X159878328Y-91620152D02*
X159878328Y-91512500D01*
X148718328Y-91860158D02*
X148838328Y-91860158D01*
X145478328Y-91620158D02*
X145478328Y-91272500D01*
X153278328Y-91272500D02*
X153278328Y-91620158D01*
X150518328Y-90684842D02*
X150638328Y-90684842D01*
X157478328Y-91620149D02*
X157478328Y-91272500D01*
X155918328Y-91860152D02*
X156038328Y-91860152D01*
X149678328Y-91272500D02*
X149678328Y-91620158D01*
X144278328Y-91620158D02*
X144278328Y-91272500D01*
X143318328Y-90684842D02*
X143438328Y-90684842D01*
X155678328Y-90924848D02*
X155678328Y-91272500D01*
X155318328Y-90684848D02*
X155438328Y-90684848D01*
X147278328Y-91272500D02*
X147278328Y-91620158D01*
X146918328Y-90684842D02*
X147038328Y-90684842D01*
X149318328Y-90684842D02*
X149438328Y-90684842D01*
X146078328Y-91272500D02*
X146078328Y-91620158D01*
X158318328Y-91860149D02*
X158438328Y-91860149D01*
X150278328Y-91272500D02*
X150278328Y-90924842D01*
X146678328Y-91272500D02*
X146678328Y-90924842D01*
X152078328Y-91272500D02*
X152078328Y-91620158D01*
X140781000Y-92669500D02*
X141289000Y-92669500D01*
X147278328Y-90924842D02*
X147278328Y-91272500D01*
X151478328Y-91620158D02*
X151478328Y-91272500D01*
X160118328Y-91272500D02*
X160238328Y-91272500D01*
X154718328Y-91860152D02*
X154838328Y-91860152D01*
X143678328Y-91272500D02*
X143678328Y-91620158D01*
X147878328Y-91620158D02*
X147878328Y-91272500D01*
X159278328Y-91512500D02*
X159278328Y-91620152D01*
X144878328Y-90924842D02*
X144878328Y-91272500D01*
X143678328Y-90924842D02*
X143678328Y-91032500D01*
X146318328Y-91860158D02*
X146438328Y-91860158D01*
X156518328Y-90684848D02*
X156638328Y-90684848D01*
X149678328Y-90924842D02*
X149678328Y-91272500D01*
X157718328Y-90684852D02*
X157838328Y-90684852D01*
X146078328Y-90924842D02*
X146078328Y-91272500D01*
X146678328Y-91620158D02*
X146678328Y-91272500D01*
X142686000Y-91272500D02*
X142838328Y-91272500D01*
X152678328Y-91620158D02*
X152678328Y-91272500D01*
X150878328Y-91272500D02*
X150878328Y-91620158D01*
X158678328Y-91272500D02*
X158678328Y-90924852D01*
X145478328Y-91272500D02*
X145478328Y-90924842D01*
X147518328Y-91860158D02*
X147638328Y-91860158D01*
X158078328Y-91272500D02*
X158078328Y-91620149D01*
X153278328Y-90924842D02*
X153278328Y-91272500D01*
X156878328Y-90924848D02*
X156878328Y-91272500D01*
X159278328Y-91272500D02*
X159278328Y-91512500D01*
X144518328Y-90684842D02*
X144638328Y-90684842D01*
X151118328Y-91860158D02*
X151238328Y-91860158D01*
X152078328Y-90924842D02*
X152078328Y-91272500D01*
X156278328Y-91620152D02*
X156278328Y-91272500D01*
X155678328Y-91272500D02*
X155678328Y-91620152D01*
X159518328Y-91860152D02*
X159638328Y-91860152D01*
X145718328Y-90684842D02*
X145838328Y-90684842D01*
X144878328Y-91272500D02*
X144878328Y-91620158D01*
X145118328Y-91860158D02*
X145238328Y-91860158D01*
X152318328Y-91860158D02*
X152438328Y-91860158D01*
X161228000Y-91272500D02*
X161482000Y-91272500D01*
X148478328Y-90924842D02*
X148478328Y-91272500D01*
X149078328Y-91272500D02*
X149078328Y-90924842D01*
X153518328Y-91860158D02*
X153638328Y-91860158D01*
X154478328Y-90924848D02*
X154478328Y-91272500D01*
X155078328Y-91620152D02*
X155078328Y-91272500D01*
X147878328Y-91272500D02*
X147878328Y-90924842D01*
X150878328Y-90924842D02*
X150878328Y-91272500D01*
X156878328Y-91272500D02*
X156878328Y-91620149D01*
X143918328Y-91860158D02*
X144038328Y-91860158D01*
X155078328Y-91272500D02*
X155078328Y-90924848D01*
X152918328Y-90684842D02*
X153038328Y-90684842D01*
X154478328Y-91272500D02*
X154478328Y-91620152D01*
X158078328Y-90924852D02*
X158078328Y-91272500D01*
X149918328Y-91860158D02*
X150038328Y-91860158D01*
X144278328Y-91272500D02*
X144278328Y-90924842D01*
X152678328Y-91272500D02*
X152678328Y-90924842D01*
X148478328Y-91272500D02*
X148478328Y-91620158D01*
X160238328Y-91272500D02*
X161228000Y-91272500D01*
X150278328Y-91620158D02*
X150278328Y-91272500D01*
X149078328Y-91620158D02*
X149078328Y-91272500D01*
X157118328Y-91860149D02*
X157238328Y-91860149D01*
X151718328Y-90684842D02*
X151838328Y-90684842D01*
X148118328Y-90684842D02*
X148238328Y-90684842D01*
X153878328Y-91272500D02*
X153878328Y-90924848D01*
X141289000Y-92669500D02*
X142686000Y-91272500D01*
X140781000Y-91780500D02*
X140781000Y-93558500D01*
X151478328Y-91272500D02*
X151478328Y-90924842D01*
X158678328Y-91620149D02*
X158678328Y-91272500D01*
X166316000Y-86438500D02*
X166316000Y-85378500D01*
X143678328Y-91032500D02*
X143678328Y-91272500D01*
X156278328Y-91272500D02*
X156278328Y-90924848D01*
X143078328Y-90924842D02*
G75*
G02*
X143318328Y-90684828I239972J42D01*
G01*
X146678328Y-90924842D02*
G75*
G02*
X146918328Y-90684828I239972J42D01*
G01*
X156278328Y-90924848D02*
G75*
G02*
X156518328Y-90684828I239972J48D01*
G01*
X152438328Y-91860158D02*
G75*
G03*
X152678258Y-91620158I-28J239958D01*
G01*
X153038328Y-90684842D02*
G75*
G02*
X153278258Y-90924842I-28J-239958D01*
G01*
X154478328Y-91620152D02*
G75*
G03*
X154718328Y-91860172I239972J-48D01*
G01*
X145838328Y-90684842D02*
G75*
G02*
X146078258Y-90924842I-28J-239958D01*
G01*
X157478328Y-90924852D02*
G75*
G02*
X157718328Y-90684928I239972J-48D01*
G01*
X146078328Y-91620158D02*
G75*
G03*
X146318328Y-91860172I239972J-42D01*
G01*
X159638328Y-91860152D02*
G75*
G03*
X159878252Y-91620152I-28J239952D01*
G01*
X145238328Y-91860158D02*
G75*
G03*
X145478258Y-91620158I-28J239958D01*
G01*
X151478328Y-90924842D02*
G75*
G02*
X151718328Y-90684828I239972J42D01*
G01*
X151238328Y-91860158D02*
G75*
G03*
X151478258Y-91620158I-28J239958D01*
G01*
X154838328Y-91860152D02*
G75*
G03*
X155078252Y-91620152I-28J239952D01*
G01*
X147638328Y-91860158D02*
G75*
G03*
X147878258Y-91620158I-28J239958D01*
G01*
X154238328Y-90684848D02*
G75*
G02*
X154478252Y-90924848I-28J-239952D01*
G01*
X157838328Y-90684852D02*
G75*
G02*
X158078348Y-90924852I-28J-240048D01*
G01*
X155078328Y-90924848D02*
G75*
G02*
X155318328Y-90684828I239972J48D01*
G01*
X143678328Y-91620158D02*
G75*
G03*
X143918328Y-91860172I239972J-42D01*
G01*
X145478328Y-90924842D02*
G75*
G02*
X145718328Y-90684828I239972J42D01*
G01*
X147878328Y-90924842D02*
G75*
G02*
X148118328Y-90684828I239972J42D01*
G01*
X156038328Y-91860152D02*
G75*
G03*
X156278252Y-91620152I-28J239952D01*
G01*
X153638328Y-91860158D02*
G75*
G03*
X153878258Y-91620158I-28J239958D01*
G01*
X150878328Y-91620158D02*
G75*
G03*
X151118328Y-91860172I239972J-42D01*
G01*
X153278328Y-91620158D02*
G75*
G03*
X153518328Y-91860172I239972J-42D01*
G01*
X159038328Y-90684852D02*
G75*
G02*
X159278348Y-90924852I-28J-240048D01*
G01*
X158438328Y-91860149D02*
G75*
G03*
X158678249Y-91620149I-28J239949D01*
G01*
X152678328Y-90924842D02*
G75*
G02*
X152918328Y-90684828I239972J42D01*
G01*
X158678328Y-90924852D02*
G75*
G02*
X158918328Y-90684928I239972J-48D01*
G01*
X142838328Y-91272500D02*
G75*
G03*
X143078300Y-91032500I-28J240000D01*
G01*
X151838328Y-90684842D02*
G75*
G02*
X152078258Y-90924842I-28J-239958D01*
G01*
X149078328Y-90924842D02*
G75*
G02*
X149318328Y-90684828I239972J42D01*
G01*
X155438328Y-90684848D02*
G75*
G02*
X155678252Y-90924848I-28J-239952D01*
G01*
X144878328Y-91620158D02*
G75*
G03*
X145118328Y-91860172I239972J-42D01*
G01*
X150038328Y-91860158D02*
G75*
G03*
X150278258Y-91620158I-28J239958D01*
G01*
X148478328Y-91620158D02*
G75*
G03*
X148718328Y-91860172I239972J-42D01*
G01*
X147038328Y-90684842D02*
G75*
G02*
X147278258Y-90924842I-28J-239958D01*
G01*
X157238328Y-91860149D02*
G75*
G03*
X157478249Y-91620149I-28J239949D01*
G01*
X158078328Y-91620149D02*
G75*
G03*
X158318328Y-91860172I239972J-51D01*
G01*
X147278328Y-91620158D02*
G75*
G03*
X147518328Y-91860172I239972J-42D01*
G01*
X156878328Y-91620149D02*
G75*
G03*
X157118328Y-91860172I239972J-51D01*
G01*
X156638328Y-90684848D02*
G75*
G02*
X156878252Y-90924848I-28J-239952D01*
G01*
X143438328Y-90684842D02*
G75*
G02*
X143678258Y-90924842I-28J-239958D01*
G01*
X148238328Y-90684842D02*
G75*
G02*
X148478258Y-90924842I-28J-239958D01*
G01*
X149438328Y-90684842D02*
G75*
G02*
X149678258Y-90924842I-28J-239958D01*
G01*
X155678328Y-91620152D02*
G75*
G03*
X155918328Y-91860172I239972J-48D01*
G01*
X146438328Y-91860158D02*
G75*
G03*
X146678258Y-91620158I-28J239958D01*
G01*
X153878328Y-90924848D02*
G75*
G02*
X154118328Y-90684828I239972J48D01*
G01*
X152078328Y-91620158D02*
G75*
G03*
X152318328Y-91860172I239972J-42D01*
G01*
X150638328Y-90684842D02*
G75*
G02*
X150878258Y-90924842I-28J-239958D01*
G01*
X144638328Y-90684842D02*
G75*
G02*
X144878258Y-90924842I-28J-239958D01*
G01*
X149678328Y-91620158D02*
G75*
G03*
X149918328Y-91860172I239972J-42D01*
G01*
X148838328Y-91860158D02*
G75*
G03*
X149078258Y-91620158I-28J239958D01*
G01*
X159878328Y-91512500D02*
G75*
G02*
X160118328Y-91272528I239972J0D01*
G01*
X159278328Y-91620152D02*
G75*
G03*
X159518328Y-91860172I239972J-48D01*
G01*
X150278328Y-90924842D02*
G75*
G02*
X150518328Y-90684828I239972J42D01*
G01*
X144038328Y-91860158D02*
G75*
G03*
X144278258Y-91620158I-28J239958D01*
G01*
X144278328Y-90924842D02*
G75*
G02*
X144518328Y-90684828I239972J42D01*
G01*
X128716000Y-115021500D02*
X128716000Y-116158500D01*
X121096000Y-112251000D02*
X123636000Y-112251000D01*
X124652000Y-114132500D02*
X127827000Y-114132500D01*
X127827000Y-114132500D02*
X128716000Y-115021500D01*
X123636000Y-113116500D02*
X124652000Y-114132500D01*
X123636000Y-112251000D02*
X123636000Y-113116500D01*
X126616000Y-117874500D02*
X126616000Y-118958500D01*
X116016000Y-112251000D02*
X118556000Y-112251000D01*
X119953000Y-114513500D02*
X123255000Y-114513500D01*
X123255000Y-114513500D02*
X126616000Y-117874500D01*
X118556000Y-112251000D02*
X118556000Y-113116500D01*
X118556000Y-113116500D02*
X119953000Y-114513500D01*
X131256000Y-112251000D02*
X133796000Y-112251000D01*
X134050000Y-113370500D02*
X146877000Y-113370500D01*
X133796000Y-113116500D02*
X134050000Y-113370500D01*
X133796000Y-112251000D02*
X133796000Y-113116500D01*
X151217000Y-117710500D02*
X151217000Y-118958500D01*
X146877000Y-113370500D02*
X151217000Y-117710500D01*
X145988000Y-120609500D02*
X153735000Y-120609500D01*
X154618000Y-116158500D02*
X153317000Y-116158500D01*
X126176000Y-112251000D02*
X128716000Y-112251000D01*
X154878000Y-116418500D02*
X154618000Y-116158500D01*
X154878000Y-119466500D02*
X154878000Y-116418500D01*
X139130000Y-113751500D02*
X145988000Y-120609500D01*
X128716000Y-112251000D02*
X128716000Y-113116500D01*
X153735000Y-120609500D02*
X154878000Y-119466500D01*
X128716000Y-113116500D02*
X129351000Y-113751500D01*
X129351000Y-113751500D02*
X139130000Y-113751500D01*
X192004750Y-97538250D02*
X192216000Y-97749500D01*
X192216000Y-97749500D02*
X192216000Y-98638500D01*
X192004750Y-96225500D02*
X192004750Y-97538250D01*
X213211500Y-98044000D02*
X213933000Y-98765500D01*
X196404750Y-90225500D02*
X196404750Y-88988750D01*
X196534000Y-88859500D02*
X209128500Y-88859500D01*
X209931000Y-96033500D02*
X211941500Y-98044000D01*
X209128500Y-88859500D02*
X209931000Y-89662000D01*
X211941500Y-98044000D02*
X213211500Y-98044000D01*
X209931000Y-89662000D02*
X209931000Y-96033500D01*
X213933000Y-98765500D02*
X213933000Y-99390500D01*
X196404750Y-88988750D02*
X196534000Y-88859500D01*
X213933000Y-99390500D02*
X215376000Y-100833500D01*
X209931000Y-106565250D02*
X209931000Y-104775500D01*
X198541000Y-109268500D02*
X198541000Y-107934500D01*
X194121000Y-113307000D02*
X195454500Y-111973500D01*
X198541000Y-111363500D02*
X198541000Y-110012052D01*
X195454500Y-111973500D02*
X197931000Y-111973500D01*
X194141000Y-115268500D02*
X194121000Y-115248500D01*
X209308250Y-107188000D02*
X209931000Y-106565250D01*
X194121000Y-115248500D02*
X194121000Y-113307000D01*
X209931000Y-104775500D02*
X212512000Y-102194500D01*
X198541000Y-107934500D02*
X199287500Y-107188000D01*
X199287500Y-107188000D02*
X209308250Y-107188000D01*
X197931000Y-111973500D02*
X198541000Y-111363500D01*
X215136000Y-98063500D02*
X215330000Y-98257500D01*
X197296000Y-98638500D02*
X196404750Y-97747250D01*
X196404750Y-97747250D02*
X196404750Y-96225500D01*
X198541000Y-112633500D02*
X199836000Y-111338500D01*
X193105000Y-112501500D02*
X193105000Y-116164500D01*
X199836000Y-111338500D02*
X199836000Y-108036500D01*
X200303500Y-107569000D02*
X209498750Y-107569000D01*
X211733000Y-103591500D02*
X212790000Y-103591500D01*
X210312000Y-106755750D02*
X210312000Y-105012500D01*
X212790000Y-103591500D02*
X213636000Y-102745500D01*
X193105000Y-116164500D02*
X193613000Y-116672500D01*
X195264000Y-113878500D02*
X196509000Y-112633500D01*
X198541000Y-115268500D02*
X198541000Y-112633500D01*
X210312000Y-105012500D02*
X211733000Y-103591500D01*
X194141000Y-109268500D02*
X194141000Y-111465500D01*
X213636000Y-100548500D02*
X212536000Y-99448500D01*
X213636000Y-102745500D02*
X213636000Y-100548500D01*
X196509000Y-112633500D02*
X198541000Y-112633500D01*
X194756000Y-116672500D02*
X195264000Y-116164500D01*
X195264000Y-116164500D02*
X195264000Y-113878500D01*
X194141000Y-111465500D02*
X193105000Y-112501500D01*
X209498750Y-107569000D02*
X210312000Y-106755750D01*
X199836000Y-108036500D02*
X200303500Y-107569000D01*
X193613000Y-116672500D02*
X194756000Y-116672500D01*
X193137750Y-90558500D02*
X193137750Y-91193500D01*
X209308250Y-88478500D02*
X210312000Y-89482250D01*
X192004750Y-90225500D02*
X192804750Y-90225500D01*
X195772000Y-88478500D02*
X209308250Y-88478500D01*
X193137750Y-91193500D02*
X193772750Y-91828500D01*
X192804750Y-90225500D02*
X193137750Y-90558500D01*
X210312000Y-94454500D02*
X212536000Y-96678500D01*
X194581000Y-91828500D02*
X195264000Y-91145500D01*
X193772750Y-91828500D02*
X194581000Y-91828500D01*
X195264000Y-88986500D02*
X195772000Y-88478500D01*
X210312000Y-89482250D02*
X210312000Y-94454500D01*
X195264000Y-91145500D02*
X195264000Y-88986500D01*
X160720000Y-104988500D02*
X158688000Y-102956500D01*
X158688000Y-102321500D02*
X158434000Y-102067500D01*
X164276000Y-104988500D02*
X160720000Y-104988500D01*
X158434000Y-102067500D02*
X157226000Y-102067500D01*
X197162000Y-115268500D02*
X196341000Y-115268500D01*
X182056000Y-106239500D02*
X182037000Y-106258500D01*
X158688000Y-102956500D02*
X158688000Y-102321500D01*
X197550000Y-116418500D02*
X197550000Y-115656500D01*
X165546000Y-106258500D02*
X164276000Y-104988500D01*
X197550000Y-115656500D02*
X197162000Y-115268500D01*
X182037000Y-106258500D02*
X165546000Y-106258500D01*
X158434000Y-103337500D02*
X157226000Y-103337500D01*
X165591552Y-106766500D02*
X164194552Y-105369500D01*
X196087000Y-107589500D02*
X196026000Y-107528500D01*
X183326000Y-106258500D02*
X182818000Y-106766500D01*
X160466000Y-105369500D02*
X158434000Y-103337500D01*
X196026000Y-107528500D02*
X196341000Y-107843500D01*
X196341000Y-107843500D02*
X196341000Y-109268500D01*
X164194552Y-105369500D02*
X160466000Y-105369500D01*
X182818000Y-106766500D02*
X165591552Y-106766500D01*
X180050500Y-111363500D02*
X180050500Y-107934500D01*
X194121000Y-88859500D02*
X194204750Y-88943250D01*
X175650500Y-113223500D02*
X176900500Y-111973500D01*
X194204750Y-88943250D02*
X194204750Y-90225500D01*
X180583500Y-107401500D02*
X184555276Y-107401500D01*
X189676000Y-102280776D02*
X189676000Y-90510500D01*
X179440500Y-111973500D02*
X180050500Y-111363500D01*
X176900500Y-111973500D02*
X179440500Y-111973500D01*
X180050500Y-107934500D02*
X180583500Y-107401500D01*
X189676000Y-90510500D02*
X191327000Y-88859500D01*
X175650500Y-115268500D02*
X175650500Y-113223500D01*
X184555276Y-107401500D02*
X189676000Y-102280776D01*
X191327000Y-88859500D02*
X194121000Y-88859500D01*
X181726500Y-107782500D02*
X184723000Y-107782500D01*
X176773500Y-113243500D02*
X177408500Y-112608500D01*
X181345500Y-108163500D02*
X181726500Y-107782500D01*
X175122500Y-116672500D02*
X176265500Y-116672500D01*
X180050500Y-115268500D02*
X180050500Y-112710500D01*
X176773500Y-116164500D02*
X176773500Y-113243500D01*
X180050500Y-112710500D02*
X179948500Y-112608500D01*
X174614500Y-112481500D02*
X174614500Y-116164500D01*
X191454000Y-94828500D02*
X193994000Y-94828500D01*
X175650500Y-109268500D02*
X175650500Y-111445500D01*
X190057000Y-102448500D02*
X190057000Y-96225500D01*
X181345500Y-111338500D02*
X181345500Y-108163500D01*
X177408500Y-112608500D02*
X179948500Y-112608500D01*
X179948500Y-112608500D02*
X180075500Y-112608500D01*
X175650500Y-111445500D02*
X174614500Y-112481500D01*
X180075500Y-112608500D02*
X181345500Y-111338500D01*
X190057000Y-96225500D02*
X191454000Y-94828500D01*
X174614500Y-116164500D02*
X175122500Y-116672500D01*
X194204750Y-95039250D02*
X194204750Y-96225500D01*
X193994000Y-94828500D02*
X194204750Y-95039250D01*
X176265500Y-116672500D02*
X176773500Y-116164500D01*
X184723000Y-107782500D02*
X190057000Y-102448500D01*
X152276000Y-108417500D02*
X150687000Y-108417500D01*
X170480000Y-111573500D02*
X174287500Y-115381000D01*
X177411000Y-116999500D02*
X177850500Y-116560000D01*
X177850500Y-116560000D02*
X177850500Y-115268500D01*
X166162000Y-111573500D02*
X170480000Y-111573500D01*
X162117000Y-107528500D02*
X166162000Y-111573500D01*
X174287500Y-115381000D02*
X174287500Y-116299948D01*
X161736000Y-107528500D02*
X162117000Y-107528500D01*
X150687000Y-108417500D02*
X150306000Y-108798500D01*
X174987052Y-116999500D02*
X177411000Y-116999500D01*
X174287500Y-116299948D02*
X174987052Y-116999500D01*
X177850500Y-107970500D02*
X177850500Y-109268500D01*
X164149000Y-106258500D02*
X165165000Y-107274500D01*
X153989000Y-107528500D02*
X153608000Y-107147500D01*
X177154500Y-107274500D02*
X177850500Y-107970500D01*
X154116000Y-107528500D02*
X153989000Y-107528500D01*
X161736000Y-106258500D02*
X164149000Y-106258500D01*
X153608000Y-107147500D02*
X152276000Y-107147500D01*
X165165000Y-107274500D02*
X177154500Y-107274500D01*
X100121000Y-114433500D02*
X96386000Y-114433500D01*
X96386000Y-114433500D02*
X96311000Y-114508500D01*
X106618000Y-113497500D02*
X110027000Y-113497500D01*
X106056000Y-112935500D02*
X106618000Y-113497500D01*
X98184000Y-96046500D02*
X95748000Y-96046500D01*
X98308000Y-110631500D02*
X98871000Y-110068500D01*
X96311000Y-112608500D02*
X97200000Y-113497500D01*
X103824000Y-113497500D02*
X104386000Y-112935500D01*
X95711000Y-96113500D02*
X95711000Y-96673500D01*
X96311000Y-112608500D02*
X98288000Y-110631500D01*
X98288000Y-110631500D02*
X98308000Y-110631500D01*
X104386000Y-112935500D02*
X106056000Y-112935500D01*
X98871000Y-96733500D02*
X98184000Y-96046500D01*
X97200000Y-113497500D02*
X103824000Y-113497500D01*
X98871000Y-110068500D02*
X98871000Y-96733500D01*
X95748000Y-96046500D02*
X95696000Y-96098500D01*
X110027000Y-113497500D02*
X110916000Y-112608500D01*
X95696000Y-96098500D02*
X95711000Y-96113500D01*
X110916000Y-114433500D02*
X107181000Y-114433500D01*
X107181000Y-114433500D02*
X107106000Y-114508500D01*
X94219000Y-94193500D02*
X93711000Y-94701500D01*
X100121000Y-112608500D02*
X98871000Y-111358500D01*
X93711000Y-94701500D02*
X93711000Y-96673500D01*
X100121000Y-112608500D02*
X107106000Y-112608500D01*
X99198000Y-96598052D02*
X96793448Y-94193500D01*
X98871000Y-110530948D02*
X99198000Y-110203948D01*
X98871000Y-111358500D02*
X98871000Y-110530948D01*
X96793448Y-94193500D02*
X94219000Y-94193500D01*
X99198000Y-110203948D02*
X99198000Y-96598052D01*
X104586000Y-115148500D02*
X105231000Y-114503500D01*
X133796000Y-96098500D02*
X134431000Y-96733500D01*
X105231000Y-113558500D02*
X105221000Y-113548500D01*
X135701000Y-96733500D02*
X131356000Y-96733500D01*
X131356000Y-96733500D02*
X131356000Y-96693500D01*
X134431000Y-96733500D02*
X135701000Y-96733500D01*
X105856000Y-117688500D02*
X105856000Y-116418500D01*
X105231000Y-114503500D02*
X105231000Y-113558500D01*
X105856000Y-116418500D02*
X104586000Y-115148500D01*
X135574000Y-86446500D02*
X138956000Y-86446500D01*
X134418185Y-86446500D02*
X134418185Y-86660364D01*
X131116000Y-86446500D02*
X133483185Y-86446500D01*
X133910883Y-86018802D02*
X134204336Y-86018802D01*
X134418185Y-86232651D02*
X134418185Y-86446500D01*
X135322049Y-86446500D02*
X135553185Y-86446500D01*
X135553185Y-86446500D02*
X135574000Y-86446500D01*
X134632049Y-86874228D02*
X134894321Y-86874228D01*
X133697034Y-86232651D02*
G75*
G02*
X133910883Y-86018834I213866J-49D01*
G01*
X133483185Y-86446500D02*
G75*
G03*
X133697000Y-86232651I15J213800D01*
G01*
X135108185Y-86660364D02*
G75*
G02*
X135322049Y-86446585I213815J-36D01*
G01*
X134894321Y-86874228D02*
G75*
G03*
X135108128Y-86660364I-21J213828D01*
G01*
X134204336Y-86018802D02*
G75*
G02*
X134418198Y-86232651I-36J-213898D01*
G01*
X134418185Y-86660364D02*
G75*
G03*
X134632049Y-86874215I213815J-36D01*
G01*
X134797081Y-82723500D02*
X136169000Y-82723500D01*
X138869000Y-84755500D02*
X138956000Y-84668500D01*
X131116000Y-82723500D02*
X133524629Y-82723500D01*
X133835077Y-82413052D02*
X134124629Y-82413052D01*
X134435077Y-82723500D02*
X134724629Y-82723500D01*
X138114000Y-84668500D02*
X138956000Y-84668500D01*
X134724629Y-82723500D02*
X134797081Y-82723500D01*
X136169000Y-82723500D02*
X138114000Y-84668500D01*
X133679853Y-82568276D02*
G75*
G02*
X133835077Y-82413053I155247J-24D01*
G01*
X134279853Y-82568276D02*
G75*
G03*
X134435077Y-82723547I155247J-24D01*
G01*
X134124629Y-82413052D02*
G75*
G02*
X134279848Y-82568276I-29J-155248D01*
G01*
X133524629Y-82723500D02*
G75*
G03*
X133679800Y-82568276I-29J155200D01*
G01*
X135236783Y-90256500D02*
X135318589Y-90256500D01*
X135026249Y-90256500D02*
X135236783Y-90256500D01*
X134231783Y-90256500D02*
X134231783Y-90450966D01*
X134426249Y-90645432D02*
X134637317Y-90645432D01*
X137860000Y-90256500D02*
X138114000Y-90002500D01*
X131116000Y-90256500D02*
X133436783Y-90256500D01*
X134231783Y-90062049D02*
X134231783Y-90256500D01*
X138114000Y-90002500D02*
X138956000Y-90002500D01*
X133825685Y-89867598D02*
X134037332Y-89867598D01*
X135318589Y-90256500D02*
X137860000Y-90256500D01*
X133631234Y-90062049D02*
G75*
G02*
X133825685Y-89867534I194466J49D01*
G01*
X134637317Y-90645432D02*
G75*
G03*
X134831732Y-90450966I-17J194432D01*
G01*
X134231783Y-90450966D02*
G75*
G03*
X134426249Y-90645417I194417J-34D01*
G01*
X134831783Y-90450966D02*
G75*
G02*
X135026249Y-90256583I194417J-34D01*
G01*
X133436783Y-90256500D02*
G75*
G03*
X133631200Y-90062049I17J194400D01*
G01*
X134037332Y-89867598D02*
G75*
G02*
X134231702Y-90062049I-32J-194402D01*
G01*
X138114000Y-88224500D02*
X138956000Y-88224500D01*
X134419762Y-89297768D02*
X134708494Y-89297768D01*
X137352000Y-88986500D02*
X138114000Y-88224500D01*
X134264128Y-88986500D02*
X134264128Y-89142134D01*
X131116000Y-88986500D02*
X133484128Y-88986500D01*
X135320000Y-88986500D02*
X137352000Y-88986500D01*
X134264128Y-88830851D02*
X134264128Y-88986500D01*
X135019762Y-88986500D02*
X135284128Y-88986500D01*
X133795426Y-88675202D02*
X134108479Y-88675202D01*
X135284128Y-88986500D02*
X135320000Y-88986500D01*
X134864128Y-89142134D02*
G75*
G02*
X135019762Y-88986428I155672J34D01*
G01*
X134108479Y-88675202D02*
G75*
G02*
X134264198Y-88830851I21J-155698D01*
G01*
X134708494Y-89297768D02*
G75*
G03*
X134864168Y-89142134I6J155668D01*
G01*
X134264128Y-89142134D02*
G75*
G03*
X134419762Y-89297772I155672J34D01*
G01*
X133484128Y-88986500D02*
G75*
G03*
X133639800Y-88830851I-28J155700D01*
G01*
X133639777Y-88830851D02*
G75*
G02*
X133795426Y-88675277I155623J-49D01*
G01*
X134029530Y-95423500D02*
X134050000Y-95423500D01*
X133953530Y-95423500D02*
X134029530Y-95423500D01*
X134050000Y-95423500D02*
X134725000Y-95423500D01*
X133573530Y-95099234D02*
X133649530Y-95099234D01*
X133421530Y-95271500D02*
X133421530Y-95251234D01*
X131116000Y-95423500D02*
X133269530Y-95423500D01*
X136590000Y-93558500D02*
X138956000Y-93558500D01*
X133801530Y-95251234D02*
X133801530Y-95271500D01*
X134725000Y-95423500D02*
X136590000Y-93558500D01*
X133421530Y-95251234D02*
G75*
G02*
X133573530Y-95099230I151970J34D01*
G01*
X133649530Y-95099234D02*
G75*
G02*
X133801466Y-95251234I-30J-151966D01*
G01*
X133269530Y-95423500D02*
G75*
G03*
X133421500Y-95271500I-30J152000D01*
G01*
X133801530Y-95271500D02*
G75*
G03*
X133953530Y-95423470I151970J0D01*
G01*
X134902016Y-91526500D02*
X135102591Y-91526500D01*
X138114000Y-91780500D02*
X138956000Y-91780500D01*
X137860000Y-91526500D02*
X138114000Y-91780500D01*
X134107591Y-91526500D02*
X134107591Y-91720925D01*
X131116000Y-91526500D02*
X133302591Y-91526500D01*
X133691453Y-91137638D02*
X133913160Y-91137638D01*
X135193000Y-91526500D02*
X137860000Y-91526500D01*
X135102591Y-91526500D02*
X135193000Y-91526500D01*
X134107591Y-91332069D02*
X134107591Y-91526500D01*
X134302016Y-91915350D02*
X134513166Y-91915350D01*
X134707591Y-91720925D02*
G75*
G02*
X134902016Y-91526491I194409J25D01*
G01*
X134513166Y-91915350D02*
G75*
G03*
X134707650Y-91720925I34J194450D01*
G01*
X133497022Y-91332069D02*
G75*
G02*
X133691453Y-91137622I194478J-31D01*
G01*
X133302591Y-91526500D02*
G75*
G03*
X133497000Y-91332069I9J194400D01*
G01*
X134107591Y-91720925D02*
G75*
G03*
X134302016Y-91915309I194409J25D01*
G01*
X133913160Y-91137638D02*
G75*
G02*
X134107662Y-91332069I40J-194462D01*
G01*
X134326291Y-81110378D02*
X134326291Y-81122500D01*
X134570291Y-81366500D02*
X134692291Y-81366500D01*
X131116000Y-81366500D02*
X133472291Y-81366500D01*
X136844000Y-81366500D02*
X138241000Y-82763500D01*
X134958241Y-81366500D02*
X136844000Y-81366500D01*
X134692291Y-81366500D02*
X134958241Y-81366500D01*
X138241000Y-82763500D02*
X138956000Y-82763500D01*
X133716291Y-81122500D02*
X133716291Y-81110378D01*
X131356000Y-81493500D02*
X131356000Y-81453500D01*
X133960291Y-80866378D02*
X134082291Y-80866378D01*
X134326291Y-81122500D02*
G75*
G03*
X134570291Y-81366509I244009J0D01*
G01*
X133472291Y-81366500D02*
G75*
G03*
X133716300Y-81122500I9J244000D01*
G01*
X134082291Y-80866378D02*
G75*
G02*
X134326322Y-81110378I9J-244022D01*
G01*
X133716291Y-81110378D02*
G75*
G02*
X133960291Y-80866391I244009J-22D01*
G01*
X126816000Y-98103500D02*
X126816000Y-100548500D01*
X136336000Y-101178500D02*
X136971000Y-100543500D01*
X126816000Y-100548500D02*
X127446000Y-101178500D01*
X136971000Y-100543500D02*
X136971000Y-97241500D01*
X139892000Y-81794500D02*
X138956000Y-80858500D01*
X127446000Y-101178500D02*
X136336000Y-101178500D01*
X136971000Y-97241500D02*
X139892000Y-94320500D01*
X139892000Y-94320500D02*
X139892000Y-81794500D01*
X117040448Y-109106500D02*
X110355000Y-109106500D01*
X108904000Y-107655500D02*
X108904000Y-91653500D01*
X117367448Y-109433500D02*
X117040448Y-109106500D01*
X108904000Y-91653500D02*
X110214000Y-90343500D01*
X122643500Y-109433500D02*
X117367448Y-109433500D01*
X123636000Y-110426000D02*
X122643500Y-109433500D01*
X110355000Y-109106500D02*
X108904000Y-107655500D01*
X110214000Y-90343500D02*
X113376000Y-90343500D01*
X110047000Y-109433500D02*
X108542000Y-107928500D01*
X116905000Y-109433500D02*
X110047000Y-109433500D01*
X108542000Y-107928500D02*
X108542000Y-91507500D01*
X108542000Y-91507500D02*
X110976000Y-89073500D01*
X118556000Y-110426000D02*
X117897500Y-110426000D01*
X117897500Y-110426000D02*
X116905000Y-109433500D01*
X110976000Y-89073500D02*
X113376000Y-89073500D01*
X112436500Y-92883500D02*
X113376000Y-92883500D01*
X127396500Y-109106500D02*
X123481552Y-109106500D01*
X128716000Y-110426000D02*
X127396500Y-109106500D01*
X111444000Y-97068948D02*
X111444000Y-93876000D01*
X111444000Y-93876000D02*
X112436500Y-92883500D01*
X123481552Y-109106500D02*
X111444000Y-97068948D01*
X132149500Y-108779500D02*
X123617000Y-108779500D01*
X112500000Y-94153500D02*
X113376000Y-94153500D01*
X133796000Y-110426000D02*
X132149500Y-108779500D01*
X123617000Y-108779500D02*
X111825000Y-96987500D01*
X111825000Y-94828500D02*
X112500000Y-94153500D01*
X111825000Y-96987500D02*
X111825000Y-94828500D01*
X166176000Y-91507185D02*
X166152500Y-91530685D01*
X124906000Y-103718500D02*
X139511000Y-103718500D01*
X110976000Y-91613500D02*
X113616000Y-91613500D01*
X114746000Y-103718500D02*
X110174000Y-99146500D01*
X140400000Y-98384500D02*
X141756500Y-97028000D01*
X164819500Y-92053500D02*
X165342315Y-91530685D01*
X164211000Y-97028000D02*
X164819500Y-96419500D01*
X110174000Y-92415500D02*
X110976000Y-91613500D01*
X165342315Y-91530685D02*
X166152500Y-91530685D01*
X140400000Y-102829500D02*
X140400000Y-98384500D01*
X141756500Y-97028000D02*
X164211000Y-97028000D01*
X110174000Y-99146500D02*
X110174000Y-92415500D01*
X164819500Y-96371500D02*
X164819500Y-92053500D01*
X139511000Y-103718500D02*
X140400000Y-102829500D01*
X112587000Y-85176500D02*
X113616000Y-85176500D01*
X109412000Y-87716500D02*
X110047000Y-87716500D01*
X86806000Y-108798500D02*
X85536000Y-107528500D01*
X107126000Y-92288500D02*
X105602000Y-92288500D01*
X85536000Y-107528500D02*
X84266000Y-107528500D01*
X113616000Y-85176500D02*
X113616000Y-85263500D01*
X105602000Y-92288500D02*
X105602000Y-91526500D01*
X110047000Y-87716500D02*
X112587000Y-85176500D01*
X105602000Y-91526500D02*
X109412000Y-87716500D01*
X95823000Y-103972500D02*
X94211000Y-102360500D01*
X93560500Y-107401500D02*
X95823000Y-105139000D01*
X94211000Y-102360500D02*
X94211000Y-101573500D01*
X95823000Y-105139000D02*
X95823000Y-103972500D01*
X164470491Y-114767500D02*
X161863000Y-114767500D01*
X136336000Y-107528500D02*
X136336000Y-108036500D01*
X137860000Y-109560500D02*
X153100000Y-109560500D01*
X160285000Y-105823500D02*
X160285000Y-111203052D01*
X158434000Y-103972500D02*
X160285000Y-105823500D01*
X164330000Y-112535500D02*
X164911000Y-113116500D01*
X136336000Y-108036500D02*
X137860000Y-109560500D01*
X160285000Y-111203052D02*
X161617448Y-112535500D01*
X164911000Y-113116500D02*
X164911000Y-114326991D01*
X156132684Y-103972500D02*
X158434000Y-103972500D01*
X128783000Y-97943500D02*
X128086000Y-97943500D01*
X161863000Y-114767500D02*
X161609000Y-114513500D01*
X156021000Y-104084184D02*
X156132684Y-103972500D01*
X129478000Y-98638500D02*
X128783000Y-97943500D01*
X156021000Y-105877500D02*
X156021000Y-104084184D01*
X156021000Y-106639500D02*
X156021000Y-105877500D01*
X161609000Y-114513500D02*
X161609000Y-113878500D01*
X164911000Y-114326991D02*
X164470491Y-114767500D01*
X153100000Y-109560500D02*
X156021000Y-106639500D01*
X161617448Y-112535500D02*
X164330000Y-112535500D01*
X133796000Y-98638500D02*
X129478000Y-98638500D01*
X156021000Y-105877500D02*
X157226000Y-105877500D01*
X159958000Y-110703500D02*
X137098000Y-110703500D01*
X133923000Y-107528500D02*
X129986000Y-107528500D01*
X106599000Y-107001500D02*
X106599000Y-105532209D01*
X159958000Y-110559790D02*
X159941290Y-110576500D01*
X158434000Y-104607500D02*
X159958000Y-106131500D01*
X107761000Y-104370209D02*
X107761000Y-91272500D01*
X106599000Y-105532209D02*
X107761000Y-104370209D01*
X112500000Y-86533500D02*
X113616000Y-86533500D01*
X107761000Y-91272500D02*
X112500000Y-86533500D01*
X159958000Y-111338500D02*
X161482000Y-112862500D01*
X164149000Y-113116500D02*
X164149000Y-113878500D01*
X161482000Y-112862500D02*
X163895000Y-112862500D01*
X163895000Y-112862500D02*
X164149000Y-113116500D01*
X107126000Y-107528500D02*
X106599000Y-107001500D01*
X159958000Y-106131500D02*
X159958000Y-110559790D01*
X157226000Y-104607500D02*
X158434000Y-104607500D01*
X159958000Y-110559790D02*
X159958000Y-111338500D01*
X137098000Y-110703500D02*
X133923000Y-107528500D01*
X94711000Y-95621500D02*
X94426000Y-95336500D01*
X132470854Y-84850646D02*
X132058000Y-85263500D01*
X94426000Y-95336500D02*
X94426000Y-94828500D01*
X105856000Y-98638500D02*
X103316000Y-96098500D01*
X132058000Y-85263500D02*
X131116000Y-85263500D01*
X94711000Y-96673500D02*
X94711000Y-95621500D01*
X132470854Y-84668500D02*
X132470854Y-84850646D01*
X117926000Y-102072500D02*
X121477000Y-105623500D01*
X158815000Y-107147500D02*
X159196000Y-107528500D01*
X168213000Y-114767500D02*
X167959000Y-114513500D01*
X117926000Y-97943500D02*
X117926000Y-102072500D01*
X157226000Y-107147500D02*
X158815000Y-107147500D01*
X153227000Y-109941500D02*
X156021000Y-107147500D01*
X121477000Y-105623500D02*
X133288000Y-105623500D01*
X156021000Y-107147500D02*
X157226000Y-107147500D01*
X159196000Y-107528500D02*
X159196000Y-108796210D01*
X137606000Y-109941500D02*
X153227000Y-109941500D01*
X171261000Y-113116500D02*
X171261000Y-114390491D01*
X170883991Y-114767500D02*
X168213000Y-114767500D01*
X133288000Y-105623500D02*
X137606000Y-109941500D01*
X164840290Y-111900500D02*
X170045000Y-111900500D01*
X171261000Y-114390491D02*
X170883991Y-114767500D01*
X161736000Y-108796210D02*
X164840290Y-111900500D01*
X167959000Y-114513500D02*
X167959000Y-113878500D01*
X170045000Y-111900500D02*
X171261000Y-113116500D01*
X158031000Y-110049500D02*
X157226000Y-109244500D01*
X169610000Y-112227500D02*
X170499000Y-113116500D01*
X164484448Y-112227500D02*
X169610000Y-112227500D01*
X108142000Y-91399500D02*
X111738000Y-87803500D01*
X163876000Y-112208500D02*
X164465448Y-112208500D01*
X170499000Y-113116500D02*
X170499000Y-113878500D01*
X159196000Y-110049500D02*
X158031000Y-110049500D01*
X108142000Y-104451657D02*
X108142000Y-91399500D01*
X161736000Y-110068500D02*
X163876000Y-112208500D01*
X107126000Y-105467657D02*
X108142000Y-104451657D01*
X107126000Y-106258500D02*
X107126000Y-105467657D01*
X133288000Y-106258500D02*
X137352000Y-110322500D01*
X157226000Y-109244500D02*
X157226000Y-108417500D01*
X164465448Y-112208500D02*
X164484448Y-112227500D01*
X156148000Y-110322500D02*
X157226000Y-109244500D01*
X111738000Y-87803500D02*
X113616000Y-87803500D01*
X137352000Y-110322500D02*
X156148000Y-110322500D01*
X131256000Y-106258500D02*
X133288000Y-106258500D01*
X132526000Y-83525500D02*
X132058000Y-83993500D01*
X132058000Y-83993500D02*
X131116000Y-83993500D01*
X95696000Y-94828500D02*
X95211000Y-95313500D01*
X95211000Y-95313500D02*
X95211000Y-96673500D01*
X132526000Y-83398500D02*
X132526000Y-83525500D01*
X103316000Y-97368500D02*
X105856000Y-99908500D01*
X164149000Y-116418500D02*
X163768000Y-116799500D01*
X164149000Y-115703500D02*
X164149000Y-116418500D01*
X163514000Y-120228500D02*
X162498000Y-120228500D01*
X163768000Y-116799500D02*
X163768000Y-119974500D01*
X163768000Y-119974500D02*
X163514000Y-120228500D01*
X160974000Y-122387500D02*
X161355000Y-122768500D01*
X161609000Y-115703500D02*
X161609000Y-116418500D01*
X160974000Y-117053500D02*
X160974000Y-122387500D01*
X161355000Y-122768500D02*
X162498000Y-122768500D01*
X161609000Y-116418500D02*
X160974000Y-117053500D01*
X167324000Y-122387500D02*
X167705000Y-122768500D01*
X167959000Y-116418500D02*
X167324000Y-117053500D01*
X167324000Y-117053500D02*
X167324000Y-122387500D01*
X167959000Y-115703500D02*
X167959000Y-116418500D01*
X167705000Y-122768500D02*
X168848000Y-122768500D01*
X170499000Y-116418500D02*
X170118000Y-116799500D01*
X170118000Y-116799500D02*
X170118000Y-119866500D01*
X169756000Y-120228500D02*
X168848000Y-120228500D01*
X170499000Y-115703500D02*
X170499000Y-116418500D01*
X170118000Y-119866500D02*
X169756000Y-120228500D01*
X90616000Y-99908500D02*
X90901000Y-99623500D01*
X89776000Y-79588500D02*
X89776000Y-79324500D01*
X91886000Y-85938500D02*
X95474000Y-85938500D01*
X89776000Y-79324500D02*
X90626000Y-78474500D01*
X90626000Y-78474500D02*
X90626000Y-78238500D01*
X90901000Y-99623500D02*
X92761000Y-99623500D01*
D61*
X193523000Y-78408500D02*
X195236000Y-78408500D01*
X186749815Y-92841184D02*
X186749815Y-87716500D01*
X186749815Y-85181685D02*
X193523000Y-78408500D01*
X186749815Y-87716500D02*
X186749815Y-85181685D01*
X186667499Y-92923500D02*
X186749815Y-92841184D01*
D62*
X93711000Y-103671500D02*
X93664000Y-103718500D01*
X93664000Y-103718500D02*
X93664000Y-105346000D01*
X93711000Y-101573500D02*
X93711000Y-103671500D01*
X93664000Y-105346000D02*
X93687500Y-105369500D01*
M02*
